<mxfile host="app.diagrams.net" modified="2023-08-10T13:13:08.550Z" agent="Mozilla/5.0 (Windows NT 10.0; Win64; x64) AppleWebKit/537.36 (KHTML, like Gecko) Chrome/115.0.0.0 Safari/537.36" etag="IF4ibPhhfPnDs-bSNKEC" version="21.6.7" type="device">
  <diagram name="PÃ¡gina-1" id="AiwYA-Ftu4jKQbA2I-0K">
    <mxGraphModel dx="1235" dy="638" grid="1" gridSize="10" guides="1" tooltips="1" connect="1" arrows="1" fold="1" page="1" pageScale="1" pageWidth="827" pageHeight="1169" math="0" shadow="0">
      <root>
        <mxCell id="0" />
        <mxCell id="1" parent="0" />
        <mxCell id="zfkhzStkePlrxHXvBTw--1" value="" style="shape=image;verticalLabelPosition=bottom;labelBackgroundColor=default;verticalAlign=top;aspect=fixed;imageAspect=0;image=data:image/png,iVBORw0KGgoAAAANSUhEUgAAAx0AAAGeCAYAAADxImzMAAAAAXNSR0IArs4c6QAAAARnQU1BAACxjwv8YQUAAAAJcEhZcwAADsMAAA7DAcdvqGQAAPGWSURBVHhe7J0H3NXTH8dP9iZkhZSSWQiRiGxFSEYysne2srKyQ2YiUSqSmfm3I5EdGZWZnWyyz/+8v/d3Hr/n59773Oep+7Q+79fr1nN/44zv+Z5zvt+zbh0fcEIIIYQQQghRJuZK/hdCCCGEEEKIsiCnQwghhBBCCFFW5HQIIYQQQgghysoMdTp++eUXN2bMGPfwww+75557zn377bfJncrcddddbp999nEHHHCAe+yxx5y2ocweTJ061e22225u6aWXdssuu6y77rrrkjtCCCGEEGJ2YoY4Hd98840799xz3SqrrOJatmzpdtxxR7fZZpu5evXquU6dOrl33323wrH4559/XM+ePd2QIUPcrbfe6nr16uV+//13u1ddcHK+/PJLN3nyZPf3338nV2d/kN/qq6/umjZt6o4++mj3xx9/JHf+BZl27drVnlljjTXcaaed5v7888/k7r9QHsccc4w916xZM/f4448nd6rPX3/95SZMmOCmTJnivv76a/f5558nd4QQQgghxOxErTsdzGZ07NjRnX322eZ8pMGgHT58uM1q/Pzzz8lVN10cBIzqvfbay22wwQb2ufPOO5M7sz+TJk1y7733nhs/fry7//77K8k28vrrr7vbb7/dnsHpGzx4sPvpp5+Su/+CY4ADyHNvvfVWjR1AIYQQQggx51CrTgfOQ+/evd3IkSNtJmP++ed3Xbp0cTfccIPr06eP22OPPWypDUZxdDTmmmsu1717d1uGs+eee7pTTz3V3qsuhPf++++7zz77zH3yySf2/5wCTlaEWYWJEycm33JQFg899JD77bffkivOZoNwPrKMGjXKff/99/Y3S6LWX399+1sIIYQQQohC1KrTwag4+zci7dq1cwMHDnSHHnqoLdlhpJ0R9x49erhFFlkkecq5/fbbz2ZAhg4d6nbYYQdXp06d5I4ohQ033LBCZr/++qs5DmlwNtgrk4b9Fk888UTyLQczUQ888ID9DxtttJFbbrnl7G8hhBBCCCEKUatOB3sEfvzxx+Sbc8sss0yFMcz/fOrXr28bxueZZx67DjgbOB4HHnhgJaOXEfo33njDrq+99tpuhRVWcCuttJIZ2SeeeKLFxbNXXnml7VdIz26wRGjvvfd2++67r3vllVeSqzmYEWHvQ4sWLdyKK65on3XXXdcdfPDBbty4cclT/8JeE8IhTpaPsTmemZmGDRvau1tssYW7++67LS3I4Nprr3Wbbrqp5XXVVVe1Z8lHFvZesAyMZWHNmze3sMgjey522WWXSg5cMRo3bmz7ZyIPPvhgpf0aLHNjb0UWlmLhfESQZ5QVZbX11ltXlB9QHu+884478sgjTV5Rduutt5476qij3Icffpg8WZhnnnnGdejQwTVq1MjkQ1ledNFFWsYlhBBCCDErEwzFWiMYrT4YzOwQt0+DBg38a6+95oMBnDyRn5122qninf3339//9ddfdv29997zwcmouJf+zD///P7ZZ5/1v/76qw8Ge95n4ufyyy+38IJT4INR7VdeeeW8z/EJxrt/88037dlITN+CCy5oYS288ML/eW/uuef2wXnywZnxc80113/uByPbf/zxx0mI3geHw3fp0uU/z6U/Cy20kH/ooYcqpaUQhx56aMV7Sy65pA8OWHLHm5yQF/eWWGIJS2sMf/z48clTOXkvtthidm+BBRbwzz//fHInJ7tXX33VByejIp7sZ9lll7VnIuhDcBYr7m+00UYWZ/odPsGx8ccff7wPjkfyphBCCCGEmJWo1ZmOYKjajEQkGNk2C8BMBbMLIT3JnaphjwbLsNgkDcxwnHHGGXYtLifimfnmm89mCYIxbftDIsFBsGucmMVJTMDG6UMOOcT2fEBwityZZ57pTj75ZNu/AB999JHNasR9DWlYpnT66afbKVnElZ6tIS0sI2OWgxmPeeedt9IswQcffOD69u1bMYtDWC+99JL9TTqZZbnkkktsxiAuPWOpFHtc0rNHhdh1110tTvjuu+8qzWwEx69i5oMZpbhkivCDg2V/A2UUZz6C41Jp9uTTTz+1GRv+B8oDWSA7ZAxfffWVXSsEM0TECTGtgF5cffXV7qmnnkquCCGEEEKIWQpzPWqRYEjnnUkIhrSNxr/xxhvJk/+Sb6YjGM4VsxzBsfCPPfZY8nRu1J0ZlB9++CG54n1wBCrNslx22WXJnX8ZPHiwD8au3V9qqaVsRiMyevRov+iii9o9ZgVGjhyZ3KmcPmYJOnXq5IOB7oNj4jt06FBxjw/5ZDaE9JBGZk7iva222soHZ8PCZFS/e/fu/qqrrvLBGbJrkX79+lXMRjDzMHHixOROYT7//HO//PLLV8TVp08fu46sSC/XmL0gX5tvvnnFc8GJs+fg/PPPt1kHrrdr167SzMMVV1xR8U6TJk18cD7sOuE/+eSTlm/uIcNx48bZvexMB2FH2QXnxvKenvkIDpe9J4QQQgghZi1qdaYDOEnpkUcesf0caTixKhjT9nsdwUhNrhYmPZPA3gfW/cfZB2YQ2FMQDHL7XgrMMLA3I474c2xvelZmnXXWsX0GwDNvv/22/Z2lTZs2tjmeZxdffHF37LHHVsyw8H9wONzxxx/vgjFtaWT/QoT9IPHULmZoLrzwQttgn95UD+yRiDMB/NZFnB0oBrMl6ZkJNuwDMnvxxRftb/aLUD7pE6nS+12effZZm3VAvhx7TBoj6VmI7bff3gUHx/7mWWSC/IDZpOeff97+zoIs2L+D7JgVY9YpffJWvn0vQgghhBBi5qfWnQ5gIzQbslkys9Zaa1VaZsRSod133929/PLLyZX8YIjjGESDnpOW+AE8Noc/+uijFcZ7qRBv2pHAEN9///0rPocddpj74osv7B4OCkfP5oNlRemlQThX8YhfjHQchjRp54s0Y9SnYakWx9nyo4hs0GYp2jnnnFNpI3j2nXyQBpadRcaOHWv54Lc24o/y4Riw7GzLLbesKBPKCceEpVFxqVXdunXdVlttZX8D4bA8LMLpWGzcj7Ljb5bSRQodV4wuzD333Mm33BIrdCVCGoQQQgghxKzHDHE6gN/j4IQo9hNcddVVdspRhD0HnC5VDJwN9jPstNNOFSPuGKUcu8tIO/sn8v24XSHYq4CBH8HpYMYifvixPH41GzDI045FMZiNiY5RPtL7PtJgyDOzwEg/RwuzX+X66693AwYMsBO8qutUkYa2bdtWOBOcJMX+C34zhdkSiA4Rzkl0hsgze0twTvg1d2APzMorr2x/A/tP0j84+Oqrr1aSHZ/0r40zi1EKpHmppZZKvuVmtIQQQgghxKzHDHM6IhjvOB/33HOPLUeKYLhWBbMdOAMjRoxwrVu3rmTc33LLLTY7UMosAPBuHGXHMOeY2ksvvTTvhxkaNpOXExwCZnLiD/SxNKpbt262jIzlWaU6PWlatmxZ4Uzg2OFwsHk7whHBwKb5+DczKpQNDhCOEBBOGtKSnqFgmVQ+ufFhCR3LpkqBsks7M+nlXEIIIYQQYtZhhjsdEX6vIp5yBIVmALIsvPDCbttttzWjmH0F/GAdYCDjkGBcR9LLuOLofoRwWDYEGLtNmjRxJ510Ut4PJ0iV+0fx+I2M9ElQ5I/fG2F2h19xL1U+aXA44hIr8shvh/C7GkD+11xzTfsbB4xTxaK8nn76aYs/ks/pYM9IhCVRJ5xwQl7Z4XBw8lU++L2Q9AwODs/48eOTbzlnSAghhBBCzHrUqtPBun9mJFi6lJ2B4DjW9BKcuPG4EBin7B1I723YfPPNbSYgjoizXCr+qBwj8enRePZvxJF7YNYkvefhtttus43dM4r33nuvQkb8uB+bvCPpDefVAWeCvRjRmeDHBeMP9rGfgh/jiyCLOJuC4T969Gj7m6VR6Y3mkfTeC/bXsOSqutx00002QxXzzbG+MV5Ib+wXQgghhBCzDrXqdEyePNk2iHNCFSc3cQISvz6+4447uu22267iFCZOdmIzeTHYX8B+jo033thdfPHFZujy691nnXVWxdr/1VZbrWIEHkckbbgPHz7c4mApEMuzgJOiFl10UfsbY3yPPfYw54NfyebErT59+rhOnTq5TTbZpGJ/R7lgU3x0Dl544QX7jQ7y2LNnT1t2VdP9DTgTcWM7jkGc8WHfSLwOnCAVT//CwYm/z9GsWbNK+zki/EJ6TC9L4yhbZMcSLpwbTu3idzx4rhDEQxnssMMOJmccpB9++MHu4TBR3kIIIYQQYhbE1yITJkywX6Um2kIffpfhjDPOsF/kjuT7nY7gdPhlllmm0rvpD79f8eijjyYh5OB3H4Lx+p9ne/fubfeJ87DDDvPzzDPPf55Jf/gNj0mTJtk7kC99kXfeeafiF8r5HQx+pyRNcJgq3g0Gvf/555/tOr9OXr9+/Yp76Q8yCs5Uxd/5ftukEPwS+XLLLVcpPNI1atSo5IkcwQH0rVu3rvRccCr8hRdemDxRGX5fZN99961SdmuuuWbyRuXf6Zh33nl948aN//M8H8psr732qvgNEyGEEEIIMWtRqzMdjJ7fcccdrlWrVpX2V0RYPsN9RvPTG6XZRM3SKJb2sPeDdzn96oorrsi7zp+ReJbppI91BWYI2rdvXyluZkCYVQDiDA6Iu+aaawruO+A6o/Hp/Sf50hdhtoA9GYzUk9b0aUzA7AszO7zPL6DHJWCc5tW/f/9Kp3oBz7NXZc8997RnmcnJ/o5HMdjXwfG/cRaDPDPzlF3ORl5OPPFE27tCfoiL0604kjgfzJJwuhabxSmbfJDWgw46KPmW27cT88zSrmHDhlnakFWEv/k19htuuKHSTIwQQgghhJh1qIPnkfxda7CMhlOZOIaVjd4YwOwJYOlONLpLhWNxOdL1o48+su8NGza0zeRsjM4H+zhYrsQGagxajG32KKQNXWCpF0vBWGbFvhBO1sJAJo04CbUFvx/CEiWWk+GwsME7bnifWYllMmnSpArZUS7Nmzev0nFAN9ALfggQZ4dTtOIGdyGEEEIIMWsyQ5wOIYQQQgghxJxDrTkdbNaOG7aFmBY4sphZEyGEEEIIMWtQa07H2Wef7c4555zkmxA1h98w0UlWQgghhBCzDrXmdHzxxRf2EWJaYbN++tfrhRBCCCHEzI32dAghhBBCCCHKSq0emSuEEEIIIYSY85DTIYQQQgghhCgrcjqEEEIIIYQQZUVOhxBCCCGEEKKsyOkQQgghhBBClBU5HUIIIYQQQoiyIqdDCCGEEEIIUVbkdAghhBBCCCHKipwOIYQQQgghRFmR0yGEEEIIIYQoK3I6hBBCCCGEEGVFTocQQgghhBCirMjpEEIIIYQQQpQVOR1CCCGEEEKIsiKnQwghhBBCCFFW5HQIIYQQQgghyoqcDiGEEEIIIURZkdMhhBBCCCGEKCtyOoQQQgghhBBlRU6HEEIIIYQQoqzI6RBCCCGEEEKUlTo+kPw9+zF1qnNjx4Zc1nGuWTPnFlgguSEqgQp89FHu07SpcyuskNwQQgghhBBi2qndmQ6M2++++9fA5fPpp8798EPu3vRk3Djn1lrLuY03zn2efNK5Tz5x7tRTnbviCuf++CN5cDqw227OLbWUc3femVyYxfjgA+c22cS5nXZybuTI5GIRfvnFuUsvzcny/feTi0IIIYQQQuSndp0ODP0DD3Rugw1ynw03zP3fooVz3bs79/vvyYPTARyLDz90bqWVnDv6aOeWXda5hx5y7rLLnDvrLOc+/jh5cDqA44Qz9c03yYVZDGTy1Ve5Mthjj+RiEd5807lTTnHukkucu+226e8wCiGEEEKI2YradTr++ce5zz5zbsoU5xZZxLmWLZ1r0CA3A4Hhe8QRzv32W/LwNIBz88orub8POcS5q67KOTbMeHTq5NxBBzlXv37u/pwOzsZPP+WciOOOCxpRgko0auTcwQc7t9dezu2wQ275mhBCCCGEEAWYcRvJt93WuQcecG7UKOe6dMk5JLfe6tw77+TuM3r+55/OPf+8c7fc4tyzz+aciTiqzv9//+3cX3/l3mXmYtiwnAHNXg4+sPDCuWd4vnnz3Mh8797OLbhg7j7XWS50333ODRyYW/JFeDGeLFxnVuP22517+ulc2PngOdL/zDPODRjg3EsvFX4WeD6dnwh/c417EZ798kvnhg7N5Xny5H/Tmy8M7nGNT3wuXsPpoCxwyn79tfL9GBZ/x/iIq149566/3rlBg3KzVRGeI8/PPedc//7OPfFE5TKDbLhCCCGEEGL2h43ktcavv3q/4YaYmt4fckhyMTBgQO4an8ce8/6ff7y/7z7vmzb99zqfxo29HzEid3/qVO8328z7JZbwvnt37xdZJPfMCSd4v9RS3tepk/s+zzzeL76492PGeP/EE97Xrev92mt7/9NPubivuCJ3P8bB8+ec4/3ff+fuZ+nVy/uFFso9O9dc3m+wgffLLZeL77rrkocCQ4d636DBv+HyId4XX0weyPDdd96vuab3Cy/s/R13JBcDvXvnru2+e+77b795f9hh3s8//7/hkp7778/dP/zw3PcTT8x9B/KNfFZc0ftPPsldGzjQ+0aN/pUTH+I56qhcOf3xh/edOnm/2GLeX3CB98svn3vmtNO8nzQpF9aii3p/77258P780/urrspdj+HxoSwuusj7v/7KPffhh943bJgrh0GDcteEEEIIIcRszYyb6YgwIj9xYu7vued2bsklc3sjTjwxd33nnZ279lrnttwyt+H5tNNysxmYtN9/n/uwqXnppZ1r3dq5NdZwrm3b3AwHcBrTNtvkNnqzdOvnn3PvMNrOXoxevXIb2Q87zLm+fZ3bZZfCy4Xefju3j4EZAZYYbbqpcxMm5GYB0rCE7KSTcuF37uzcNdfkZhLeeiu3tIv4s5AerjPrQvgR0sv3H3/MfWej94035v5mb8qVVzrXqlXufUA2PM//kZhv8slMBDCDNO+8zh1/fC7fbIZndohZGfIU5Uu8Z56Zk8nmmzvXsGEujG+/zcVBuPDYY7mwkAVL2JjpaN8+t5SO97lPmOQv7oH5/PPcu0IIIYQQYrZmxjkdLOvhRCmWOrFUBzDicRowUNkEzt8suTrySOeGDHFuueVy11kClQZDmGVMLHfq2tW5m2/+d88Gezo4VQonIUs08jGocUxwPFg2xf6GfI4HBjmGe926zo0Y4dxTTzn36KO55UZp+vXLOR44PDgcRx2VWwbFezhO07KJ/Ysvco7afPPlHIVu3XIb5Nu1Sx4okfPPd+6FF3J7acj3TTfl5ItDQRxpcODuvjuXX+SbD/KH44NzyLIrDgwgzBVXzIXJfdK92mrOPfxwbqkWZSOEEEIIIWZ7ZpzTcf/9zm21Vc7AZzSdv9m7wV6L0aNzBiyj5Dgc7PlgkzOj6uwRYF9BGvYk4GQwU8KnVHBWmCVgBJ44OnTIORM4HFmng3g5tQlwhnBiiIvN8KuskrsOPPfii7m/cWo4OYuwTz89d4+9DDguNYXZHNLNLAMGPjMnxDfPPMkDJYIjMWZMzvnA+CedcTaFNKYhj+uum9tkXki+772X+x95zj9/7u9llsnN8ACHBRAusyuUNZvQccKEEEIIIcRsz4xzOtZbz7kePZzr08e5d9917vHHc8Y0xOVHX3+d2+B9zz05ZwCjlaNvGT1PgyGbb2aiKjC8GXHfbrvcaDyO0K67Onf22ZU3YgOOSVz2xHuFTnniPWZPgNmce+/NpZ+wCYNZEfJQDJ4rBM4OMxs4PsiJWZ0ttnDurrsqv1csDO6xNIt89+yZm00inTHdWZhVqepUK5ZmUQZxgz7wfdFFc3/H5V9CCCGEEGKOY8Y5Hfw+xwUXOHfssc6tumpyMSE6HzzD/g6M4fhhxJxlS9MLnACM+FdfdW7ffXPGNUuJ4l6FCDMJcRkVS7zifWYH0jMXOEDRqSD9zMqk089+hnzpx0CPswhxPwaGOkuxsg7E6qs79/rrueVOzELwHPs8mEmJzgF7JiLZvROkGWeLPLEUjGeZVeL44prCnhnSyX6QCI4I+2Bg+eX/zR/X0+kTQgghhBCzNTPO6SgGG8EZMWfjNcfqsseADcrMiLDfI26GnlYwkM84I/c/S4G23jpnGGdnOYDrzAxg1LOnhI3SHPfLr3iPH588FOA5Nr/z/9ixuf0LzHiQB/LDjA3OQRZmT9gMDzgEHLHLBmyWnKV58MHc5nH2jDRp4txGG+WuR8eEfAByGj48N8tCHtPwI4xsLsfR4fdScELYy8LMUk3BwQLyxyZ18szszhtv5GSx4465/3G6mK0hnezzEEIIIYQQsz0zp9PB6D0bu5kZ2Gef3L4APhjYxxwzfX5AEFiexEZqfjSQ8A8/POfQsEdkoYWSh1JwEhV7G1jmdeqpuT0V/H5IdqZmzz1z+xYY0Wc/x/rr58Innrg3JQv7IPg1cBwBNnizN+Kii3LGfHq/xqRJuZO9kAX3rrsu5wjxLsugomPE7Avp2H33nDOz+OJJAAG+s7yNvLKfg7Qdemju/ZrC++yrwXEhDYTJpnMcOGTAiVbkjVOveAYZpmdFhBBCCCHEbMvcZweSv8sPRidGKEY6swGNGyc3MrBEiZFxjs/FgF5ggdzIOEY2RjKGP6PmhEdYnNzE/3yHGA8nJXEvnmTFdT5t2uQ+nNbEUiicGIx+nmfjevfuuTizYJTjDLD8ib0K/NggS8TYgM6maH6dm7hwEnBcmEXgb8ImHt5lwzbvxWVQadZZJ/c899iczhG0pIW84uDgKDBLQNpwGJgd4Rr7MzDs43vkA4eHOJEzJ4QttlhOfszmMIuEAxSXY7Gsio3uHBfMMqjtt88tlyJe9s9QFqQtypfrzKzgTHEsLsvOyH/Hjrnw+OC08Q6/Mk/Y0YlDbjxLunFKtJlcCCGEEGK2pw4/1pH8LYQQQgghhBDTndpzOjgdiZOohEhz+eWa7RBCCCGEmM2pPaeDH4pj87UQadhsnv1xRSGEEEIIMVuh5VVCCCGEEEKIsjJX8r8QQgghhBBClAU5HUIIIYQQQoiyIqdDCCGEEEIIUVbkdAghhBBCCCHKipwOIYQQQgghRFmR0yGEEEIIIYQoK3I6hBBCCCGEEGVFTocQQgghhBCirMjpEEIIIYQQQpQVOR1CCCGEEEKIsiKnQwghhBBCCFFW5HQIIYQQQgghyoqcDiGEEEIIIURZkdMhhBBCCCGEKCtyOoQQQgghhBBlRU6HEEIIIYQQoqzI6RBCCCGEEEKUFTkdYqbGe+9+/PFH988//yRXhBBCCCHErIacDjHT8vPPP7t99tnHbbjhhu6zzz5LrgohhBBCiFkNOR1ipuSPP/5wJ554ohs7dqy799573YorrpjcEUIIIYQQsxpzrNPxzTffuFtuucV9/vnnyRURmTp1qhs8eLAbN25ccqX2+eCDD9xCCy3k7rnnHrfGGmu4OnXqJHdmPR577DE3YsSI5JuYmfj444/dwIEDk2+zNl9//bXr37+/++KLL5IrQgghxMzDDHE6WKf/119/uUGDBrlevXq5X3/9NblTM1577TV37LHH2oh4qUycONEdfvjh7pVXXkmu1JwnnnjCLbLIIm7IkCHJldJ47rnn3JJLLumGDx+eXCkO+xr+/PNPk185+e6779wxxxxjBv+MYtKkSaYjX331VXJl1oSyuuSSS9xZZ52VXJk2jjzySLfSSiu5Tz/9NLlSNb///rvbZZddXIsWLWwGqSpi/fz777+TK9OHQvp76aWXusUXX9y98cYbyZXa4/nnnzeZzg68++677rDDDnNvv/12ckUIIYSYeZghTserr77qttlmG9e1a1d3ww03uF9++SW5U30wZM4991x37bXXuh49ekyzA1MT5pprLrfKKqu4+eabL7lSOg0aNHDzzDNP8q04Dz/8sO1vwGGancHY7dmzp7vuuuvcKaec4n777bfkjlhsscXM6ajOzA9G/hJLLOGWW265kjbkI+8OHTrY8rbpCc71xhtvbA5lmgUXXNDqD/VICCGEELMntdrLY/wwer7ddtuZ0bTuuusmd2rOe++9ZzMGGKeffPKJLWXJB3FzCtLkyZNtFLcYGGZTpkyx5yO8/9NPP9n17Ajwlltu6d566y23++67J1cqw3ss58rG27p1a5ulYRQ6DRuoWSqRdcaYgZgwYYItfyoE72bTiCNGeLyfz+gkbzyDbBgVLwYj5eSFOIrJkTB5hvTwd3XAKSWfJ598snv99dfdSy+9lNz5L4T9/fff2ycdD3+TX/LE6Ho+yAv3yU+hZ7IgH9759ttvC84EEBZhoj9V5T2Gl5Y74fI+epPloosustH5+vXrJ1f+hfLIF+8CCyxgSwkffPBB+zuCLpAP3kmXJfG///77/3EO0hB+vvIlzcxO5cs7zxNuVseOPvpom+VYZ511kiulEXUR+ZUygwPkGV3J1pEsNdENwiNcPvnqBvKgTlMXC9WLWFe5n4XnkWuh+4WI+pgtZyGEEKJWCR1ZrRE6fN+vXz9/++23+2A4+2Ck+5VWWsmHTjR5onqETt737NnTN2zY0AdDxwejxW+11VYWdppgQPizzz7bN2rUyK+44ooW76OPPurnn39+f//999szb7/9tt9+++392LFjfXBg/Morr+ybNGnir732Wh86an/nnXf61VZbzdLbsWNHHwwLew/eeecdv8022/jg/Nj33377ze+7777+qaee8ldffbVv3Lixxbvnnnv6YHTYM/DRRx/5Dh06+OB42PdgHPi+ffv61Vdf3a+wwgoWH/Iin8cff7xv2rSpn2uuufx6663ng8PiBw0aZDLt37+/P+yww3wwzn1w5EweI0eO9MHo9ieeeKK9F4xUy1OXLl18MFwsvsh9993n11xzTXumRYsW/oEHHvB169b15513XvJEjocfftjiJi/IYdtttzV5RYLB5A888EAfDFzfvXt3i69NmzY+GHkm3x133NHCLgay3m+//XzLli39F198YWkib1xP07t3b3/aaadZuZBfZDZx4kS79+WXX/rOnTv7Bg0aWFrJ07PPPmv3AP248sorTVbc57P11lv7jz/+OHnivwRD2V9wwQUVciL/wXn+zzuffvqpXSdM0nXNNddY2MQVuf766/2hhx7qx4wZY+XIs23btvXByLeyOeiggyx8yh9ZUv4R9GOPPfbwwVmw78GR8F27dvXBoDS9jPGiNxHe79Wrlz/yyCOTK97qy2677Wbx8E5wnE0fg7Nnfy+44IJ+qaWWsvTxnXwWK1/e3Xvvva2Oobv8T/lQ9/gcccQRftVVV/Vzzz23lQfhUrdgxIgRphvI7sUXX7R6iGzSBGfF77TTTv7pp5+2ejJgwAALh7Tz2Wyzzfybb76ZPJ0fdIi6jV6Qb+roTTfd5BdeeOHkiZrpBnzwwQdWlwmXD3KhXUhz1113+bXXXtv0B/kQT4S0kad4H1nRZiE7oN0IzpmVLfKlbTrrrLOsTCLPPPOMyffxxx9PrnjTA9rFmJdNNtnEB0c+uZtj3LhxVgZpPRNCCCGmN7U608HsxiGHHOKC8V1pxLWmsAzkkUcesSUb7I1gBuXll192wQBKnsiNbLL0ihHiDTbYwPZ+MLobDI5KI5iMajJLEgw498ILL9joazAe3EknnWRrvlmTH4wqWxYWjHQXDIbkzdwGzieffLJiZDgYEC4YAC4Y7e7WW291wdB3u+66qwsGt+0jYRQVGHkMBkLFe8EwdieccIILjpO76qqr3P7772/PkIdg4NnoNktQgkFim6uXXnppG/1kDffdd9/tghFpy6+C0Wr3gtPjghFn8iYtwSi1maZgDNqoLO+SZ2SB/MhzMKpdMIgrjaQS/2233eaCsWvhHnXUUZY2ZiPI14cffmjPke9Ro0bZGn1kRDqQF8vHggHm/ve//9msVDHYBMtzlCVpIj/IMjuyywzRsGHDbGndXnvtZXlk4zkjyeQnGK3u1FNPdRdffLFbdtllrQxILzA7NnDgQBcMfRcMOxcMYts036lTp0qzW2lYL0/5BcPX4iT/zDiwBIl8Q3B2XDCeLazgOFm60BN0Mg33KS/CCEamO/jgg00+hI08kQFlwT4H9takN/Qzo0a5xtku8hQcZ9euXTvTDcqG/DJLFOOl/NCDKHvK/YwzzjAZsSQRGQUHx/Q4OOIuOKm2VJClXOgZH74XK1/0g5kldOf88893G220kbv88stdMLSt3gdj2S2//PIuGMUuOOEWJsu9gNkP6gEzEKSdfVY333xzxUwE6b399tutfiyzzDKWZ+pzq1at3JlnnumCQ25HKqP/5CEf1HVmQ4MTaOVOPURvWcaXpia6QblTbhxKQd6pa6Sd+hbrNrqCTtBWIRfKiVmNyNChQy1NyIn8oP/I7ocffrD2irwhg/bt25vOBeffXXjhhdYuRf3LQnqCI2PtCc8RJ7JGp+I7tKHES9vG4Q1CCCFE2Qgd+gxjWmc6gjHgg2FkI4jwxBNP2ExAepSX0XJGbBmVDx2tXWM0MxhprG2omOlglJDvjLIyUwGMCAaDyterV69i1JKRxWbNmtmIfySOMAbDwb4HA9lGgckbo9cR8ktYwUCy78EotFHWmAZG78kPo6b5YGYjGNb+jTfeSK7kRrGZzSDtwZiwmY9iMBrOSCqzIIyi7rzzzpZWRsqB8JjhILw40/HTTz/ZaCmzD+mZGmZ2gjHqg6Nk3xmlZ1aFWRJmNtIgk+Dw2Ah7Me69914/77zz+mDc2vdgANqMFLNGaZixIY19+vRJruRm0oKT5xdZZBEfDNfkqvfBcLPR7WDcJ1f+SzC8rQyrGi1PE4w4K8+YJ2acCOOOO+6w7xAcWB8c7EozHYxYo1dDhgxJrngbtSY/zHJQBhAcQtPn4Fjbd+DdtA4xWs57wTm2GQAIxrSVAfoAXKec0VugPJkZKqQv3KccmQlJU6x8s/AsM3zEG7nuuut8cKT8+PHjkys5yAN6FBwqq3vMVjKjRBhAfd188819MNgrjeynQQ+QM3UqH8yULLHEEjYDFqEOMFuSnunIRzHdQH7B+Lewg2OaXM3NfNDuMDsGzHihl/nkRp1aa621fPPmza2eRNADwmcGBH0ZPHhwcid3b5999rH2gHYQ8s10ZGHGizKI7RLhXHXVVSaXdN0WQgghpjez7M7NkHZ300032cgoeyogGBCuSZMmdopUnMVg0zUjsGyMDR2yXWOWhRFeRnXTcJ/RyHidmYVgYNkocjDS7BqbXoMBaWFWBSPXhBEhDNazx1HqLIwwc5+RdI7yrA6MADOSm2+DMevsmRlgpJv7xIF8GOVk1Ji19Isuuqg9y2j5AQccYBuPI4y8s1+GUW3yH2HmiJkRZibStGnTxkaz0wTDzvaukM5CUKaM5hJmMJDtWnACrYyvvvrq/4zocp3Zlwj3GR1mNoYR4pEjR9qHfSGUY3rGAJAD15ALzwcDr+h+GUBm/HZIlCWzVlwD9iWQT/QwwkwNI/JZSE8wpJNvzvSW2QRmZCgDYHYLXQyGoX0vBGXFDB4zDsB7yIYR+HxQhsiX0XVmFGJdKZV85RthZo49OOzLCc5jwdmBQiAD6ir6H8uLfDATRD1M11nSzcwEsy/Ei/4UyguzGswsxLYCkNtxxx2XfKtMqbrBc8xarbjiilZPos6RLmbe4uxBrNvMnpAX0hoJTpilj3qH/kTQA3SMWRJOx9tkk02SO7l7zMqi88zMFoNniBM5oa98j7MshMPMB0dkk14hhBCiXMyyTgeGCM4Fxg+dPMs9nn76ade8eXPrhDGygaUJdNwYYWmiA5IlbbRjxGE4RSMwgmFQlSEI0WiIEBbGBgZMPljSgfHIKVU4KN26dbOjUdMGSiEIO22wAI4Ry8M4IWvbbbe1JUgsRyM8PuSBZUv16tWrJI9supEhhjXGbPo6BiBLZNg4mwYDKf1cqWCg4cBgEHMMMWWKwYVBTrpZGpIG5zHtBGFwsqSEpTYY7ywZiR+Wz0UdwHhkyR3L1DbbbDOTy/XXX19UzuSfJT3IAMOVdzjyGeJ7yAHDLV0OyCGrP5G0jDC2IX0t6l5V5Z+Ng795t5COUtYsAcIQxuDk/zvuuMOM4lLIV74saeQgBZYHsQSoc+fOVl5VpT0L4e68884mR+RLXWEDPGVL+OQNw5m6j160bNnSHE+WTRWDpVvII+v0ZtuB6uoGekFbxOAGv54f9Y2lZ6SdJYKwxRZb2NIrDP/111/fHXjggRX6jN6QJ+ppPtBdZJ6t3+gzesPG/XyQXwZmWCaK48sSMZx3qG65CCGEENPKLOt04GiwfptOnBG/+MFoxXhiFJdOH6OCDrZUg2pGggGNYctafIxC1mMz8xJH0qsL+0L69Olja/YZeWatPPsM0iAfwi9mhPAMxl56DTogX2ZRMIimFeLnSFWMQ35IL12mjJwTN+v+i4HBihHWqFEjy2v6g0zZXwMPPfSQ7Z3BSMQ55d4555xTyXDPwgwMo9Q4hciSdwgjDXLCOC7FIZ3RYLBTV6hHOO7sL+GH5WoC+cV5oXzuvPPOCvmstdZayRPVAyOZGS70gRkA0sXsCmkG0o1eMJMY4+L3fopB2aAfVbUD1dUNrqNzDHbk0zn2UgADGAwAoMu9e/c2OeEYx3ukLVu/ItzPp1c4SMxasPcnH+zXYuACZyOm6YILLkjuCiGEELXLTOl0YMwyesfoXyEY/WRjKht8GYmPH0a6WYbASDmbiln2gMGRPnaVzpsRdDrsmQ2MGNKM4cOmezaJR2OEfGCcF1pCkoUNx4zYMvKKIcesRNp4wlhiKRKjtFHWhM/yofRSkhVWWMEMG2aQ0nEzus27jAhXBTJn+UmhMsXxoUzZaEsZpsuUpSGkgY3cxZwjZl7i0jfiI7/pDxujAV1ADmzgZnQZPUov28kHm7UZWWaDd3wna4jyWxPoHEvRIoyCx83EMxMYucwmsEQOA5i0s9k8Qt6K1b80lBEyZTM1zgJLCpdaaqnk7r+gv9TtqvSXuNk4TbiM1FP+GM68DzgaGOJsWsfBpCyqOpiCZ3jnzTffTK7klkaxmT5NdXWD2Qdm5ihn0pfVufTsBOESHpvTGVSIy8eYPWN5I21W2rFgaRptFE4hS7xwwCLUA54nTpbw5YP6Qvxsto9yYgYsC+VcaAO+EEIIMb2oVaeDjpLlPKxh5oOBRqfKshqWGsQOF0OAZRqnn366fc/CaDgdLksWssslMD7Ye4AxTKfOqTyMQrJ2HaMKQ6Nfv362/yHdwc8M9O3b1wwsjACMfowMjJFoKJBX5IXxj5FelfGGkYyhj0HEs8wgsHY7gqz4rRCcDE61QjbsS2BpSHpEGMcEwwYjhtFs7mEQsR6evzltpyoYncaI49e588GSKAxClphlDUjywQk8o0ePrnQyWRaMOk7oQTY4bDgfyDLmC9kC+UEeyJf/uc5IOQZxIXDaWAYT38Fp5RSnNOgj8XFiFY4iMmIZTTw1a2aBJXvsG2KWivSyH4I6FR0FjGz+5qQs9Ad5FpMN5cX+CMqPPCPvyy677D+/MI7+Ihf0l2eK6S/OEEuTrrjiCpsBTO+L4Trvogv8zwAFs3rFwHDHGWK2C6eQ+FmSxQ9QpqmubmD0M8tDGpjVIH/IFJkxCxv1lVlL2rVYt9lnFPdR0dZtvfXWtpyMmRbSRvu4ww47mOPFXhbqPe0hZcV96iEzb7R1LNfKBzpLGTMwQ17YZ5I9rQvY38YsUnb5ohBCCDE9qfWZDtZLs4acD3sXMGoY3eboUNYuA6OwGD7ZNcwRlg3QuTNiGEc/I7zLqCiGCkeq8j8dPiPlrMVnxA8DBScEYzaOYmLYMxIa19YDYWFQZY1gwkxfy76L8cvf2fQTF8/FNPMMn5gGDASMLfZzcKQoRguGRVy+xDGZjKpyZCaGCkdvAu8TDulNw7GpGGjMRBAuxjAGEukiDaSze/fudjwnm1gZ7cboZ5aFGQPyCeSPZVoscWG9PXHzLMtPkCVpBeInHcgmmxbCiPfygbFFmli3n32X6zgTOK1sFAfCIX3kIQ2b0EkTS1uQI/LC4GRPSzQAWafPXgBmgHCmWHLGyDZyoXzywdIY8olxyDuUAWv0mQGK72y66aZ2jCnOGaPXOFnIH3lGWUIs83Taow6l4yff2eey7yIHvkedinAtbgxGnsTPNeB/ZpUoR5ZAYbRS/+KmatJC/jBwuc/MG0ZwofLFeGbkHkcfvSE8DF2WKKXrABvnqesc0YpsOLoZCJNPOu/MEjBzwsBAnD2JUL9xQll6yKZ95M4+kmwYaSgHfiCR+5Qj8fP9xhtvrLQ8qSa6geOOE8e+GIx3dI52hrBo3wAnBKeUQRDiZ/M5MxAR5EdeyBv6yt/oEHUfmdGGIVPC5T6b7dFp2oBY9lGH4nfkTJwc40x47H3hqGQcSp4F6hTONN8L1U0hhBBielAndDpzxI5CnBSWGzFiiPMRl9rMTFAUnNrDiCjGAwYDxlIaRpL5TRCexfCqKh/MJjEqSng4FGnjN8IoKCP3OH0YUBh8+cAAZDSb0V9GtnFmpsd+jnJAebNfAYOKZSX8bkQ6reSFgweYDcGRSJ/WVQhGqHkHA7KQ7CkXRoxZP48BihGedYxmBhhxZ8aBpV84kMgnGqJAPihnRuQZIMDhrSofGNic9oT+sMQxn5HOTCf6iNOC3LOOealQfsTFsiDKIltPCsGMDu0A9QAnOl99qIluALMS/JYIdQ6nBkM/bcgjHwYSyDt1O7sEjdmUOJvHuzjNaaj7hM9SK/QKB7sqKGfqAfmm3cvGiWOJ04aDxW+tCCGEEOVijnE6hBBCVIb9POxT4gc4s06OEEIIMT2Z+YZghRBC1ArMdLBZXw6HEEKIcqOZDiGEEEIIIURZ0UyHEEIIIYQQoqzI6RBCCCGEEEKUFTkdQgghhBBCiLIip0MIIYQQQghRVuR0CCGEEEIIIcqKnA4hhBBCCCFEWZHTIYQQQgghhCgrcjqEEEIIIYQQZUVOhxBCCCGEEKKsyOkQQgghhBBClBU5HUIIIYQQQoiyIqdDCCGEEEIIUVbkdAghhBBCCCHKipwOIYQQQgghRFmR0yGEEEIIIYQoK3I6hBBCCCGEEGVFTocQQgghhBCirMjpEEIIIYQQQpQVOR1CCCGEEEKIsiKnQwghhBBCCFFW5HQIIYQQQgghyoqcDlEyb731lnv33XeTb0L8l9dff9198MEHybc5lz/++MO99NJL7quvvkquCCGEEHM2dXwg+btW+PPPP92QIUPcbbfdZh3ymmuu6c466yz7vyb89ttv7sYbb3R33XWX++GHH1yzZs3c8ccf79Zdd93kiTmD999/391xxx3ur7/+cnPNNZdbbrnl3JZbbukaNWrk6tSpkzxVc/755x/XunVrt9BCC7nHH388uSrEv6Aja6+9tttggw3cwIEDk6tzJp988onJ4fTTT3fdunVLrgohhBBzLrU60/H777+7vfbayzripZde2q222mru4YcfdltssYV75plnXHX9n3HjxrlNN93UnJa6deuao/Hxxx9beFdffbUZQXMKw4cPd2eccYYbOnSou/POO00mGIAYPN99913y1LSBQ4PTKGYP3njjDXNM33nnneTKtPP3339LRwK0ZciCz/RiwoQJ1rY999xzyZXa4/vvv3c77bSTu/TSS5MrQgghRPWoVaeDEff27dubkYNxjKHM/8xQXHPNNWbUlgqG9G677eY+/PBDG3m/55573IABA9xTTz3lbr/9dvfjjz8mT+bACIhGc1XOCIYCz6adIP4u5d1SiGlJhxWvZeMtFcJCvsx2YExOmjTJHXrooSbXW2+9NXnqX6JxyP+F4iPM+Ewxqpt2nonxF5JnVfcj0yKzfMQ8p+ON+SsmqywxnEJpi2HyTKEw4zPF8hfjKZY2rudLyzfffOPGjBnjvv322+TKv/BcLINS4uf/Qs9AVfKIcI9nqpJ1fC7GXQ6qkm1N0xDlWuidQvHSTlJeX375ZXLlv8R302GXmk6eI858ZcSA0SuvvGKOTz7ScWTfFUIIIaBWnY755pvPde3a1S266KLJFec23HBDt+SSS9pIWrEOMQtOBkuKevXq5Vq0aJFczTk222+/vc2msMwI3nvvPTPAGdXlc8ghh7g333zT7kWuu+46c4CeffZZt/vuu9tzzBawNvuLL75wRx11lGvTpo3r3LlzpZFhlnedeeaZ/1ly9Mgjj7hTTz21Ypbh+eeft7SSz5NOOsnC79Spk3vttdess77hhhvctttua5+skzB58mR32mmnuaeffjq5UjVzzz23pRlZY6hEfv31V3fttdfaqOXmm2/u2rVrZ44J+Uwzfvx4d8ABB1g6d9llF5uJygeyPeigg2wEdquttrLZlnxGbIS8kr8dd9zR5NmxY8dKI7e//PKL6927t9thhx3sPjNjI0eOrDBkMIqQ1c033+weffRRC6dDhw7u888/t/tpMM5OOeUUc8LS3HfffVZmQLgjRoxwF198sZXzMcccY3nZf//9LW/o5JVXXunatm1racKpq8pwI74ok2222cbiotwjP/30kzvvvPPsHvIlrokTJ9o99JLn0ZsLL7zQZIpOXHHFFWbQpaFM9txzT4sHnadcs+VIuEceeaTFs/XWW7uTTz7Z9IkyIF88z+j14YcfbkuiyBv3iTvqyHbbbef69Oljsk+DXsX49957b9vzkw9mM9F1ypM8UybIOjJ16lR3/vnnuwceeMBm6XjmwAMPtLqVD5YusYSS/BA3aXjyySeTuzkd6devn+UvDWVAnaTOFYI2AN0aO3as23fffS38PfbYw73wwgvJEzmoi9QPyod87bfffu7VV18tanCj+wyMRLmi++heWq7siaGNIUzK9PLLL7cyQmcvuugi+5u8UV6XXXaZ6QRljDxI82GHHWZl3b9/fyvL0aNHW3uHrAiTvIwaNSqJLed4ohPsPxk2bJjVJ3Sd9iYO3JAv5IbTQ10l7h49elhdBer72WefbXqKvJBbts4JIYQQM3wjOR0ZxgXLrTCUSwVDlP0FdJDFoDNt1aqVe+KJJ1zDhg3dKqusYsYq76U7RvaE0MHTQeOsYKzTqdOZYzCxlKtx48YWzq677mqdNdDx3nTTTTbDkgbnpW/fvhXGJunAKCQsDBjSgtGIM3TBBReYUbfSSiuZwYfhmzbE6fQvueQSi6c6jtn8889fSaYYKBi0J554oo1crrfeepZ+jMDu3btXGKzstSGdGIsrr7yyGUUYQulRTowrjHKcFtK38847254PDDYcy0IG49133215XnbZZS0O0ohsgPThLGKAsvQOYxLHAcfj7bfftmdICw4nhjLGOuXEJ2sQA4YtMs86mJTh9ddfb3+TD8qB5XgYZsTTpEkT9+CDD5pRSVox4Jo2beo++ugjd/TRR1u+C4EjjJOGvuC8rr/++qYHxx13XIV8caooT+SP3JB3zB//kxauDxo0yOSAo4gRGMufNJM+4sEwRI7oJrLD+Iuy+Prrr2028N5777X79erVMz2nvJgJY5aQ8Nj4jYw+/fRTC5v84pQss8wy5gDgyGN04uxFoxrDn3JBl5EXcfFs2vkj7MGDB1s5EhfL/SgrZI9hSr4AXbnlllus3HGUV1hhBbfAAgvk1XXqHcY64aJDyAdDnWs4/qQP4x7nkL1jaXDkGFwo5nQ89NBDVhej7iE39BOHM7YX1FEcOWTQsmVLt/HGG5tOoS/ZGdYIaaJ9OeGEE0yu++yzj+k7Mvzf//5nzyAP6g6DGrQxLBclPT///LPpMs4F+aPsKC90je/oJflCdqSVfVzUb6DcOPyB/SWkk/IijjgYwv+UKwMhtAukjcEh6hftH9CGkSbygINB3ISJnqHTODro+EYbbWQDADifyC/tWAohhBB0WjOUc845x88zzzx+6NChPhgZydWq2XzzzX0w0n0wdpIr+QkGmV9qqaV86AgtfD7BoPehY/UHH3xw8pT3wQnxCy64oH/ggQd86Fx9MAj8jjvuaGnr2bOnDwaBvdurVy8fDCI/ZswYey8YQX655ZbzwSi07xG+L7bYYj4YdPb9yiuvxFrzBx54oA+GiQ8dtr/xxht9cAr86quv7oMBYeEHQ8aHjt8Hw8Deg59++skHg9OHjr6gjILj4oOz5INhlFzxfsCAARb+xRdfbN+DUWZpJz/B0LOwpk6d6oMB5eedd17//PPPV+QxOHQ+GEOWTmRB/MgCuQPXguHog1Hmg6Fp13i3X79+fpFFFvGvvPKKXcsSjHYfHBkfDG37TvjBQLK/g+Nm7w4cONDKgPAo32DU+mDE2DM8u91221larrnmGksHz/HJEoxry0cw3pMrOYJTZzoBxB+MLZNTMNitnLkWnDMfjG0fDDXLH+GPGjXK5BeMMXs3C2lG34KD4oPBZe8QFvkhHegdoGtbbbWVlQGQh2C82d+333676clmm23mg9FrYQTH3Aej0S+//PJ2LTiKfpNNNvFbbrml6RIQxhFHHGGyDYahXTvvvPMs3mAQV6QlGMymT/xN+XI/OPD2PtcgGKL2iTIlncQfDGyTD/kMzrmvW7euDwa/PYceRR0MhrS9hy6T5mCwW5w8RzzBMbX6F4xde470rrrqqj44oH748OEVZR/jj3AdXV1iiSV8MJ4tvTyDjqy55po+ODWWbtKLjDfccMPkzRzURfQrOFXJlf/SpUsXk39wDK1MCP+xxx6ztAUD3p4hHZRvLDOeQReRJfKA4Aj4JZdc0sIB6uXCCy9s7R0ygGDM++BY+ODs2veXX37ZL7744lYPgHApa/7n8+KLL1obFRyqSuVF+pAnZRTLjQ9Qz6KecS04q6bD/A/jx4/3wRE0+QXH0MKkPNZZZx3fokULe4b3qAOUJW0mcSMDCE6svf/oo49WlEdwXn39+vX98ccfb88IIYQQMENnOhjNZ9SXUV1GyBhRLRVG6IOhXHR2hFFHRvaY8mekmvD5MOrHkqzskqG11lrLliYQZjBq7Xvo5F0wROx/3g2dsY34xVHa6hCMJRuJZrSX2ZRgWNqILjMb8ZQpZjtWXHFFG3WOBEPJluvEPBQilKed5HXuuefazASj8my0J/3BGLDR8WD4WFjMMBAW8TMazt+MUJI3ZEY6GBklnciCWQVOBosEQ8YFI8lmbBjl5l1G9xkpDcaHjT7ng3B5nmUsjLISPiOrpI8laaSL2RVGVgmPWQBkk14iBoxwM1pO2kh7MbmUAqPmlAPlTJrIO2FTXsHYsvCDc2gzciw9ywdpZcQb3WJEnvQzc8EMAzqFvIDyZdT8/vvvNzkSD7ocIQ2MNJMm4g3Oq+2FYuSdUW3CJg2c+MZ3ZM/IM3KbMmWKjT6zZIlZJWYXmIEiHPJF+tEn/uYD/E8a4nf0NBi/VscYXefDO9Qn9IORd2byGIlv3ry5hY0esUyHsopQhqQV/eJ9niMeZmaQKUuG0lAfGOFHVjzLJw2zougISzKZYSC9PIN8maVCFshoWgkGs81aUCaET51HbixfAtLH6XDkhdF88okOI5tCMx3BYbCZjeBcWVlRZsxYUD5xlovyDo6Lu+qqqyxM4uZ7lEWh8oowS0vZxeeB+kg+kAvx8g4fyiUNy66YBeYeYaDDzGpAOm7+Jm5kQH6px8GBt3jIBzpPvUY+2TorhBBizqZyr1VLYByzrp2TlTBGcDwwtKoDz7OEgI6vEHR+LA3AOKOjjGDY0vnHTjWS7cSjoxE7cMC4Aozk6pLuvAGDgs6bTxriwHCsCSxvwmBlCQn7BlhywnIV0osjgwHLJw1GG/KhTJAnhiv7bNIyI93pdJI+jECMbIxAlhHxwaDE6SiUfgwjDHqWc+A4kF6ejekjbpbpxPD4sF4/K2/0Jm2oTyvZcsY543s6z8SHcVnI4USfMDpZ2pNOP041uhplwlIpwmdpDQYtzi8yixBvNm84a1xHpzEYSQNLWjAOYzzsQYrpxenAIMaQJM3VAWeDNGI4rrHGGrYMLO2gEzb1Cr1Kg46k9RsnjHzhZKWh7DDiuZ8G4zVbB9OQLvKfDQ9IC7qLDk8r0aiOUE8xxIkbaL9wIHEYKBecL5ZbQaF2gbKg/HFm0rqBrkTIF3slWFKFXuBUUx+IrxSQaRYcJeob6cRBRBfRnWw603JHz8hzobxEyA+nBfJhaVU6X8Rb1ftCCCHmLAr38GWEDpgNixitbB5t0KBBcqd0MKYwfLKGSxY6U4ykNHTijNZGB2JaiIbqzNDBkhZGoDGOGCllP0raeEUWGIFZI4YRWNKPcUoYfIo5c8AzhMcmYzbJMzsSP4xwYjDlg6ON2Svy2GOP2busB2fdOeFh6OEAcS8dHp/snplSIEwo1WibVkg/cZL3bPoZ6WYDLjBjxUwH+yuYnUAO7NcoBjMi5AOdJR5kf+yxx/4nHjYJY7zH8uG96sLeEEbbcVpxNgiXTcgRwuZTyLGMRPlnn0PXcMIwbKtDjBd9zUI+uZd2sKZXuVNniJPBCmBPAzNPODpsBEf/2YdTDMqM99krky2z9AER7MtgwID9LdQDHIaa/tgiM4oMAlCX0TV0g/1Q1ZV7IZA3+WIAJ5snPmxMF0IIISK17nQwGhw347KBkVHUaJxEMBbiqHshOP0FZ4JOP2vwYyTgkDDyxweDLz06jVHO8gaWy0wrGDmMjOL8xHSQ7vTyqOkBTlJ6NLwQpCU9QxHBAI2zO1kjhrIgzYy0YkQwws1yDOKMMLqOkxgh38gWY48R3/QoJyOqjOQXAsOZJW9sWGZWg5Fd0semXYw7lpmkw+PDMq7qgpFHuBhfEfSADcDlIOobuosM0ulnNJxldRGWL7ERnOOdWWqEDCKUM0tvotGMXrFBGLmx9IelLISFMZ+Nh7Kg/DEsWerEkpp0uUUDGpANZOsZDh5hHXHEEXYIA3+ny5OwcQ7ZyJx2AD777DObjYigTzi91LU0yB/9YpamOpBndBOHOu3IICfyiUxJF/kijehvTB8y5Jl0egtBuxJnNYCN4+hQ1EFm98gnJ4qxwZzlmlUNnHCfNDDLmC4vPmzEj5B2Zpc42IH6wSxCXKYU28li7WIa3mPJGSezMcPBjCRxxXKvDsTNe+k2iDaAtFKncJ6z+YozUpQP8qqJAyyEEGL2oVadDkY3OQ2IkT1GdjH6Oe2GT9poZxSYjjyenpIPTgZiz0U8+Sl2xBganBTE+nKMzrZt21rny/r5CM/TmXft2jW5UnMwxuhwWWvOCT3kkaUp6WUT0wryoBPHeKgpGAzIDBhNxZACHA72LWBQsaYeg5WjL5mN4kQcygQHjtN20nsZMIA5LhTZMluVhqUVhQyMgQMHVixrwwDEuIvr0Fn7j4HCDE3aUEY3ip0YVQhGojFSOS0JgxhDlbDZ21IOmGFATszk8Bs0UZ/5H8cXw4s0cGxqNH6REx+Ws0XQIXQTnUIeOAGEx74FZvh4FmedUWsM8AhhUh7UBXT/4IMPNp3k1CSMReJhBD2ejEY4hM8IOP9H0Gn0A+Ob69Sd9GlqLI+KpxSRF/KHA4IBjpwj1E+cJPYZRd2hvFliR3mzh6Y64HQgX/SLek9+ifu2226zwQdOTMJhRYfZ80GauMcz5JGlTci2KnAwmJViqRzvkn70kXoBOA6UI44hUK7MDBWDusV7pDvWPaC9ik4Zzkz66F/qCfFTP4D3GRQgL1yvCp5HzrHu4Awzq5h2DEsFB4PlppRjdDxICzOVyInlkukZZQY20D3AwST/yF8IIcQcTDAqao3QidqJU0Sb/Sy00EJ2Mg9wmk4wMHz37t3teyE48YmTceadd14fDEw7gYXTX4KxY6fghI7ZT5w40U6yCZ2mnZBD/DzDySqhE05C8j4YFHZi0K+//ppc8f7cc8+1E3riCVTASUCE9cwzzyRXvB88eLCdilOvXj0fjHc7NefYY4+102s4xQaCAW+nUsWTnoBTXjhFidN80rRp08bSE+HUI+TRrVu3ihNrslx66aV2wk4wYJIr/wV59O3b19LFB3kh9+DQ2Mk5kWBE+M6dO9uJTuSHdAeHxQenwG+zzTbJU95OQuJUKeTBaTetWrUy+XIaVyzLLMGYtrwgI06+Iv9DhgxJ7nqTBfFRnq1bt7ZwKQNOB4JgNPr27dv7TTfdtFJZFYLTtIKxZGE2aNDATgoKDqmdrgPIEz3jXjCI7Ro8++yzdtpQPEkI0Bfylj71LMuUKVNMTsg1OAZ2yhQy4USrYKTaSUKknfRsvPHGlg7kwMlhwOlVlGMw0HwwoO090k9YEyZMsGfgzTfftHC4F0+WQv/Q9WBU2jPBoPV77713he6vuOKKlhZO9YJgJNppZNQf0kC+gsNip21RR5o1a2a6SLnuvPPOvnnz5hV1Bllxihg6wulipJX3SdP+++9vz6Bv1BP0jDwhu6WXXtpOQeJktQhhcY+To6qCMkc2wbGwk7rIF/njJDX0NhIcB5Mvz5E+8o4OBaftP6eZpSENyBE9oY6gF8HB9oceemhF3ilj8o4eI++1117bTkRDZ+MJZZzcRThXX321fQdOjGrUqJHpPHLi5KrgGPgePXrY/bvvvtvu0X61aNHCwt9vv/0q8oXuoFvInHxvscUWJg90lDTed9999lyEusJJYugIJ50RJu0edZo2C2gfg1PjL7zwQvseOeGEE0wnIugFp94ha94njd98843d4130hevki/ImH7TBQBtImZMGIYQQcy51+CcY/bM0zFrw2xuMwMVNzeklBIwKMlvACCHLLliPHYy+5O70gdFRRp4Z2eVHvRhtnVlhRJLZCZaAxd8ZyC65QGaMzvObDjzDUpi4vCMLo5qsP2cUmecIj1HQfKBurFln70kwTGyJESPnaQiH2QJGqlmiwYwKy5ZqCvrB8qVgFNlsQW2UDSc+oZPArAR6GffXMELPbB8j3CwpY4YgpokZMn4YL8qHWQaWxbHvIytT9J3yYf18MAbtpDKWV2UhHkbRyT+/q5IOh5F2TrliiQwnRzFTAOgz15kpor7kkxk6wiwMy5aYUWTmMp+OxPxyshEzNeSXmZhpgSVa6AjxsT8sLuVJw8wOes7sCnrG0quqYD8OskdHaTOQHSfacRhFOm/kid/XQLeQD7OdpcB7lAWyQNbIjRm5CLN6pJny4F42XuoGOkH58CODVcVLGfGbRoXyUV34sUH2sLC8FZ2OoEfMNjGrQRmTdpa7CSGEEJHZwukQYnYh7XTgPIvaJTodOBwymoUQQojpR63u6RBCCCGEEELMecjpEGImgiVK++23ny1rErUPy+/4MU0OShBCCCHE9EPLq4QQQgghhBBlRTMdQgghhBBCiLIip0MIIYQQQghRVuR0CCGEEEIIIcqKnA4hhBBCCCFEWZHTIYQQQgghhCgrcjqEEEIIIYQQZUVOhxBCCCGEEKKsyOkQQgghhBBClBU5HUIIIYQQQoiyIqdDCCGEEEIIUVbkdAghhBBCCCHKipwOIYQQQgghRFmR0yGEEEIIIYQoK3I6hBBCCCGEEGVFTocQQgghhBCirMjpEEIIIYQQQpQVOR1CCCGEEEKIsiKnQwghhBBCCFFW5HQIIYQQQgghyoqcDiGEEEIIIURZqV2nw3vn/vjDuV9//e+H67XNP/84N2KEcxdc4NykScnFGcAVVzhXr55zJ52U+46cnn46l6533819z8fvvzu3227OLbOMc/36JRengT33dG7ZZZ27557kghBCCCGEENNO7TodOBaHHOJc8+bONWtW+XPKKclDtcgnnzi3//7OnX66c337JhdnABMnOvfNN859+mnu+9df5xwA0nXmmc79/XfuepY//3TunXecmzzZuY8/Ti5OAx9+mAvryy+TC0IIIYQQQkw7tet0MLOAkYyRjYH93Xf/fn76KXmoFllqKee22ca5DTd0bqONkoszAYst5tyOO+bS1bZtKCWtghNCCCGEELMuM86a3XVX5958899P797JjRrATMBLLzn38MPO/fxzcjEFy5Nwcu6/37kXX3Tur79y1xdd1LnBg50bOdK5nXfOXUvz1lvO3X23c88+m1vKVAjC59kHHsjNFGTh/kcf5ZZyPfSQc1OmJDcKsOCCzt10Uy5dhx9e2en48UfnHnnEuRdeyDlx+SC+L77IxUWeP/88uZEBWSEzZFcoLGCG6plnnLvvPuc++yy5mIHlaSzL4rnffksuCiGEEEIIMSOdDgzrFVb497PEErnr113n3OKLO7f99v86BywdatAgNzPxxBO5ayzH4vvll+eebdkyNzvAcxjHEYxhlio1buxchw7Obbyxc5tskrvHXpIttnBuueWcGzIkdw0w1tdZJ7fsq2NH5zbfPBcuceF8YKCz7GnJJZ27+urcvgqe3Wkn55o2dW7gwJzhz+epp5zbdFPnVl0159i0a+fcyis7d+qphfexEEf79rl0sa+D+HCsCLdJE+d22CGXB5754YfkpYTXX8/N3qyySi4u8tyoUW4Z2fffJw8FbrjBufr1czJDJvzPsq4sN96Yyzty2mWXXNr33tu5b7/N3ef//fbLpQs58Nxaa/3r6Dz2WC6eNm3yO4RCCCGEEGK2Z8Y5HTgUGKHxEw1wDGNG87/6Kme0A/cwiDFw4zIsnuP7iSc699xzOcN2vvly1844w7mpU3Pvn3OOc3fe6dxCCzl38snOHXhgbtYBMOTZv4DhTng8P26cc50752YuWN50ySU5p4H4ievBB3PvEg/Lwrp1yzkpxD///Llrxx2XmxHAWcCZISwM8vPPzzlIzASwh+SDD3JhZeE93iddceaEMNgPQzrIy4or5mZtmNFIg5E/erRzW27p3HnnOdepUy6fpIMZG2DvRo8eOTkvsohzyy+fc+bS+0KQBbMp5IU07LNPbqM7z99+e85pIlxmSgibWaOzz3bu2GNzDiUOHYwfn3NA3nuv+GyREEIIIYSYbZlxTgfLllZf/d9PTZdXMfKOoY0j0atX7hrGM0Y7y5gwiueZx7lrr805EP3754zpfGDscwoUxj6j+ywXwlHBqVh//dwzLKFKgxFOXoj/mmucq1Mn53iQBpZFYdy/8YZzw4blNoaznIuwMconTEgCKYHHH885X8wIxfwOHZpzQNJ06eLcK6/knCOcL55p0SLnILCXBgYMyKWRGaUnn8w5P8OHO1e3bu4+sEkdeZJOZkxY7oX8rrwyly+WeCFfHArkxgwPTkmfPs6NGeNcw4a5cFhGd9FFzl16aW6vihBCCCGEmOOYcU4HI+nZT01o1cq51q2dm3tu59ZbL3cNg5mZDo6b5VQoZiBY/hRhqVM+mH1hfwkQLsu+AGOZmQOIhntktdWc22qrXPws8WKUH4gfBwQHgxH+O+5w7txzc7MPzNaQ3+qM/EcHBQeC5VDEt+22OacrDUfezjtvbi8HTsNpp/27bIr4kM3LL+e+r7GGc2uvnZshYhkWS9AipJHZFcAJYzkZS9o4ypd8MUvCDBXOGHkeNSrnPHL8LzKP+1CQIbMi++6bS5cQQgghhJjjmHFOB/sD2H8QPyzjmVbSG64x6jGW474QDOWqYMQ+Lgtiv0aaOKMQw8sHjkCMh/gJj9kPnBH2QfTsmfuOUV5dcGKA2Yl0PrMwO8OyMPaiMNPBPpS4nAxIU9xbwZIo0pwPnJPoFLF8jRkMPsycED9LspjlYa/Grbfm9p+wWf+EE3J7SuLxv0IIIYQQYo5nxjkdzD7wg3jxE436aARjZMd9HuyfYHlQdVl66dzoOgZ0eu9DIceBuDHqgb0I8TkcCPZBADMJpfLLL7kN2/zPTAF7I1jWtOaayQPVIKaLpVDRASHc6EBE2CvC/pSDDsotfUKGOAER8hgdKjbZRycrGxbls/DCub9xCHFACCt+mEXiRwlZurb77rlZkbg5Hdldf33u3ej86UQrIYQQQog5lhnndBQiGsQsY7rrrpzhjNGL41BdWO6Dk4CRfNlluc3p7PXYY4/kgQwY0HGJFpuuX3stZ2xjUMcN5GwqLxWcFpYpYeizJIqZAYx10lFdoqPC/hD2V+CIsd8kO6PALAqzLSwnY48GzhJOQIQ8csIUvP9+bo8KMkYm/IZKhFmQKAv2oxAOssDhwXliwz0OBXJhDwlOI7M5666bewfnCji9i1kRTtvKOkhCCCGEEGKOYOZzOjDqMXiZ2eCkKY57xeDl/+rC7ABhABufOUaWD7+XkQ+WDR11VO7IV0bm2UBNetjPgZGP4cxG7VJhrwP7JnB6eA/Hgx/743t1IS2kHUMfJ2yllXKnSLEnIw0/csgSKjatEx97QLK/C8L+CpwYHLkDDsgdd8uGe07EiuCccNoWe0aYEUEOfFi6xfPdu+ecKn7jg/0vxMP9//0vtwcmyuntt3OOCjNNcbmWEEIIIYSYo5j77EDyd+3AqDoj/vymRfPmycUULLVihJ1lRAsskDsViaU6XOc7exXYP8DmaIzY7bbLGcKAEcz+BX5jgyNqcV7YT8EoPEuOeJ/lPxjdccnRJ5/kZgTYY8KJSzgqhMlsBEuPWHbEMq299sr9ZgV/AyP5GNM4JHxwWDD2iR/ngCVHpBODnGN544wHcXOiExAnG61JG3ERDo4CYKSzvInf4sCxiOliBoi4CJtN4swu4FTwOxs4EhtskPtOfKQHOeNIkQ8cF+SJPNgAzuZ0NpHjbKAGhMFzvIOTx++gsGeD9JNX0shyNeTL0bhsomcWgzwTJ84UDgkb5kkr6SQM3mezPRvfcWaEEEIIIcQcRR0fSP6eeSBJzDTgVGAgYxhPC4SH0YxRjNFMmFVtLMdgxwDHkSH+Ut4pBGEQFk4HjkRNwyEfzE6QF4z3QmlKbxbHwcP4zwfywJEgf8zKFEoXs048x//kgWfTzgPXyR/xco/9IEIIIYQQQiTMnE6HEEIIIYQQYrahwBC4EEIIIYQQQkwf5HQIIYQQQgghyoqcDiGEEEIIIURZkdMhhBBCCCGEKCtyOoQQQgghhBBlRU6HEEIIIYQQoqzI6RBCCCGEEEKUFTkdQgghhBBCiLIip0MIIYQQQghRVuR0CCGEEEIIIcqKnA4hhBBCCCFEWZHTIYQQQgghhCgrcjqEEEIIIYQQZUVOhxBCCCGEEKKsyOkQQgghhBBClBU5HUIIIYQQQoiyIqdDCCGEEEIIUVbkdAghhBBCCCHKipwOIYQQQgghRFmR0yGEEEIIIYQoK3I6hBBCCCGEEGVFTocQQgghhBCirMjpEKKW+fvvv91nn33mfvnll+SKEGJW5K+//nKffvqp+/XXX5MrQgghCiGnowYMHz7cbbvttsk3kea1115zrVu3dlOmTEmuzHr89ttvbt9993XnnXdecmX68tBDD7kWLVq4kSNHJldqj3LnbU7g888/d23btnWTJ09Oroia8v7777uNN97YjRkzJrkya3Hvvfe6DTbYwI0ePTq5IoQQohAzxOnw3rs33njDdenSxXXq1Mn98MMPyZ3qwSjTkCFD3FZbbeWWXHJJN88887i6deuaQTB06FC7Xw4++eST6dJJMuJNh9W8eXP3/fffJ1erBqNnxRVXdO3atUuuFGfq1Knu0UcfdR9//HFypXx888037qWXXnJ//vlncmXW459//nFvvvmmGz9+fHJl+sHsxiWXXOLat2/v2rRpk1ytPcqRt59//tn0i7KfE/jxxx/dyy+/PMvo+Ndff+3+97//VRqNp2088MAD3fLLL+8mTZqUXK19kCXtxXfffZdcmXVgtvLcc891hxxyiNt8882Tq4WpaXsvhBCzC7XudNBRDx482LVq1crdfvvt7sUXX3R//PFHcrd0MJ6uvfZad8ABB5jTMnDgQPf222+7vn37mlG+//77u9tuu80cnJmVueee2+2www5up512cgsuuGBytWoWW2wx16FDB7fNNtskV4rD9P8uu+xi8hYzlv79+7v55pvPXXfddW6hhRZKrs7avPvuu27XXXd1Tz/9dHJFzEzgcFA+EydOTK6Ehn+uuczpxfldYoklkquiVGL/U79+fXfaaae5eeedN7lTmJq290IIMbtQq04HDfWVV17pTjnlFHfppZfaDEVNYXSMxh7j+/HHH7fOc7XVVnN77LGHe+qpp9x6663njj/+eDdhwoTkjfwwSvvCCy+45557ruDoE47SK6+8YnFW5SCxrIiw0suLWNLy/PPP5x1dZpnL+eef7+aff/7kyr8wKs60/XvvvWeyiyyyyCLW4R133HHJlRykkzQSF/mqDsQ1atSoSqPVjMyNHTvW5Injkg+eeeeddyzOYuuakRtLr1hShFNYzBn84osvLN/IrSpY4vLMM89YmPkoNV7Ki3Cqmg368ssvzbimTIpBXOhBet8GZbL22mu7U089teQ14MiXmYlnn332P6PB5IVZN9JNHgvpZil5Q9avvvqq5Q3554NwkONbb71l6aoOpB39Ss9qkl7qFWEWW6r0+++/m35VpTfIlOdwgtL1pSZ8++23Vn7oYal1iTiJu6q6UCrIinKnbIvlh+eQYXVmmnA6GJi58cYb3aKLLppc/RfKl7Ih7kIzOug2bSflyoxFKVB+H374oeWr2Aw3zzEDg95m279pgXDoEwiXulNMn4qBTmyxxRbupJNOKloXsnpfqL2PfQzlmO47hBBitiI0urVGaPD9E0884ceNG2d/77777n6llVbyX3/9dfJE6Zx++uk+NNw+dF7JlcoMHDjQzz333L5fv37JlcoEI8sHo90vvvjivl69en6JJZbwwZj3N910kw+dSPKU98HA8uuuu66fd955/UILLeS33HLLivciZ5xxht9ss8389ddf75dbbjl7jv8feughH5wAv8EGG/jFFlvMwjjyyCN96LCSN73v1KmT32mnnfzUqVPt+y233OI33nhjH4w/v/rqq1ua6tSp4w8//HBLM4QOzG+yySYWVmTMmDG+cePGlpf69ev7FVZYwb/++uv+hhtusLgp6gUWWMDSHRwy/9NPP/nPPvvMN23a1AfDwzdp0sQvvPDCvl27dj4Ygya3ZZdd1tetW9cvs8wyfr755rP4gjGVxOj9V1995YOTZ3ImncTbo0cPezYYrvYMsnzwwQctL8QfDByTw6GHHuqDoWnPQHBs/FprreUHDx7sl1pqKZNhcEyTu/9C2jp37uwPOOAAf+GFF/qll17a4ibs0KHbfSg13tDZ+2uuucZkRDj8H5xVk0eXLl2Sp3IyP+aYY+x+gwYNTF+C0+zff//95Anvb7vtNr/qqqv6vn37WjmQB8IuVdeyBIPPb7jhhqbnPM//F198ccU9dI7rlBN5pFyDg2J1C0rJG/IiTMp4ySWXrEh3cIwqyprwrr76atOPFVdc0Z4JBpfp0DnnnGOyRb94jzxut912ps/BaDedQAdJI+8jB/Lcq1cvkwNlzYeyofyiPIJh6hs2bOh79+7tW7RoYekn3FgHstx5552WftJAeo444ggrr7Zt29p98rn33nv7HXfc0b5HgjNtZXbXXXfZd9oi9AtZIRPCoi4/8MADFXINTrZdp/5EqAt77bVXRV1ATgMGDPBrrLGG3YMPPvjA4ho6dKh9B8oInUSewYi3a8HJ8ldccYXpNu0j/6+22mo+ODN2H6jvyJb2Ys0117T0HHXUUcndf+nQoYPJhPIhXZTP5ZdfbnmhDGjbvv/+e3uWOsj3++67r6LtIT/bbrutDwZ6Rf6R5XXXXWd6wDOEzwc9SrcPWYIBbuWCHpNe2pZTTjnFBwfIP/LII8lTuTI47LDD7P7KK69sz+68884VbUo+DjroIGub0/FTR5DRPffcY9+pw7QblC1yRf8uu+wyuwft27f3e+65p8k/gixoS4NDbt/R64MPPtgvuOCCln/kyWfIkCF2H4rpfba9R6Z33HGHPU+YyJO6EJyZSv3Eiy++6Lt162b1QgghZlVq1enIMi1OBw03nTFGQz5eeeUVa8RpvPNBR9u1a1fryDEKPvroIzNQMIAwDuDbb7/1a6+9thkdODeTJk0yY41OgY4mcvTRR5uh3ahRI3MW6BgwlOjUll9+eevkSScdKR1u2nggzo022qjC4LjyyistLAweHCfiPPbYYy3O4cOH2zOkC+OFDhLozLbeemsLh+cxqknHxx9/bB39/fffb/HSaSGX9957z94hzxhqxIUTRxp5n44QA+bee++1jv7LL7/0J554ohm2Tz75pMWJsUTnS4eKo8C7pJ1OM+10YKDROWMgjx8/3p7DgKVsMAAIBzDqMFzo4OmEMXK++eYbu5cGgwDjk/zQUcd8YlwRNx0+lBrvyy+/bGWJUUM4hEeZ4ehFwxxZYTRgBOHITJkyxRw69GKXXXapMJRxOjGgkOmgQYMsTsqqFF3LgmGHw0EcvEdYODUYLdC/f38z2AiL+jN69Ggrx44dO1Y4XqXk7ccffzTZPfzww1bOpA/DkLKODj06QdgYqZQJxjZGOoYTcWNwUR4YcOgXeUKHHnvsMdMF6mmfPn0sD8TBPQxtdInvXEeXMQYZkADKDGOT9O+///6WT56Lhm8adIV84XRR7qQBY5+411lnHXsGZwWZI9M0pBW9QZ7AIAOywWBFFhMnTrS6TPikFbJOR3QcsnWBtCOXdF0gj+hJhHcpMxxunDjAgSIs2g3qMvnDKcHxiHXimWeesXIkPBx94ozOTRryd8EFF5jeDxs2zGRDmOgsdZo6hI4CdZD0opeknzBxkKiX++yzT4VekT70A51Gr2jvyD9tFGmO9SELgwTzzDOPv+iii0x26DN1Kut00PYgu8cff9zqGu0VAyrU+0JODTqMoxRlCNQJ8kM7it6QJ/KGw4YcSTfGfITBnjZt2lRybEkjYRAWUJY4OGPHjjV5kzb6CMomOhLF9D7b3o8cOdJ0CccOnaesaYuRJW3OX3/9Zc/xN44jTqYQQsyqzLJOR6tWrczIjx1mFjoDjAk6w1JhZoLOgs4O6AgZ6bvqqqvsOzBahsNDpxjB6cBIoAOJYIDxLv9HQwnjkU4XAy+Sz+mgk8OQi503HSRGD50dZJ0OOmKMFoyX9ChdhM4MI4HOPk10Ohixj/EXAnnSOZI+wJkhDYwOxjjpIM8+++wKp4P0H3LIIdb5vv322/YM8DxGAqOYaYOHjhaDIxo3+YhOByPJ6TBxAihvZFRqvJRLHFHFIIxg+CLvaJgzmxGNuzQYWOgBsoHodJx11ll5jeM0WV3LgnODoYgepMMqZNCRtx122MEMb8qy1LzlAz0mHxhrwCgv+ccZzJcvZvNIK8Zommh84eQVSneEODBuMYwhOh2bbrpppRHfLKSH2RbKHicr8vnnn1udqK7TkQ/qP3UZRwSyTkcpdQFKcTrIK2WIjsewYNSoUdbGRBnjdGCE4vQWm10AHGBk+8YbbyRXcnqUz+kgveeff36FsYvcttlmG5t1wnnGSUWmzN7SFkb4u1mzZjYDmy89lBNtNrMyOBIR5J52OmjrSNPJJ59ckQZgNpm6hl7koyqng/wyAEW7gROQj1KcjnygH+hDnIUopvfp9h4nhcEiZh7T/RjvUJcZcIg6RhvEzFl6llYIIWY1Ztkjc0Mn5urUqZN8+y8hb/Z/MBbs/yzcDx2+rdEfMWKEC4aAe/LJJy3c0OnYM6zPDoawa9mypX2HYDTYWt4soVN3wfBIvjk7XYq4Oa0kpnPZZZe1TcShU7HvhSAsTkMJnbF9X2qppex0rkJ7ToLBZxsU7777bnf44YdbnkKHndytmh133PE/m5qRQzAkbO11v3797Jhg0h06S7sfHEVbQx6MjIpNlOSXAwIiPItMgzHg1lhjjeSqs+dDx2trl4ODkVzNvb/XXnuVtClzhRVWcKusskryzbmmTZva92AYlhxv6PRtzT7vsh8oQjjLLLNM8s3ZmnLWcH/11VcuGBgVH477JK5gVCZPOlurHQygSrpZiq5lYZ9SMDJt31M6rKgThBmMO0sbBzOwMZ3wiYd7peYNSAdrz9m7w0EMweGx6zFtyLFx48Z22hG6EAy7ivpVCmycjemOoJ+UQzDQLE7kktavSDC+TQ6FIL+smae+BWM9uersVKZ0fSwV8oVuTJo0yd111122d4p9UsiIuPJRSl0oFfat0O5Q5sgl6hr6AOnN4MSx5557TtdNyZQTG8wJG8jPuuuua/qBXIIRbDq35ZZbWlsYof1AT4JBn1enabs++ugjOx43OMLJVVepzIBTDZEleoDs03UtOGFF94EUg3xtv/32tleHtD/99NNWR6qjxxHkQF3juFzS+Prrr5t+kL40+fQ+DTJhfxSnWaVlwjscqU1e0S1o1KiRHZqy9NJL23chhJgVmWWdDhppjJ9CRhsNNobNcsstl1ypDB0EBjpGKRvSH3jgATsGl84jQsdHB4AhWV3yOURcy3e9FEhHsQ6SPLA5H+MEQ5MOCqOuptCZEs4+++xjxhcbHNOODHLn+6KLLlowT3TOlBFOUxqep/yqcr6qA8bRAgssYHGWGi/px5kgD8WMA/QA2WMgPPHEExUfDFOOfE47P/koRdfSEBfGEXpXSPfY9M3voWCcRCcGpyhSat4wpM8++2xzTHAq7rvvPjtRLg1GLY4NhzSceOKJbp111rEDIdL6UF169uxpcR511FEWJ5u2a6IPvEM+MXqL5bNUJk+e7HbbbTfL4wUXXOAefvhhN27cuKJ1r5S6UCqEhf5ioKd17ZVXXrHfBsJor03ID04fuooMMNTRmSUyJ17xHPlHDvlkRR3gQ/0rJiM2pBMGzkc6/9TBjh07FmzPS4HBIhwFwsABof4wqFIdKB/a1iZNmpgOox+0CzWBcia8tPMWQZbIcVrqmBBCzGzMsk4HBjEd1McFTuTBcKJzZBQpHxg5/MbHySefbCNVjO5efPHFlUbZMWSiUZNmehrL0ws6cwxCTjo67rjj3D333OOuuOKK5G71YFSRDnXTTTe1Y4j5DYabb77ZTs2KYAzzuyiMSqaNjLQhjSzpPBmtS3eePM/sAGHU1FDMGjaUESOHzAiVGi/pJ08Y+Nnn0uHzDIbSkUceaQZy+oMONWjQIHkyP6XoWhriIh8YeFndA4wVTsHBQMb5IHxmudIj66XmDWP2wgsvtBmm8ePHmxF1+eWXJ3f/hVFsjvvl+bXWWstOoHv++eeTu9UDI+3qq6+2UXpORyPOG264oUYj9ozIk0+czOxMRDqfyJQyz9ZdvqefQ47oO6Pr5BUH8dhjjy2qp6XUBYhhZMsj/RxtDuHhYGR1jbTlm2Wd3mTzQD1ihhZZU0bobRyBj/Ac+cdBQRZZeJ8PMwTp/GZlRDtGPEcfffR/8n/bbbfZjFY+YtkWkz/hcsw4AyjIkvQec8wxyd3Swhg0aJC1regvs6roB6ck1gTkwUAJdTQLaUOOxWb5hBBiVmOmdDpo+DFG8hlcEZZdMHLGspKsIfHJJ5+4yy67zKakC/1oE0sEMET4gb24lIDGP93JMBKLgZce+aWzHTBgQPJt5mPxxRc3g5DlMMgB6Ez5sBynFFgigewxRKOjkTXqWCqGgYBskBFwP/1bIBj+GMKUZXo0kHKj41955ZVrvDQExyh9HDJLYHBAMdZKjZcPy9/QBT4RjIkPP/ww+eZsVJNnMe5rQim6loVlVcg8LnWK4ARitFJGpCs6PISVXppUat6ijjDyG52gQvWOPODsn3766ZYPZnog5qlYfU1DuaEznTt3NqMLWL6TNsZLhTSzZA554NBFyDOzSREMOGa+MHqJC9BXHKx0vUCvMPo322yz5Epu1jRtiGZJ14VYR7J1ARjRxtAkbbHscYLR3Qij8LRbLBnD6ZweICPayFLC4zlmNmNZUGfIF8sZKau4rBFHMb3ckwEgBjzWXHPNijJNw8wI9Y6wovwhq98cKU05sdyuOvpQr149K1uMdUC+d9xxR0XblIXlqAwiRB0G2s7Y9gFhMDOShrIiLyyhjE4kzn9NID76GMKM6QbyHdsplglC7BPTbbAQQsxq1KrTQcfN+eiM+PKhk6LjOuecc2zZCUYW0OBiSHCtEKzLZQRy2LBh1gHcdNNN1smwxAjDkw7j1ltvNWMgHyxLoTO+5pprLD7+z45YsZRh/fXXt1+QxjghvN13393yETucmYEPPvjAfqeE9fZ04ozCsTyDPAKj5hhGd955p+WBEWum9QuBw1K/fn0Lh1FfRgUPPfTQSoYXzgh7QViewPIclt8cdNBBZixF4xUjlXPscQK6du1qvwnAaCW/4MsoMktrsntJSgXDAMOBssEJPOGEE8wgYjlYqfHy3BFHHGHpxQAhD8wgsGQq5gEwspg9wogkHmTMCCfy6d69e5WGQCm6lqVt27ZWBzDw0WnSxu8qMDKL4dqsWTNzqNB/lp8QHg5FpNS8MYOBg0L9IRzy2KNHD4sjcsstt9iSEuK6//77XZ8+fcwwx0AEDCPqGQMAjAQTVzGZkHYMNwYGWBaGTrK0qyaQT/SOte6UNbrNDB+DEmkdp77uvffe5uyRF/SB0XT0NTrWwB4DDFXqErrNLBBLyYqRrgvMEMa6EPdhRHA6kDdyZPkieoAOp2cGGNnmV65xzChvRtUx8MkX5ZjeP1Qq7G0hDsqNtLHXpxjMyiEbZNStWzdbXtalSxfTE/JA+tjbQV2jvJkFZekTdZLZ1rR+RZA/z+DwUmdiHOgWuhTB4cAZpc0544wzKuoaZUpa0o51GuoLThVhDx061MqY96Js0UfkR33CoUEOpDu2kYCjiRNCGZIvflCRvKdBr+inmKmkL0OHWd4YHe/qgDxpO0n3zjvvbHVw4MCBtryPWcdevXqZYwLIAd1Ed4QQYpYlGJK1RnAE7NhSThXKfjjFKh75+O6779opJ+lTXvLx119/+dB522knoeO301044YTTVjjqshihE/Khc7FjbXkvdD52XCb/P5ccuwqhE7LTZAg/GLH2WxWcJBOckeQJb6fn8D19sginsQRj1U72iXASCfkKxl1yxdtRlJziFQwk+x46Q9+8efP/nFLCaSYcnQucIMMpKxyBC6HTstOIyDt5IU+cTEMeIxxxyhGyMa+h47RTdTiJhtNdsoROzk454nlOUeG0pdAZ2m9LRIKRYb/TgVyQD6e/vPDCC3bW/9fJiWSUOSc0ceRlLCPCJZ9pgsFmx05yClUxfk9Or+L0HH4XIBgpFia/nUE8xAelxvv333/b72rEcNBDZBUMWDumMhIMUTvKktO+eI4weSc4xhUn1HC6E6cYpU+LglJ1LQv1gBOBiIsPeUFO8OWXX9pJOFwPhqCd2sVvWiCbeHpQqXkLjkZFWfP/fffd51u2bFlxRHMwgK1Moxw5/SsYwnYvwqlmUf/QVfQZXYjlkoXfgQmOij1PuY8dO9ZOUQsGod3nKNamTZva70GUAsc7044QHvqKTnNUcDy9KsKpSFFfOU75008/tVOVyDMEo9aOgo554bcfoh5x8heQNuoxZRChPnGccQy7devWPjhTlU6vguAYWliETX286qqr7Ehb2qx0uXE0KsdH8xwfdIfwqfsQnOe85ZAPyoI2hnTxoayoH9Sf4NhWnEIVjHQ75Y6yoUxivJwcRVsb4W/0Kv4GBWFyAlP6KPB80E5xHDOy5R2ONea3QWjvOI0rwnOcNBX1lmeJi9PjqP/5QHbUAeoCz3MqFG0vOkTZIlNOykqnmXjR7Qhy4GRCypAP7R1tNSd3pdsl0sZ9wuF0NX4bBzly3C0U0/tsew/oLvWONPGh3ONviwBlhS5RNvQ9Qggxq1KHfxL/Y5aF5RFsomVaOjTadjpPKSNPZJ0peUboGCUPnUhypzKEz3OM/obOoUajWuUmdKomA/ISOkSb2UjPxpBX7jNKxz1GLIvB8yyDYGSYmRJGshlVzoLMGfXkeWZH8o1yAqN5jNLyHOVDOeULryoYhWZUkLRxAg35YfkL5UKYWUqNl0335JVlGsHQSq7+F56J662DkWuyLiUfxF+KrmUhv2n5pkeFWfrCchCuca9QOqrKG2GTJ2YdC+kGswbIkfJGjjyTjg/94+Ql0kT+qprBIk6WpbAsh3Rlw6sJpJ8w0dVgsLpddtnFRtZZlhIhneQDuWblGSFtyJy8sIcg3zP5YDQdGQQj0QUHz04DYwaSZX/pDdDoAGmgLMh7IXgOnQGepR7WdIY1rUfkKT2TFWE0nZlcThRjhpe8oKfZtiRC2dGmUOepf6XICdmQd2RbSP5AOqPeUteQE3WtGIQddRD558tjOs3oafaZ2J5BPIEwS9T1qEP5lpNVF/oY5EIdQFfS9Yf2LThRNmPF7FN6ZkwIIWYlZgunQ8w5ZJ0OligIkQ+WXWadjtoE4z2f0zGzknY6ONlJzBw88sgj7uCDD7ZldpyqJoQQsyozz8YEIYQQQlSCo7bZCxb3UAkhxKyKZjrELAVLKDiliKUsG264YY2Xm4jZH/SEZSucZDYjYLkXJ2jxY3ulLtGakbCUiYMWOECjqqVMQgghRHWR0yGEEEIIIYQoKxomFkIIIYQQQpQVOR1CCCGEEEKIsiKnQwghhBBCCFFW5HQIIYQQQgghyoqcDiGEEEIIIURZkdMhhBBCCCGEKCtyOoQQQgghhBBlRU6HEEIIIYQQoqzI6RBCCCGEEEKUFTkdQgghhBBCiLIip0MIIYQQQghRVuR0CCGEEEIIIcqKnA4hhBBCCCFEWZHTIYQQQgghhCgrcjqEEEIIIYQQZUVOhxBCCCGEEKKsyOkQQgghhBBClBU5HUIIIYQQQoiyIqdDCCGEEEIIUVbkdNSAqVOnum+++Sb5JtL88ccfbvLkye6ff/5Jrsx6eO/dt99+63788cfkyvSFsK+66io3bty45ErtUe68iRnPr7/+au3TrFwHhRBCzH7UutPx119/ufvvv98ddthhbvfdd3ennHKKe//995O71ee3335zt99+uzvkkENcx44d3cEHH+yGDBli18vFTTfd5NZee+3k27RxxhlnuB49elQrvRiMRx55pLvsssuSKzMPo0aNco0bNzbHY1YFp3KHHXZwxx9/fHJl+tKrVy/Xu3dvN//88ydXao9y5212B4P+6KOPdn369HF///13cnXmAacSh3a99dZz3333XXJVCCGEmPHUqtPBKPgBBxzgunbt6t566y336aefumuuuca1adPGvfrqq9ZhVoeJEye6rbbayhyN1157zU2ZMsW9/PLL7qCDDnJbb721+/jjj5Mnpy9//vnndHFqcMCeeuop+2AMlspPP/3knnjiCff8888nV4rz1VdfuZ133tndc889yZXyQZ6QTXXLcmbj999/N32d3rzyyivuvvvuc/379zfnbEYwvfP24Ycfug4dOrgxY8YkV2Z9kBGO/SWXXJJcyYHTQX0dPXr0TOl0AGVL+mc3kP1+++3nbrzxRs3iCCHELEitz3S0aNHCDK8nn3zSPf30065fv37u66+/dpdffnm1OnGWiOyyyy7u7bfftpmTZ5991j322GM20o5B99JLL7m9997b/fLLL8kbMx/zzDOPe+ihh9wjjzzillhiieRq1Sy//PLuhRdecLfeemtypTjMjCCb8ePHJ1fEjGLhhRd2w4YNM2d5dgFnH/365JNPkiuzPgws0Ea9+OKLyZUcSy65pHvuuefM8J133nmTq6I2wJkaOXKke/3115MrQgghZiXq+Bk8JI3D0axZM7fOOuu4Bx54oOQlJwMGDLAlVVdffbU74ogjkqs5GAU7+eST3ZVXXmlG/XbbbZfc+ReewTF5+OGH3bvvvmsOzxprrOEOPPBAt8oqqyRP5UY8Bw8ebAYI7zCiO2nSJHf++ee777//3p6hI+Tapptu6m655RZbq9+8eXN31FFHuQUXXNCWez366KNmsDBSt/HGG7s6derYu8w+EDcOFE4IM0DM+uy2226WRwycxRZbzN7bbLPN7B3SdMcdd7jlllvObbvttnaN2Y9BgwbZ88w2rL/++iYfDEGeZTkPz26xxRaubt26Fh6dOHnbcsstzfHh3bZt29p75Ie00cHjtKy88spujz32cJtssomba66cr4o8Hn/8cTOieaZly5b2XJcuXWyWifQBcmIJHA4ho5UNGjSwpXWtWrWy+0A6kRFl1bdvX1tyx0gzs2BpkBV6ssACC7hGjRqZ4/XOO+9YmTGLxrK3KNtS4kX9P/jgAys3HNiVVlrJ7bXXXrb8D71EphD1hbwysr/00kvbMqV27dq5+eabz56h3NGF7bff3ozSCRMmuGOPPdb0ohRdy8Ls11133WWzWpTvaqut5jp37mx5xJl+8MEHLb4vvvjCLbTQQubIkHZkA6XmDWf03nvvdWPHjjU5rbrqqhbPuuuuWyFL8nLzzTfbs+gjutSpUydzfocPH+6uu+46C5t6vOKKK9q9L7/80nRoxx13dEOHDnVvvPGGDQTsuuuuFYMF6DszY5QlOsn78MMPP7jbbrvNyh/ZoZ+UG3WKepKF2TziYKYzhrfnnnvaIEeEgQrKhfCQUevWra0MYvlFaJOQGcsXl112WUsXce6///5u0UUXtXhWWGEFqyvUBWTw2WefWTlTZ6kzDCLwHtci1Le7777b6gyOGoMH6BA6H9OA/NFZ2hueX3PNNW0mF5nmg7bgzjvvNPlQ3oSFjrEElHqx1FJL2XPs8aAdYoaG5yhb6kuso/ngOfKGzlM/ab9op9B52hjCQxeYRY1tQqyf6C76ACzzop0hbpw54t53331NH+Hnn3+2++gUOoguUobIBn3BueM6M4RXXHGF1R3aYeRHOIC+kE7qemyvSOvmm29ekTau017QznGNJWi0dbSHQL1G/oQf3xFCCDEdCR3LDCU09D50Zr5jx44+dLLJ1arp2rWrDwaAD0ZQcqUyTz31lA8duQ/OQXKlMsEA8cEw8cHA8qHj8u3bt/fB4fHBSPCh47FnQgfqzzrrLB8MDt+0aVO7FzpZHzolv/jii9szcPTRR/vQyflgyPlgGPpgmFvcwfj0Bx10kA+Gi9966619MEQsrxMnTkze9D4YLn6jjTbywYi078FR8qEz9qHD9PXr17f7xEUYoeO3Z0g76Q5GlX0PBrGlMxhSPhj8/rjjjvONGzf2//vf/3y/fv18MJBxLP0iiyzil1lmGYsvGLH+o48+svQEQ9wH48QHp8ZkQTkEA9aeJR3B2PL16tXzoZP3wRmpiDMYxJbPYLj44MxYWMiUa8EQtueCQeGDMWGyDY6QhRs6eUtrMC4sHAiGiqWB+Mh/MDD9tddea/fSBCPLB8PKB8PF8kW5BKfJL7zwwvb35MmT7blS4w2OiQ8Oog9Gu4VDGMgJ3UKWwLMvvviipY9nkTXlST6DcVcR1vXXX2/hIN/gTJi+BCO0JF3LQpg9evTwwfjxa621lqWNMuB/CAax6SJhBMPZ5MGzvXr1Mr2FUvLGM6QLXUMPuI6ckC11E9AH8kT5n3DCCT4Yk3711Vc3WZ933nlW7ugXeorOBKPUB6PTP/bYYyajbbbZxvQ3GPkmO9JHmQRD2gdH1j6kKxjYVm5AvSadyJn/g/NhsqP8s1B30F3KNji+llfSQrpeeeUVkyXPUJfIV7du3Xww5E02wcFIQvmX4BxZfZ577rmtnMgTaSVNwXA1OSKnYEDb86eccoqV0YYbbmjPUReIn/IJTpDFT7qDE+2DAW3vB0fMZE7bgt5EHbrooovsGWR8/PHHW3sSnBy7lyUY/v7MM8+0dPIcuoCsCBddCY6GPYdMyTvyCE6bP/zww62MkWmUdz6CU2hpoexPO+00e37BBRf0wXC39AbD3+rEp59+mrzhfXA0Lf7gdNp39IA6Tfmip8geeSKr4CjYM7EdCg6GpYuypP6gz7QBxDVw4EDLE9dIA2GgG0Ac6C66RpnSPvAsbUJw9O19yio4GCafQw891OTQpEkTH5wqCwNIE+mI7awQQojpywx3Onr37m0db//+/Ss63lLAsMA4jUZmlnHjxlmnQ+eSDwypsWPHVhj7dOCXX365GS4YmPDmm29aGBgYdM6kD2eGjjbrdNDxn3HGGWbMY1QdccQR1kHSAX788cf27uDBg+05jLFIPqejTp06frfddjPDnfeefvpp67Qx2CDrdGC4rrPOOv6AAw6wuHmHdNAZ8zeyIF8YpL/99luFsRQ7e+T4+uuv27PIAd566y2LB7j+6KOPVhgcQHpxDDAUMTp4BiMVwzLtdGCUE/cNN9xg8fLcBx98YO/RyUejB6eD9zbYYAP/+eef23PReE4TnQ6eveSSSyrkjXGPgYT8oNR4MfgwLAcNGmThEN7FF19s4acNcxxKnJjvvvvOriFbjCTKYcqUKXaNsDC+MZowvmIeStG1LBi46BlOa9Q9DOQxY8bYfXSKZ6KMSCN6hOFJ2qCUvCGbl156yd6PDBkyxOokTiW89tprpu+PPPKIfSctGLSEyef555833bj99tsr6Vd0OtDNWAdieqlbGPDANeJEHjjKEJ0OnIRnn322Ii7CSMO17t27m4E/YsQIi5tr7733npVNNG4nTJhgz2DUR6Lu5APdx5DHYCZP6B1xF3I6KHfqH+/xHM4O5de5c2crfwx4ZNGzZ88KRxMdwZDHmaMuAg4a1+IzlGXUmyxfffWVOUc4MKSLvFCWOLhpp4O6Qd4pP9LGZ+TIkVam1I98kGYGT9DlqN9co81p0KCBpZ32DD2544477D7EMidO4unbt68Ntjz++OMV5cfflC16CbEdom7i8PEcecOxRRbIIF4jbpwm5BPrNY4JjjV9SCwn9G299dYz54X3kA/hU59iG4dc004sjiiOTJSbEEKI6csMnUNmGQLLlELHYksh4lKOUggdhi3FCp1ecqUyTMkHo7/ghkrus5SDMFjqwBIVlrqEDsu+A3tPQkdrU/ysxSd9LE868cQT7X6aunXrutAZuuAcWLzBALS0cToXU/28y5InroXOMnkrP8EYsKVhLH3gPZaBsJwjGFLJE5UhzGBk2NIC0hzK1dIRjDh7n7xCcHjyyoxTv5AFz/IMrLXWWpanYJi54ATY38GYMDkByxlYchOcpop0Ij9O4oogO/bXsNQlGGkWL8+xzIllIBwEEIyH5Okc3bp1qwgPORaCJUYstYnyZskHS2FYslNqvMH4sCUZlA/LNQiH8AiXpUwRlqmwdCoYJCYPlp5xOldwfG1ZDXKIIOvTTjvN0hLzUIquZWHpFEtMOGUq6h5lHIxou0+amzRpYnkIRpUtHQqGmy0hCQZayXlDNsHRs2UylCn5Qf9IWzz9iO+UPcuoOPyBtASD2sKM+YNC+nXooYdW1AGeB8qP9ARnx+TBUhvusSQrDcvh0P8YF2GkIc0sQWMZVfv27S1uniOPlDVLjQiTuoAc2ftF+SOjqDv5IE8xveSJ/GfjThOcIzuVjHrCcyzRIQ0sH0MfWVJFOCxbY8kloCO0JegSS4+AMgwOl23K5z3SHQxqu5cFvaTsaTuDEW9pRQ777LNP8kRubwpLxdA30kP58SG9pJUDOPKBTgfH0JZ50tai88gxGO6WXv5mqSV6ExzF5C1ny7yQM+0kOsjyVpZBsTwM3SLu+vXrm/6w3DANy72oJ+QDOcS4CIdrlAHEMqGsyR91Bf1hSV8sJ/SNpVcs80RO6CZpJb+UCWEi1xgmsPSOvUmkTQghxPRnhjkdOAPHHXecdSAc8UhHVR3ojOmU6TzyQfgYFnTG+cAwx+nZZptt3Oqrr26dXdzngMEFdKx0bBj8aejwstDRpY2SaFhEIx7o4Agvhl8IwkEuEcLg3ULOCgbSueeea2vR6exZ24+RXCrR4EtDWHTaGLYYiBjc0aAFjOWpU6fa/fS70QAFjJWPPvrINWzYsJLhRP64xvsxPCAcjKO0HAuBHNPPYaQss8wyZoSVGi//YwThjGCARnguXW44XTx/9tln216I+MEhwDEgnAjpIh1pStG1LJQfRhIGWj54j3X7hIdxxvp09n4QF5SaN8CwY79OLOu4Fj+mjTI55phjzJFjPf4JJ5zwH2exGNn6A+zZ2WmnncwQJk6cRsJM6wPkezcNZY0uYmRmQa+pM+gt4XBYBYdXYJgjf8p1ekG5p3Wf7zgVOKm0UZQFbREOXBpkS1uGvgJ70dAL9jPg1KI3hcCgprwptzTEHUGmhM0eGgY9ou7iMLBPA/3NB+WDDnGkd1rnL7roItML0ohu4hAiU+LBAWTfBXs8KA/yTX3EiWK/VwyDPW3EnT3SF71M12nkQlxRp/NBHLTT1Lm0/IE0ECZpoD2mjSRfm266qTni7HcSQghRe8wQp4NNjYxK0QEwGsuoYHVh5IxOjpHSfNAhY3BkO+QIHTEdDx0rx2KykZGRymzHBYUMw2KkO89IvmulUtW7rVq1spHJc845xzpZZo8YAawJGEqMnrKZFSNo0KBB7oYbbqhkvEZDABkXSlt8JmtIAu9ljYxpgTj44JxVN95ieQDu4RDhJLMpP37YFPzMM8+YEVWM6ugakP74yad7XLv44ostPRjrbLxnc3O+dFSVN0af2WyLk9OzZ0/bvE3YaXif2Rtm0pj1YzMuxiaGdE3A2GR2jdF0HDni5Ojs6KjXhHxyinnHCKf8cKY4jYrN/ZQbdYQ2qFxgEBN3lH/UyzQ8Q9pj3nGIcBAoAwZOqNeUbT6ijuTT8zTEz8xlWndpd5lpQP754B0+3bt3r/Qem7yZzcBxpq5xiAdGP4dAIFMGK9icnR6IoA2mDUnHTRjXX3998sS0k6/8kS3yIZ3kBaefmQ4cKcqdWUPSLIQQonaodaeDkTUMWZYbYGiwPCd2yhE6CgyGfB1JhA7j559/ttNVsp05nQ0nwNDxYRzlg1FhOkuWMXXt2tVO2GGZSbqzZPSMdDAqF6GDZynLzAYyZGT3pJNOstNZGFHlVJsI94vJMw3OCwYmhjHLP1i2stlmm1UaQWVmAUOJJV/R6KEccAQjzF4x0s5IZ9o5JB0se2Ekv5DhXRWMtFI2EUatWQLStGnTkuNlJJURcBzU9Kgrxh7hR+JoO0tSOGEn/cFgJ5xilKJraSgrjERkSdrSkGfSx4gyo8Y4MTjwGFQsv4qUmjdOcsL4P++882zpFU4Mo9JZcNQYHee0OE6xYokKS5Ug1t9S9YulRCx5YYaTE8qIE+OaOKoLZc1ymLhkKoIuMpId70eQK3nFeMbhQo7FKDVPtDmM9se2CDmjj+gMusasADMuzCpFeBZnj3eZ7YnQ7jCzxKABZYqhng/qO7InjBgv/9MuRpjpYzYFvWGEP6u/1JN8sDSRGV0GGtCt9Ds4a1Hnab8JH8cXZ4I0NW/e3O7RXrBUkjTxTjoMwiwUdzHIL+HF/BIHM0os0UvPOHKftok6RvoizHTiSI0YMcLKiIGDCPqDnGLYQgghpi+16nRg7LBmn2M0OWIT44ZOmA9LJGIHT2eBYcZyjkIwUopRRQfCOv74blwSwPpzDOZCsyhx2Q0jc4Bhdumll1YyyNiXgcHAKD+j/8DfHD87M8HMEQ4GxgvQcdKBxiVrOAfkA+OkFCMKYwMDMI5kEy5LeTCaIjgd/LgdziPGFeAAsoclQjgc90k4LG2J6eM5On0cwvTsSXXA6OWXoSk3wsUYxuhjXXip8SITRu5xWFj3jmyYJcIxSO+fQYcwpCh7nJYI4eKgVSXTUnQtC8fK8h76zfMYQozSs6QLw4s8ppcjIQ+Oi42Umrc4MxT3lvBcdmSdeNM//Iexxjtx6SKyRF+IvxT9Qh/JQ9QvlkjhPJGf6oIDyb4PRrBpUygT0sCxrbQLu+yyixm+HIeK8xflRR5IQ6H1+8iPsHFmYt0vBnWQHyWlLUM2GLPImWWJlBX/M+CC4xmNY8rszDPPtAEUZqmotzhDUV9JK3khHfnAUSFvzJzhaPA8MwrU1Qj5YOaB/OMYxPyTRpzNtBOUhtkJltJde+21lWaDyAOOakwj+oMTgQOKk4QTEmdtcAhYQofjS5riO0DZp53hUkDHkCV5iWGRPwZFaINol6NuMvBCfkkbSxBx4NlfEvMf617695FYOoa+UJZCCCHKQGigaw1OduE4RaLNfkJHZSeiwJNPPmmnkXA8ZzE4IYYTSkLHY0fEclJNMCLstJR4wkkhggHoW7RoYUcvcsIMf3MaUd26de2YRQgdmx25S1pIN6efrLLKKv6kk06yI0AjHAMZOn87dSkSnAA7jYdTYiKc7rT44ov70DknV3Kn1bRq1aoirddcc42d2PPZZ5/Z9whHosbTquLJOqQbCJd0cVpP6GR9cMZ8w4YNK05GCh2xHWEZjAAfDBU7VjJ0wnbCC3HFE58iPM/pPKGDt+NdgyFhJ+QQJydGQTCGfHAeTX7kiTCRO6d2cXLOF6kjc4mbsCijZs2aWXmR52DQ2TOAzIOTZCchFYO0cXoVJ/5QHhxRyv/B+LE0B4POnis13mD42Elo3EOXkF1wSuwUrf322y95KqdrnFpEXpEx5UYa2rRpY6cbAccTkwdOe0pTiq7l49xzz7V6ge6RNvQQ+SL74EiYvDmxipPOKBvKiXIg71BK3niG98gX4QTj18qatHIaEARD1u7H42g5eYgyQA8BmXPqTzAK7aQqnkGfqcfInyOK0yAvjpNGVhyVTZmg25QlcUEwiC1OTlyriuAUmJ4SP2VEGsgzccQ0olfIG/3nOn+TV8qmEJwwhl5xGlSDBg3822+/XXEKEsdIByfBnuP0quAY2ElPtD8cn0takEMMnzzTTpBn9IZyQ46kd/To0fYMMqOckAPyJV7alXiiVxbapwsvvNDCREc4ypuw4zHd8RQmwkXv0B90r127dtaeoD/F9I94aVfIE+mJOs+pVrQfEU6sQt6kIxj7ydUc6AbpQQ+og8EJsTwS5jPPPGPP5GuHkC06iiwpXwiOgp0QRjuGnqNzQP44Tpk0kF7ySL2hfD9KTgWjPaVNpC1Av8kHf3OqXISTykiXjswVQojyUKs/DsioHSNrcbQpDaOOLCtgNIsRP0ZeGUEtNhJO0hklZfSZ/QeM9gXD20YVmXJnpK0QvMvSG0ZDWYbBiByj2SydYvQrdJL2HCNqjGYzShY6JBsJ49QX3iUOYAaA0UuWUpB+YESQkTzeYTQQyDf5J/y4PCGOMDNzgAxCB2rhsawihgW8FzpVexc5MhpHuHwnLyzfIY2MAjJKyUwR6SFMQDbMMLHkiFN9gqFn7xEuI9bBYLDnIuQHmTKqyVIgNqcja0Yx47OkgxFLTg8ib5x0wzISZBNlQRyMPrKchjXkPMdmdza1puPkGeSFHKK88sEIJRtVeZbRbEavCZsRzWBsWLmR51Lj5TnyxYwNP8rIMjKWoVB+LM1AvvE5yoUf42Pkn1kIlhsFA8qWssWyY0SVvFNWEd4tRdeyUA8oT0a/ST/7QtBvnuc7I9XIHpmxxIrrpDuWe6l5QzdYk88PsDFSzQwfeUUvyCd1ADkyko1esFSGvMcRbUCPWQaEPpFO8kdZkUfqS3YJGrMHlAuzb8E4N31EdtR3wiVOdLyqNiBCuqinnKRE3vmBRjbYxzQiL5ZTMdPF/8wsEC9hxzqShfSjXyw1JD/kizaFvFK+sdxPPfVUN3DgQNML0hDrDPqWTjt5ovyRI3JBhsy6IeeYBuRHWSBvljihK5RnoaV4hMmMCnWbNoM6SJyxDeE99IC8UPeRObIPBrelj/paqJ3kPeoZG8XRH+oN+oMsmH2JaY5lxfdY79MQN3pMvnmOwwOIm315xE3ZZNsh4kYfqAO0oTEflDP1ng32tPPoK1DXY/6oh5Qt7QHhkS7eZQkW95m9Ig/oSCxD3ud5lmcy01esDRJCCFEzZvgvkgtRHdJOB8ZQ2vAVYkYQnQ6cNgx9MWtBF8imdj44rcsvv3xyRwghxPSk1jeSCyGEEDMLzEKy74n9U3I4hBCifMjpELMULLNgmRDLKrLLOISYEbBkj83MmnWbNWGJFUtJOXhBCCFE+dDyKiGEEEIIIURZ0UyHEEIIIYQQoqzI6RBCCCGEEEKUFTkdQgghhBBCiLIip0MIIYQQQghRVuR0CCGEEEIIIcqKnA4hhBBCCCFEWZHTIYQQQgghhCgrcjqEEEIIIYQQZUVOhxBCCCGEEKKsyOkQQgghhBBClBU5HUIIIYQQQoiyIqdDCCGEEEIIUVbkdAghhBBCCCHKipwOIYQQQgghRFmR0yGEEEIIIYQoK3I6hBBCCCGEEGVFTocQQgghhBCirMjpEEIIIYQQQpQVOR1CCCGEEEKIsiKnQwghhBBCCFFW5HSIsvH111+7QYMGucmTJydXhJh5+euvv9yIESPc22+/nVwRQgghxPSi1p2Ov//+2z3//PPuiiuucOecc47r27ev+/TTT5O71eePP/5wTz31lLv88sstvN69e7unn37aDIhy8fjjj7t69eol30Q+/vnnH3fssce6K6+8sqSy+P33393VV1/t7r77bnt3TueTTz5xF1xwQdkNYO+922233VybNm2SKzMvpPWoo45y6667bnJl+oHOXXXVVe7www93U6dOTa7Ovnz77bdu1VVXdRdffHFyRczJlLNu1QavvPKK9cn0zUKImZdadTowPmnY2rZt6y688EJ3zTXXuGOOOcZtttlm7qOPPrKGrzrQcXbo0MFtu+22ZqBdf/31rlevXm7rrbd2nTp1cj/++GPy5PQFA/nnn39OvokslCMjxjiXd9xxh1t++eWTO4X5/vvv3aWXXupuuukm9+effyZXZyyUMfo5cODA5Mr0p1Aczz33nDvvvPPcQw89lFwpHz/99FPZ6sr0hrSWo+4xK3fttde6k08+2a233nrJ1ZkDHM/OnTtPVwcUJws5/vLLL8kVMS3079/fHX/88e7XX39Nrsx6TO+6hfNOf18bjgB9BumfEwYMhJiVqVWng1mOpZde2j388MPu3Xffde+884677LLL3GeffWaj3NVxOjCScCwwbDFUx40b5yZOnOjGjh1rDgjGGqOWOAiidsGgYQaKpVWNGzdOrhYHvcBRwRGdb775kqszFgyyu+66yxyAclEojp133tk9++yz7uCDD06uiHJCe8KAxRFHHOHmmmvmWnX64YcfuuHDh9vAjJg5GTlypM3SzspOx/QGBwa9feGFF5IrQog5nbnPDiR/l5155pnHZjkaNmzoFlxwQbfQQgu5VVZZxQ0YMMAttdRStsyj1A7/nnvusSVV5557rjvyyCPdIossYsbqYost5jbZZBM3adIkN3jwYLfddtu5lVdeuWJZF50CBm7kiy++cKNHj3bLLLOMm3/++c1JYaqWDuT222+3e3Xq1HH169d3c889t70zYcIEN2zYMHfGGWfYdyBcHJ2bb77ZvfTSSzbViyEzfvx4t+KKK9ozjFTiaDHyH8NidOaZZ55xSyyxhMkDcL7ef/99i3/IkCHujTfesPwtt9xyFfdxrr788kv7G0OdMBihJQ9ZxowZ47766iu37LLLWl6A7+QNWSywwAJ27dVXX7X0I1scQdK98MIL2wzVqFGjbBSJcophYAS9/vrrFbJBxm+99ZbJgbA+/vhje2eFFVaocCQI9+WXX7b8MAtCGXGfdGBcoSPIjjhwXnAm77zzTnuOMIF88FwhWK735JNPuttuu80cGeIkzMUXX9zuMypGfjD408vkGO1+8cUXTT+RLcv2eH/RRRd1Sy65pIUb80q+COOWW25xDzzwgPvmm29Mh8gXoA8YIsiWpVI4xsiFPCFX0l8sDmSJDlDm1JUI5Y4zh0w++OAD0xvKJMqetJBv9CEreyBdDz74oJUz5cC7jzzyiF3HSY9MmTLF0nvrrbe6//3vf+67776z/KEPhSDtpAGZPvbYYzb6i8GB3KPuAjqLTqPb6AA6hEwp11gvAMeVUVJkR91FRoRHPCzdizBLFuse+aZ8o4yBcqVOomPIjTIjLj60E8TB+5QTz1I/Yzmm+e233yx82oi03lCmtBnoGe+iu+gWciNN/E9ZkKZYFhhk5Ikyp/x5jvyttNJKdh8IF9mgI8TbpEkTC5dPlCd/o2fkiXCoQ8ibco0gb3Rl6NChJnN0lfRTPhtssIHbcsst7blS6hvPUHbEh7OMzNCLWLeyEPd7771n5Uz8lB/XkFMMk++EwzPoNjqEnhFubGvS8Dw6QBvNDCF6PO+885qu03/Q5pJGZMT1COWDHpAfyoG8UJ+QCW0tMqpbt659YryUK7qPLpJ+5MIMO/0WbS3yp2wYSCP8pk2bus8//7yiPymHTKnrpIu6SVuNDlPetAVA/kkP7QD1kPqBvNPtSCl1Cx2ljyDtlA2yoj1DrlE+6DVxEA5tLu0Iek6/il7ed999pmvIAr2jjOgXGVAhf6SBJdaUBzKlX2J5NGm///77TZ+pt5RJBHlRL2L+6Z8oZ3Rnjz32sDIA0kLd4TnCIm/EiZxi+qnLDPhQF5AZZU0ao6yQHW0C8smni0KIahIa8BlKaIR96OD9qaee6kNjmlytmkMPPdTeC4Z8cqUyoaP3oSHyl156qX0PjYdv3LixP/DAA+17JDRI9lwwNu37VVdd5UPD6ldddVW/4447+mAA2v1g2PvQ2NkzwbCzZyKh4fJdunTxwWDyocH1oVH2oVPxu+yyi2/RokXylPcHH3ywD0aFD8ZmciWX/9D5+EcffTS54n3oxHxoGC0NBx10kF999dV9cKYsXghGlYW9+eab+7XXXtvCXGONNXwwUu1+llatWvng7PlgNCVXvA8drQ8Nqw8djX0PDa/F2bx5c7/ffvv5Ro0a/Ud2hx12mA8NvF1DFuedd57lM3Qmdi10nD4YUZb/du3aWbqRSXDO7D7ccMMNlpdtt922Io/XXnutDx2R5YG4yR+Q39DZ+OCM+fXXX9/+Dp1TpfDy0bJlSysf5MOHNGy88cZWThA6Ed+gQQPftWtX+x4JhocPnYv9HTpZHwwYpt7sEzocK9uY1xNPPNGHjtTysffee/tgJPnNNtusQsah4/ehg7N7hLnaaqv5YBhYWZNfKBZHMCrsvVjmEDpOCxN5rLXWWlZ+yBpKkT35Jz1pPQ3GjQ+dvV933XWTp7wPzqKll+eCoWu6wN+EGTru5Kn/Qt3h+dDxWxrXXHNNK69gNFh+AL25/vrrTV48Q7zkk+cuuugiewbQgeOPP97qHmlceeWVLe/oIToTmTx5st9www3t3j777OO32247K5dDDjmkQo+GDRtmYaBb6Byyu+KKK3wwDi3v6OMWW2xh9YR8rrPOOj4YlvZumh9++MEHg6aSLgHXkVenTp18MOb8Tz/9ZOmgfHbbbTf7kNcddtjBB0PO3kEepOmUU06x+AkXnUpD+nkXvYj6wadz5852nzTstddeJiPaKeSNPqFnwXCzZyAYwyY3ZNysWTOTN/GRpjPPPDN5qrT6FgxLKzvaiQMOOMDqUY8ePZK7laGsgxFt+SMc3iFM0hscXJMV0L6QLvSR9nmjjTayZ2kT8vHuu+9amxeMQ2tTg+NkaQ6Gr90PxrvpQDAi7TvQtwRj2t6J7e+9995rekN5oy/oAmVCmxzZeuut/fbbb2+yJX3Ei4wpF+o69RydStdh5Et9hHLIlPqDbiFX0kWbst5669l9dJo8ki/aJuIkveh+pNS61bNnT3uG+rLTTjtZ2mljgpNn9+kLTj75ZMtbhw4dfMeOHe1+cGJ8nz59rC6l5UL9Co6AD86Itc/oLn044VM23KMeEh7PBmfYwiBdwYmxOGHUqFEWDzKj7JAFOoAcaCOBeta+fXu7hjzoJ/mb/AbH056B6667znSF/pF6RR6Dw5Pc9X7PPfe08n3zzTeTK0KIaaHWnQ4azQkTJljDNXDgQGtwMBI/+uij5InS2Gqrrayj/eqrr5IrlXnrrbesUTrmmGPsOx1bw4YNrVFPQwdFoxyN79dff90M8GhcYwDSIbZp08ZPnTrVrtGRpJ0OOjcaNBpgOiKMgQsuuMAazLQxR4dKmrNOB/E/8sgj9p0OgbzRWdCBAGFiSGLYYGTxzM4772zh43xgINGpItt8YCSR/rTTQcNKYzt69GgLjw6AtEZjig5gypQp9neUHR1z2uk455xzfL169SoMcdJGBxrjwfjaZptt7F3CADpMOiHiQg8Ih7RjYGAI4byRHhwoHBpk8cknn9hzxMN9yvXZZ5+18PKBLEkLkF6MfDqmaIjhdGB077///vY9giNG2ECa0EkMDZwTOrGYL/SDTu/KK680w4m0oT8Ye9FRwxjB+KC87777bnsOYx7DBkcIisVB/SAtsRONBjLvRp1Hj5AnlCL7hx56qCQ9PfLII80YGDFihOWND/UEA+T0009PnvovyIOyxQkYN26cvUd9Wn755c2A+OWXX+w6stt1110r9It8YNwhhw8//NCuYbRhVOEkUe+QX//+/c0gSRtGl112mcmJQQYgTpwfDDvkATiTGD2UBcY+zyB75D18+HDTB+AaeUAeaYM1DY4RacCwihAP14YOHWphY8igbxi1EQxi0hTDpXx5BiMIfeK9WLfSUBcw3Ck39Ig0x+dwpogX55+yJIzXXnvNyhwHmDrMswwWYFQysMEzEydONIMUmUSno9T6hmNEOUXnk3KJdS0L7RJGMe0PYQJ6Sb2jbMeMGWPXHn/8casrsX6SZuoK5ZGFeziX1AWcDyDvtE3UP/SHtJFGBmyQHyA3dBzHD93/4IMP7Bn6A+4BdRGDH52LYIzSTp5//vn2HOEhE9L7zjvvmJyQM2nCISGffOd6OWSKrjIIQN2OjjFO5aBBg+xv0kj7RxqAukN82cGhUuoWxjn9KOVA2jG8GUBA1kBZYszvu+++FXL+7rvvKvSOPNM/4LyQrqijDKrRTqD7lD3XeJ4wqB+TJk2ya3zuu+8+qyc33nijhU8/gYNFX0gbyzPURQY7CDO2l7T5tFexjQbkTduDDsRr/L3JJptU6ADhx/YSjjrqKOuXiEsIMe3U+uLlUKHdjjvu6Fq3bu2CoWVTuKylZvq3OoQGz6ZAQ0eeXKkM14Mxb1Os1aF58+Zu0003tb+ZOg6dvQsdkU2ph8bXrmdhqjh0TG6//faz/4n7lFNOsTxWF6aTWQ7FWv7QMdj0fWiQXTA2bXqYqftIaLRdv379bOqZvAYjIrlTPXiPdDONzJIe4kO2oYFOnigNpsFZqhEae5Md4ZJuZBca8+QpZ/c5aaxx48b2DGnPwpIF3gsdsi054TmWEAQjyd5nOUwhWFLHs6FjsSUxlANxhE4weaJqeD44lhYvOhCMhIrlEsg8GHEudLYWBzoWOl/LD0uX0lCOwcC2NAdHx3SLcoRCceSDPVCUfTBurNwhGBIVS6JKkT3LCKrSU+QVjFM73IEDGgiHD/unggFpyyWKgc6yDIVneY/6RPgshwhGjy25oA1gg2nUL/KBPpDWWK4sQ6FtIK3IiHwFA9H2ukTQU5Z9sKxwo402srpCWbRq1cqeZyljJDgS7pJLLnHBmbd0IXvk3bFjR5NdMIhMbuuss46VBcvL8sHyDeoGa9XRBT4sjSIP6B1hB8PJdLZly5aWJj7B8LZwWb4XCe2v7SEhvbxHGrPwDmXFff4nzTwXDDRbVolOHXfccVaWPEP627VrZ0s5iZflIpQZuhDLMxiWtuSEfEdKrW/8Tbi0U6SB7+lw0gQHyPbZsfyVMIFlayeccIK9G3WJMGhbg1Fr+kf+WBKbr12gDiBf6h55Jy2Etf3227sffvjBljKxnAedYPljbP9p1/hw8Ahy5B75DYa33Scc8hGMebuXhrrNJnFkT3kgR/QFPUZO6ANpjn/z4e9yyJR6RPtx6KGHViw5YjlQcCzsb9KIHlJnkCVy3WKLLawukRYopW4BS+/WWmst03HqBmVCPihTID/Ig2W01BeeW2KJJSrkkW3boo7GdzlAIzhk9jfP8xzlWL9+fZMDcTZr1sx0hqVrwNLm4DRZ+bPckHdZTh2cEgs/8sADD1TIhfwB7RDlTX9NmoF7LAVDr0h/cCYrLWujjtH2EpcQYtqpdaeDCk1nQ8VnLXnbtm2tI4gdUanQcfB8IUcAY5BGhAarOvAO6aMBxvCiocJQwkAoBA0ijWraSKfDjI1ddaBRpaPkJCca0/jhOE/SRmcXoXPlM63Q4Pfs2dPSjwGEgUmHSXzVARkhKxp2jBzC4kQxSIdF54LBUAw6BeRHB5SG/FKmrP0tBJ0y+oQRjpG/5557WgdWSFeqA/KnjOio6MzTZYTBgzOcBtlG0AmM8pqkg/gwsldZZZXkSmVKkX0pejp58mRzDjBe0504hkTTpk2Lyh2isZEGp536iGxYN0982fJv2LChlSvrxgEHkbAwdCIYGOm0YvSRJ4xV6mosB056orwxuiLkZfXVV0++/cuXX35pBiVlicww5khrofrO4AhGKOvOiQNdwwjGeYlGIGnnOqfoxTTtvvvupjtp/SB/LVq0qDDEqgNGKkZ0o0aNKrVxlCdOBW0IeoahiTFOmtNQB9PxllrfME4x5mgfyTNyKNROYKwBepOG95FVLGtkgKPEyWHUWfb4FQqT/Qs40TwTZcuHd8kvxjT5YH8geYpxsEcAg3KnnXay79yj/8D5TYfD2n9kmyZdh2GhZO9dVe1jOWQ6fvx4S08xIxijfP/997djsNFp9j1CDLOUugXUH9oQBglpR+kL2Z8Tw6FNQO44lzjVOL/ROagK9JRBmiw4LzhlOCOknbhxnGOctIOkdbXVVrPvkeiYR8gjDhLtXRqcUeptHLzD8SF86v+BBx5o8hVClI9adzpobNZYYw0bRaFT5phK/mazWno0vCqWW24560wLvUOjgvGAMZOmmPNAw8aICYYbf++1117WkGYbuCwYg6VSLH6g46TxZHQcYyh+OD6V0UlGkGtKsbiRE5v6unXrZh0LRsDAzDGuVaWdTZqxsyf9bEikMa8JUabpjiTCtawhEMFgoNzYGMpIMyPJBx10UCUDelpABqSN2YZ0+fDhBDb0uRj58lMKUR7Un3yUIvtS9JRn0H2M0izEXUjuVUG+eR9DL/6dhevR8CklrZQF9QWjNl0O3bt3t42hGHDFwEDCMGOQAacFAxSHJV/eIxg37du3t9FeHCg24WLoci2C/HBOKIOYJmaUSBP6OD0gDvKerzyQbdSz+FxVRHnn00+uxXiQNTOxjN4zMs/MAKPB+ShU1lzjE+skhiFOATOIXKMcmNFDrlnIDzDbkC7zM844w9or0kPYtF+MurM5G0eaGTGuYdwDMkHXGDFPh3PRRRdZWqYH5ZBpsTABncR5YTaDGQ+M6rRuQql1i2PtkQkOIqsS6AvTKxIoV+oLM0O0NfTh9OU4ITUBR5m2Gz1Yd9113WGHHWazZGnHoRRdTteNrJz4npY9NgiOaXT2cIAZRBBClIdadzqyxJEgRgFjh1IKjFjQKRVq4O69914Lj9ESoJHhkx2JTo+G4qQMGjTIRgVpQE866SQbMWKkthhMhdNg4gRFiDvbuJNXrqUbzvTMBTD6xHOMZNHQpz8s7ciO3JQC4TG6k5ZvNl5giQgzHpxigtwYcYLYSCOrtOORlh1gdBMXp8r06NHDjH0a8ZqAU4nREkekIozCU4bZ0cMIHSAGOMY/PxRJx0WHQroidJbkJyuD7AgnkPd0njGKGKXnfTrIdPkwYomjU12yceQDHSPOuDQrSymyL0VPmQVhNobRUuQfoawZua5qhop8ZOsxhhCjooQb63p2RBRjC/lvuOGG9h1dpJ6ky5+w02ll5JpRY/LNMopsWVRVb1nqRNpYdsWP5DHLgWGazyGKUFY4d5QFji0nU2HIpmcSSDthMMOWThNtCbMQNSWtI8iTeJntSOstzzATx0g6zhMyZ2Q+O4KLHNPhVae+EeZpp51ms6GMcN9www3Jncogf8owGzdxMLqMgRqhXlGGnISEg4YjGGdK0iBb8k560rLlw/txFo/8MKtBfeBUL2a00k4o94FZwWw4LPGpLvnqcDlkSv2j7BhcyAfvETZ5ZskiyztxqNOUUrcoH2aTqA+cuoUDTZ1ieVgWZkVxqFnSxCBgTZ02dJm+h9kTZvZx0Glj0zOnxE/7ks1/enaSuke7wGxHtk1neRrtRlzuB/S5ffr0cU888YSVA3kRQpSHWnU6aGyvu+46M5xiA8G6a0Z56EBj40JjwVp1proLwWguIzCMcGFoRkMHgwYDjFkBpktZEwp0vIzm8yydIM8zosHUc9ZIIm3R8MAYYtlMMTA0Meqjo0Pjze+PsIQsDY0bS0IwioF80tGkYdSLmSA6j7RhRqPKDETaYSkVGlgMET6kj2MQ079EjMxY6kaHQeeJrGh8o6HO/4zsM3pGGRIG65HplNIgNz7cJxzSX6wMi4HTQ7w4D3EtMh0hJzxj8GH4FYK4kRf/YywzAkr5RMgfnTd6x3IN4GjF6GRFiJ+RbfQ16giGHGuh2f/CaCTxROLSpOqQL458oBOM3HK8Z3QaeAdjAEqRfdRTjpnkuXx6yvJHjB72f6AnkWHDhtk+gbgGvhDoN/LBKCA9yJhlXyzPwOnhf4xGOvZYJsjyrLPOsjZghx12sGsMKiCXuHcCvacc03mivWAUF71kli7C8zgT+ZzINKQPCBuZUQ8wnNLOVj5Y4sZIO20M9QbDKC6tAmZP4lG8aVgakm/0virQV9KYNrSQIbMB5BNZxnYhHpuM84bjgfGFYc0oLmVBnjnqmjJK62qp9Q2dQK7Ii3QRB+/lgzRgeDN7HMPE6UXnGDzZZZdd7BqGIPIiTJyPuKaeeLPgyLAMCtmnfywRXaZ9jGVHWISPvFmqSvsV+wIgDOJCdumBqHwOcSkgC+JC/yPlkCl7lzC8kWnUJcoz9iOxHYg6TXzUoTSl1C2I4cQw0SH6wwhpxnHnGfpLyo32kbCB/5Ex5ZR2aKoi6jJlSRrTqxlYdUB/RjtIfQLSwCBLui1mmR7tI3kij0CbhgOFI4XDR5qwB6KscEZIb1r21CUct5rohBAiD6ExqTVCI2CngwRjwY644xMaKTtJg9NxQuNgz3H6Rqj8dnJEMTg1hpNxQgNuR+dxSkjo5Oy0ET6cwhM61opwOZ2I67zTunVrOx4vdL4WF0fmhsbH9+7d257hNB1OfeFZTj0h/NDIWzgPPvignagRCR2NnYBBOniWkzTIJydspE8F4tQQjt8j/6FDsnwH58lO1EgfmcupNKEBtBNHgpFnx/YFh8VOCgmdiJ3ywalVHLFYCpx+Q56C0Wfxhk7NwuQap1cRJmGHhtjio1xII8ceAvLjiNHQGNvxg9wPHYydQhM684pTUUIDbvlDVieccIIdgctxk8HwsdNooG/fvnZKSjAU7XskdCx2JGs8CYU4OVkJOZNuTmuhLHg3OJXJW/8lGDWWPmR7xBFHWDkGY9vSGQyV5KmcTAgLHeA+/3NsM3FFQidmp3pRrpzIRLjxpCNOq0EeHO95wAEHWDyUGfmD4NhaGjhZKM3RRx9tJ+9ECsXBKUuU04gRI+w5dDM4ilYu6EvoVC3NHCcJpcgePaX803oanC876pXT0iKcxIUcyB96zbPx71jW+eCkGMoLXQqGkQ8OhtUt6sL7yXHO5Jd6yXX0u23btpbGYITaCToRyhEdp30gLzFM9DPmGcgb9Yx4OeIa/UGG6DYyAY4mJvyszgWn3056Qq+OO+44Sy/yQ8ac7laMYAyZTCgLToNKw2lcnHjHfcoJ/QiOnJVnMNzsmWz5FoPTfKLuk8YuXbrYdeoM7RgyIj7Klr+Rd/qIz7Fjx5qsiQ95U7bIiLIPzp49U2p9Q6coB45FjuWb1fEIOnvhhReaPNFVZEEbQxycaBSMPnuO42NJWzAG7ehVymqLLbaw/OWD04qoz4RJOjjqtGnTptb2B+MwecrbMavkkW6Otpz0pKFNI3/IizIibsozGJnJE7lTEik79DFC20G+o34Bp5MFw9t0kXrCqW3lkCky4/Q5nkGWyInwN9tsM7s/YcIEiyMY5r5bt25WrzmhifiDU2bPlFq3iIe2gmc5CYxTs2jvKEeg7qFX1BnqHe0a4cSTIIG4CQOZUL7EPXLkSIubU+XSBCfG8kHfQhvBu6SHONCXSHAcTIboAKcyxn6U9i/WJ/SAk9OIm/RRT9BD6vu7yaln9OeEz4ld6BDPI8s777zT7gPtQnBIKo4JFkJMG3X4J+d+lJ/QCNtoO6MLoRLbSAanY7CGlZHcOLvAyBOzAcxM8CkESWfkhXXVjHYw8sLGSkY5WB7CNC2jp6w7Zco+NHQ2WsMofTAIbLkSyx0YKWUUODReNtIVnBmbnuY7m6oZwWE0lmdCI2ab3VjWxXrQCNcYlQnGhIXJxlFmaxhNjEvASC+zJqwv5nmm8dmcR1oZhQsNtj3HyAujQ4yissQgNJY2OsXIGZthGZVhHWpowG3EriqQM6NpzMQAI2zMqDDCyMgZIzysUUcuhMsSBUacGSFFTsAoEiO3jPww4o5cGMUkfeSB50g30+MsaWCGgeUMpJswGT0PhqCNGJE3vhNvhFEnypCw48lH8Rpy4D3KlnXKwQguOBII6AQyZrqeeCgLRoApF9IM6CKzG8iEdJFW4qWs0nshKCdGAckD5c+IGnEz+oYeMyXPKCbhUj4sZUBfKBtkTprTOswsGxtI00se8sWBHpJ38prWC2YlKAPqCM+iQ+h4KbIH4gpGk9U/5MFz1Dv0m+cg1itmAtGR0BFbnQoGa8UodD5YosCSDuRC3mP+iSO9LwpdYtSRckV2oeO3fATjp9J+irhMhDrLyCR6GwxNG9lF54C0Ik90k3jRGfIVjDcbaafukLcoh2Dc2nvAu8wUDBs2zPSfcmcGgzqKLkRdyQdpo3yC8WPhxrYrwggzS4UoL3QBHSDN1DfeYZQ6W76FIJ3o76BBg0zvmG1iNoXrtC+0V/HgB/JMHtLLR7jOZnvKHVlRjtQj8hkMVCsjKKW+UadoJ2izaB8pN3QZHckHbQ+6xjuMTKOrbA5m6V8ME1lxH50grbQ7PENZ54NnSAdL26ivhEM/Qv3jtDTaaKBOcB+dJw/BeLXrEfJL2jitDZ0ivuCMWX6i/GjPiY/0xjJmRpNwKUvaK6DvYUkYbQp55CAL6ko5ZEr9ZvaQd6hL6BV9KLNaQNpo/5gRpR1Hr2N6Y5il1C10jbYG3aIuMLOGzpFXToFDvuSNdoKZKuo4+0noy2MZUL+YlSLvpJG2mLiZdaOs0mVC2DyHniILdJl0EQbPpfWUesUsBmlgGR1lT5jpfpS6QdnSLlCG9JX02ZQP/QsgF/JIe4ccSD/tJu0QukvY1BnkVKztE0KURq06HbUJ2cLQYPkUHS4NI8ZIbUH8dP5pp0OI2ZnodFDf6MCFEGJWhP6bgQz2YTEwhcMmhJh2anVPR23CSAYjKYz4MJpV6KhRIYQQQogIsxxsZmdWsaaHoQgh/sts63REmCZlyjpO99YmTKEzXS/EnECDBg1sqRFLmoQQYlaFpW8sZ+TAlRlhOwgxuzLbLq8SQgghhBBCzBzM9jMdQgghhBBCiBmLnA4hhBBCCCFEWZHTIYQQQgghhCgrcjqEEEIIIYQQZUVOhxBCCCGEEKKsyOkQQgghhBBClBU5HUIIIYQQQoiyIqdDCCGEEEIIUVbkdAghhBBCCCHKipwOIYQQQgghRFmR0yGEEEIIIYQoK3I6hBBCCCGEEGVFTocQQgghhBCirMjpEEIIIYQQQpQVOR1CCCGEEEKIsiKnQwghhBBCCFFW5HQIIYQQQgghyoqcDiGEEEIIIURZkdMhhBBCCCGEKCtyOmYAf/75p/v555/dP//8k1wRIj9//fWXdEWImRDvvfvll1/cH3/8kVwRQghRDDkdtczff//tzjvvPNexY0f3008/JVfFrMqPP/7oDjvsMPfII48kV6Yf6MqZZ57pdt99d4tHCDHz8Nprr7ktt9yyLHVfCCFmR2ao0/HCCy+43Xbbze27777u888/T66WDkbZU0895fbcc0+37LLLunnnndcts8wybo899nBPP/203Z/ZeOedd9yAAQPM6Vh00UWTq4V544033BJLLOFOO+205IqYmWAW4s4773Qvv/xycmX6gQ5fd9117qCDDjIdELUL7cebb77pPvvsMxvVFtNOIZm++OKLbrHFFnMXXnhhcqU4jz76qLWft9xyS3Kldvntt9/cWWed5ZZaaim39dZbJ1eFEEIUY4Y5HSwXOeOMM9zDDz/s7rrrLvf1118nd0pn8ODBrn379u6VV15xl1xyiRs5cqTr2bOne+655+z6/fffnzw5c0BHddRRR5mThCE511xVix9jc6ONNnKrr756ckXMKaDTBxxwgNtll12SK6I2waFklunSSy+V0zGdKCTTevXquU033dStueaayZXirLjiivZ848aNkyu1y5NPPunee+8917dvX7fgggsmV4UQQhSjTmj4a703xeG4/vrr3eWXX25G1UUXXeRGjRrl1l133eSJqmEGYPPNN3ctW7Z0gwYNspkOIDvvv/++GWqTJ0+2EbRVVlnF7tUURuc++OADW7/bqFEjG5GrCThWjIivvPLKrmnTpjYzkw9GAb/77ju32mqrufnmmy+5+l+++eYbN2nSJLfIIou4hg0bunnmmSe5Uxhk//HHH7sffvjB0rHkkksmd3LE+99//71bfvnlTa516tRJ7v4Lcv72229thmrVVVd1Cy20kF3//fff3YQJE8xZql+/ft53S4W0IHdA7jhpxIscv/rqK9ekSZOSO/yYL8oQQ2WBBRZI7vwLz3z44Ycmm5VWWskMoSzEj1598cUXrkGDBu7XX391a6+9tjvhhBPMiU6DfD755BPTF56de+65kzv/Qng8g0NKfmIeyd/YsWPNuOJ6IV2pLsgO/SJvxcrnyy+/dFOmTDEdLBQ36aT8SSt6hD7lc6R5BnkR33LLLZdczU8sX96JYdZEh6iz6CHr7SnvqJ/5oL2I8k/XN+oAbVK7du3c1Vdf/Z+8laIvhDtx4kR7l3QUq89A/eH5+eefv0LnpwXakY8++sgtvvji1g6WGh55Gz9+vD1POrJtC/fRW3SEMqVs88FzlAP1jbJEVsVkmiXqA/qDfGmTSnkn1lHyTN6zcD/ddlanLZ46daobN26cOVDNmze3tm5a2jkhhJhjCA10rRM6Vb/00kv7Xr16+QEDBvhgEPjXXnstuVsaZ599tg+dgH/qqaeSK5W56aabfOic/M0335xcqcxPP/3kW7Vq5YOh6IOBYtdCB+mvvfZa36xZMx86GrsWDHu/1VZb+dBp+kUXXdQvs8wyfsyYMXaPfASD2/fv39++A2GceuqpPjhEyRXvQ+fm27dv74MhYXkNHbjfcMMN/aeffmr3if+CCy7wW2+9tb/77rt93bp17blHHnnEB4PBB2PI0hUJHbc/6aSTfDC4TQbkM3TkPnSEFn8+uB6MQ9+xY0cfjF8fOlnLU+/evZMnvH/33Xd969atLX0x3IMPPthkBX/99Zc/7LDDfHAU/aOPPuqDsWHPIpPRo0dbWjfaaCMLO3TC/uKLL66QbTD+/H777ec7dOhg3yPBuPSrr766v+++++x7zO+tt97qDznkEMsjceyzzz4+GPE+OJg+GKOWh2DoFNUbwgpGgaVt//33t3SRp+Ak+GAIVciK/4MTa88SLnknzuOOO84Hw8KegT///NNfeeWVdp+wgjHj+/bt64PR4c8777zkKe+Doekvu+wyv/DCC5vOIOfgBJv8Y5zcRyfuuOMOe45PcJB9cLL8DjvsYHFEXaFMgoGXt2zffvtt00Hkkr4fDOlKehMMJdMZwg1OkIV90EEHVeg53HLLLX799df3t912W4XcBw8enNz9F+KhLCgT5EmYyA39DUZ48pT3wSGzOImLOJFDz549TY/ygaypj8iMD+Huu+++dh2ZUg933313+ztCvvbcc88KvSJtwbH3wUi0eINR6VdYYQX/wAMPVOgiOocO3Hvvvb5Tp05WL8kH4QcD18JA/6iHXCfd6NyWW25p73O/Kn3hmTfffNPiieUbHEgfDHm7n4XnKfsWLVpYmIS39957+xtvvNFvttlmyVPe2jvCGTlyZHIlJ+ftt9/ed+3aNbmS08E+ffpYHpA9edx2220tf4UgTNqlUaNGWd7IF/lH5pQ3aYTnnnvOr7XWWnYfGVMXaBN+/PFHuw+k/dhjj/XdunWz+9QR2vtCMqWurrHGGn748OH2HchXjx497P0oY9oEoK1q2rSpf/bZZ+07bSL15KKLLvKXX3655ZnnKf+77rqrIu3T0hYHh9DCpr2jfpAH2gDqXlqnH3/8cX/ppZdWtJtCCCFy1LrTQaN+9NFH+zXXXNOMsJo6HbvuuqtfaqmlzBjLB44BnQIOQD6+//5737BhQ+vEYodBx3TOOef4evXqmbNBWrnfuHFj62gx6ukUX331VXv+rbfeMmPikksuse9AGBhKGIKRESNG+AMPPNA/9thj/vXXX/e33367dWa77babGbLEc+KJJ1oHiTPWr18/60wxEDBSMMDOPfdcC4tnjzzySOuI6cRfeOEF6xwxMDGu6IzzgXFGZ0uHOWTIEDMsrrnmGt+mTRu7P2XKFDM0VlppJcvj888/bx0nacJg/uWXXyytO++8sxkLDRo08EOHDvX333+/OR8YAHxI5zPPPOO32247MzSQEWAEtW3b1jr4NBhaxBEdt5jf5Zdf3gzJp59+2sLEOGjZsqXl85577rG46fB32mkney8f77zzjhkfK6+8sqUbo4q8I+P11lvPDKn4HPlBJ8kPee/evbsZJsiafFOuGOXoFI4Y+nD99ddb3jGiotNB+fA3MiJPOAUYiugQcowG8ymnnGLywTjG8UBmpIeyR1fIN3Vi2LBhFlaXLl3MccuCIYSTjLOXNnJuuOEGSz9x8wx6jH6gK+QXQwz5YShHcKioi+gu9ZJ3MdKykE4MPPI+cOBAc+owjpH1FltsUZFHjHrSQFqIkzyRn0JOBwYmZU+YyI36QrlgwBImdYTwqEMR9AU5nnDCCfY9liXtA87H2LFjzRgnrbFuYOAi01VWWcXqKrInjdRlnGrKm2cob9oCDHrq7JNPPmnvl6Iv1Df0fZNNNqlIB7r38ccfWxhZaAtxUGiTcJAwXDF8iT/dlhAfdeHBBx9MruScNd7FWY2gm+gqRjLpJY+klzSlHek0xEv5U1/IDzqOc4yBffjhh1u+gDxSJ2l7KAvKDUeJcosQDzKnzv7vf/+z/JCOYjKl7CkHQEdwWGkbSAMypp7glAEypbyQB6CTyIm6TV1Dz3EUcGRw0ihPmJa2+IsvvrAyYSCL+BkkoP3J9l88w3jeSy+9lFwRQggBtep0YLjRAWH4PvHEE3atpk7Hpptu6hs1amTGcj4wMOg4MCLyUYrTgaGDMYcBjeGWpVSnIx+dO3c2w5rOMnZ0GBN0sIQRyTodGC/kixHEtPH20EMP2WhgOi1pSCtG4ZlnnmnxRQiD+BghJC8YJ2kwMLhOvHTK0enA0ATexbHD8GYUOxomlCfGCjMBUF2no127dhXGK509BjOGHjMUQDwYCpRhITBkCBtDOK0nyJKZGAwP8o8syRNOZYTrlBF5eO+99ywt22yzjTlWcXYAOaK/lFt0OhhxZeYGQzk6CTyX1ivA6UBm6dmgfKB36B8zEDh++YjGGSPrEWa0qB8YS9QFHAzKPoL8GJ1O6ylOB3I566yzkiv5Qddweq+++urkSk4P0F0Mb+o4EB66Ex3PYiBTyveII46o0CFAt3AqmLnBCSJ8DOkIhi5poSxjPWIG7LPPPkue8Db7ggFJGUB0OpBR1DGcBGYUMGqjnGOaqAOxjErVF0b90RVknM5PIR5++OH/yJQZGRyF6jodOJ/MROB4pdstHEPiiHU3C04H99GnmGbkwsAEhjy6nQ8GftCv6PgBdR2djDMRkXwyhazTQX1Ff7N5QM5QyOkgndHBAJwddIYBmkKU2hbnA11HZjhEEerHhRdeWFBeQggxpzJtC4arSejA3Nlnn+1CJ+Zat26dXK0ZofOxdbTF1tJWdb8qghHvgpHtgoPkDj74YFuPPC2ETs2OV7z99tttnTDrzUPnntx1dvIWe1yKpTl04pb3YNRW2iMQjAxbt84+gHyETtrWl2+//faV1kQTRujUXegobV16tlzYrMl77B+JsH6bvTRAWoOhZmvQ2SAaOmu7zvrt4OTYevKawOZ5woRgjNgpMcGIq9g4SjzB0LJ11cUgfXvttVelvSsbb7yxreFmjwfy5yCCYAhV2vuDXIKTYbJhwyj/s36fOIOxY88gx2233bbSKWTsReDD+8OGDbPDDoYOHWrlHYxBK7tIcELcfvvtl3eNOmvlOaGHMNhbgK6E+prcrQxlSt1CN4B3n3/+eTshLRjbtjafvSzIivTwCUaSySZdroBcKcdijBkzxvZMBCM9uZKTczAQTa7BAbBr6623nj134IEH2olFxUBv2UeCLElbTCd5Qf+Q3zrrrGNr+oOhl7zl3N13323lhr4gI8oyGP72TAwjONK2p+Cll15K3sqxySabVKzTJ9/oNXIizYUoVV+IjzpJXmjzqtLT4JhZvK1atUquONsrQd2qLuyhCM686Rcnq0U5UBfRIfYyFIJ80ObFeox8SAPlQN7SUB/uvfde01Ngf1MaDr9AB2oCeymCw2x9BToVIX3FCM65lU0EvWBfGnv70kxLW8xztKfIlhMYgfcjwflz3bt3r/HePyGEmF2pVaeDRpoOESOQzZvvvPOObUL9559/rEPEWCuVxRdf3AyEbEcYwcCjc6DjrSl0ON26dbPfSsBwwZDmNxnogKsDBgAbJ1dddVV3yimnuGuvvTavc0B8+QzQCAYDcWMIkP80GOgYOhif+aBjxZDI1xFi7HB/iSWW+E/8PE+8aUOMdKY7Y8LNds4xL5RtTUiHx9/5jI20MVKMbNoWWWQRu4YDQPowCMlnNu/ImGvIlPyjaxjFxcoInUTvMEZuuOGGig+GKmf6R0cK8uXr3XffNScCw+nkk0+2d6krxcAobNKkiZ0CR9z8jxGEo0wc5I8yxBBPp4kNy23btk1CycHzxfIH6Ar5QI5p+I7Bj5MEOHc333yzxU0aMco5MILvWQiT8sAQTKcRA36LLbYwp7Fu3bp28hsGH+0FcuGkukMOOcTKj7JE/hirN910U0UY/fv3t83QaScJyCufSFX5hlL1Bd286qqrrAyo7zjMPXr0KDhwwXXqEQMH0wptH+XPaX5pWfKdQQXasWKkZcLf5BX9j+X2+OOP2wZqyrRXr15WxvnaHWSRDqs6xHrEYEN1wsg+izzR1Zi+aWmLcX7JLxvPOeqdg1BwetMDCUIIIQpTdS87HXnwwQfNIMHpoNPic/rpp1tj3qlTJxuZLRVGvOmoCzkqnG5Fp8XoaCHoWNLGNGSNZAwpzmN/++233THHHGMnZR1//PHJ3RzZd7JG1RVXXGGzJXRQdHCMSFcnrxHSS3rIF4ZFGmTIJ+uMRBidp3PMN+JK50rnTJjZvFBe3C/VwC8EaedTlazKQTYO9IZ04KSRJowSjJx8eedaNCYxCpFRNrz0d8LkOUb3cVQx9OKH2SQcu0JQrpyA9dprr5nTgq489dRTZnQXgzAxbnnn1VdfdbfeequNMHPiDuAIkE+c53R6+KCT1QVdIa3ILA0/YIhxt8IKK9h3nGNm5EjX8OHDrQ4deeSR/3kP0GscsHxp5FhtDD3KgKOmiZvZowceeMBkT9sB3KcsaRtwsNJhUBYYmdNKqfoCzJzgeDCzwIwYx8SS7nygN9TPfMZ7GuKHdNzIIK2DlDc6eMQRR1SSAR/0Kc5SlgLh4hBS/5Evpz4xO8d3ZtCYPaIccAinJ8gYfSDudN6qC+0dMo1lMi1tMXXr/PPPtxk9nN7Ro0fbkblxtkwIIURxatXp4Ief6PTSH6ah6XAZmWREEnAE6NCy0/VpGDXFyGaULes4cFQio1AcN8qxuvmgQ6NzZho/jlQRX1yikgWj/dxzz7Xp/jgyRroJJ71cAScoO5X/+uuv28haurOv6S9Mb7DBBpZfjLh0Z8wRjqR/ww03TK5UBgcPQ4Tz5aPBwv/MNtHBs9SEjpRR5DSMTJN3lrVMC8gJwwSjJeYduQ8YMKBoOU8ryOiee+6p5KRhgJJ3jFOMJ4xzloqkHVhkzLIRDPo11ljDDAtkwExENAwJA4M47cjxDKOzlHl1R0B5niVfxMfMBRBHVYYoYDihz3369LGlOjvuuGNyx5nBTvrzjejWhGbNmplcMboifGeGhf8ZSU6DsbrTTju5rl272hKqfLOTLEVC1sg8W5/TUI9YMjNw4EBbekZaWIYElCVLeqj/cbZlWsDAJ+20M7GulaovaXCoaPu4R9nkg5kQ4sKwjSCr7JKwOMPCcbURdPLTTz9NvuWOl0YmOF44aNWBfPBeLAPKiuV0hEd7R5qYSWKkn6V7gH6mlxcVI59M80HbjbziclLgeWYqisFgE+mLUNf5ziwjTEtbTPuIPPkNKPIAOJ/ZfNDWUCbF9FgIIeZEatXpoLFnj0D6g+FHA45RvGbyw1AYuhgTxX6Fe7vttrMZkxtvvNGWV9BRstQCY5xOgY6mX79+Fb/fkQVDmzgxnDBgWDLAGt70UhaWftG5MiqGMc5INUYDhj+wdAsDgzgxgDA6GOHOdjbEgzGJgcr7jJYRVhy1rA4YXCy/4Yz7K6+80mRF3Mcdd5wZqhh3+cCo43x8lhOwzpzOnN9H6dy5s8n/6KOPNmOZUUyM9Hh/yJAhrkuXLpXWr9cEnA5+OwWjhd+04Ne2WapA+JRFOUEvDj30UIsT55bRSZYVIQ8cMWYJMBzIO6O25B1neMSIEbbECQOINJJ+liThfDJqzG/NUJbp9GMUdujQwcqaMsJoRHcIF0cYY6sQpIU6whJE0oCTcNlll5nRVxUYhczqsYQRwwinPIJeMNJOXcFJZ6kXYbIen2vVhWVKhIl+oEvIl+U7F1xwgTk7cR8C5ct1nHDywyBDlGUW0o98mQngV9hJI3JDFwknOqboKmvmWXZFuOw/iOGhY8yEYKTi4OBgY2RSVtdcc4052NWB8sBRJh7STj5L1RccH34IlDYBR4I2AmMUncsHgwU4rNRplpjxoT1iUCQNy+5YaoZc2TtDeZMenKEI9Zhr3Ed2yBF5MtPMrG1Ve9OQP04SBvvFF19sM2+M7uPU0uax9wv9juGS91KdjnwyzQcOx9Zbb23x0GYhY359HD0uBk4J791///3uvvvus1lpnLA99tjD7k9LW8yyNJx3ypxBHsqIJXPZwQXqAe0tDpAQQogUofOcoQSD2U6W4YjMSDC27IQrjmwtxtSpU+3UoNAZ2pGNoeO1E4E4DpVjbf8pcvII9zh1heNGeYd3O3bsaKfhcGzslClTLHyOKuVeMGwsDk6ICcZDRRictsQJSjEMTrYJnaQPBqA9AxyTyffQ4Vpa+W0AjmLkdBbiCU6KnRgUHDA7VStN6ETtaGBOUokEw91OUopx8j8n73DKU6E8c52Tn9L55bSYYLRU3A9Ghg9OWiVZBsev4hSm0LmaPDgGNE3owO1kJmQRCYaN5Y8z7yO8z29DoHbIghN3OFmJU36C8WrP5MtvMDgtf5xkk4bTkYIRlnz7L/FEHE704ndTiJM8bbzxxpV+r4C8BwPCjs6Meae8SfvvqZNz+PuYY46xMAiL53mP8EhLJDgWPhif9kwwUiwswgxGasVpSegt5c2JORHSwUlLwTCy59EV8sypU8HZ9L8UOL0KeDcYohYfv6sQyyyCDDlVLRhXlh6eIw7KN8L7iy++eKVyzAdxodPB+bbwCIe87rXXXhWncwG/dUEeYlwcxRqMTXs/H+h+cBbs2ZhG/ue41ig3QGc4PYp6mj3Sl7CDMWvtB2niff4PzlxFvjjZKhj4FSclAbrJSXf83s3Pqd/aoJ6iE4QRT17jelX6QhvBb1BwP6aB34qJbUcWwkQ2wfmqiI/0BGO50ulVPMexr8G5tecWWmghH5wEkz3tVwRd4eSvtBz5nxPfYv6yBGO64phd2mTSgK5zoliUP/EHB8DkS5g8T/3iOGhOvYpw+hxHx9KGpikkU+o9bQ+/EQM8hz6g/1HHSH9wEux+cBgsjfEUxHh6Fcdsoy88SxyUUXA67RmYlraYsuWEvphvymrw4MGW7tiOAr9PQtjxpD0hhBA5Zsgvkk9vmB5nhIulAIzyMSofOpXkbnEYQWUElCVELHHIjniFzs9Gxpj1YF1wXJKThqUcjE4zAsmoWr5RM9JGPKETtyUgoVNM7tQMio08M6NDnhkhD51scrcwjLQzSszoHKPVjMynifdJLyN7zBTly09NIV6WzhEP8o4nQZUDljgwM8RsQTC4Tf6UHfHmkz9LJUgbaWRJUlw+koZZLGbD0DnkF9eKZ0FvGO1mpJpyYXSYE3FKIepkMFxMV9CZ6QFpYikg6QqGk9UTRp1rCqPb6D3Ly9AT9CWdVnSUgw9YioQMSilv3olppKwY2Ue/qwtLfkgbZUo5ktdsvS0VltWQHnSCGZlIVfrCdXSFk5J4j2eqgmeZTYttCbMdnETGtTTMGNIuIfNiSx/jc8ifGZhi9ZmZEE4uY4aEWTPyxowD6Ui3LZQRp55Rrug0ZVTdNqKQTLMgQ/JOfSvWHrH3g9kiZqGZPSXtlA86x/K2NNPaFpNv2l3qP+WUhvrOEtx99tnHZpVKaZOFEGJOYbZwOoTIR9rpYHmVELMSNM37779/XqejHKSdjmk90ry2STsdHIM7I8CpP+ecc2zpFkvHyjmgIsT/27sLeFuLqo/jj6/62t2BionYioqBSlggKhIqJoot2IUNKpiYYIBdoKJgdyd2YKBid3fvd76LPcfn7nefwzn33n1F/f8+n/3hnmc/zzxr1qxZs9bM7CGEf0c26W86QgghhP9EJImOiXZ63MY4+jiEEP7TyEpH+I/F9go/7nUyly0gIfy74cfatuw4nGDR2ELqOFk/1N+QbXf/Chye4Afhfug+/h8shhBCOPmQpCOEEEIIIYSwULK9KoQQQgghhLBQknSEEEIIIYQQFkqSjhBCCCGEEMJCSdIRQgghhBBCWChJOkIIIYQQQggLJUlHCCGEEEIIYaEk6QghhBBCCCEslCQdIYQQQgghhIWSpCOEEEIIIYSwUJJ0hBBCCCGEEBZKko4QQgghhBDCQknSEUIIIYQQQlgoSTpCCCGEEEIICyVJRwghhBBCCGGhJOkIIYQQQgghLJQkHSGEEEIIIYSFkqQjhBBCCCGEsFCSdIQQQgghhBAWSpKOEEIIIYQQwkJJ0vEv4Fvf+tbwqle9avjjH/84vRLCfL73ve8Nr371q4ff//730yshhBBCCP9+bNKkYzKZDN/4xjeGN7zhDcPrX//6dT5f//rXp3etjb/85S/DO9/5zuHAAw8cHvawhw1PeMIThne84x11/eTIb3/722HPPfccXvOa10yvrMxPfvKT4TGPeczwrne9a3olnJz48Y9/PFzoQhcaDj744OmVjccPf/jD4UY3utHwtre9bTjlKU85vbppOProo6tP/eY3v5leCWEYPvKRjwyPfOQjh+9+97vTK+vHK17xiuHJT37y8Ic//GF6JYR/X573vOcNZz/72ad//fdicuyggw4ajjnmmOEf//jH9Oq/jrX6q6997WvDVa961eGsZz3rsOuuuw6f+cxnhr333nu4733ve7Koz38CmzTp0GgCmd1222244x3vOOy1115Ln5e//OVrblQB+U1ucpNhp512Gp71rGfV6sEzn/nMYccddxxuetObDj//+c+nd548UL+XvOQlwy9/+cuS93SnO930m+X55je/OTzjGc8Y3vjGN06vhJMTf//734ff/e53C1mJeP7znz/86U9/Gh7/+McPpz3taadXF486HXbYYcPTnva0WmkJoSMB5mO/8pWvTK8sD3/34he/eLjPfe6zzqru3/72twrSnvrUpw4/+9nPplfDojn22GNr3DWZETYu/HRWo4fhRz/6UU3A6ffGkX81a/FXeOtb3zqc7WxnGz7/+c/XhNs222xTk+Lbb7/98D//k41BG4NTTCw/bCIYoazxs5/9bAXfpznNaabfDMO5z33uauzV8utf/7oSC2U95znPGW5wgxsMZzjDGcpQbEd56EMfWteOPPLIVQX3mwKDLXkuf/nLD5e97GWnV1eGM/vqV786nPe85x3Oc57zTK+Gkws/+MEPqi3vf//7D494xCOmVzcOr3vd64Ytt9xy2GKLLYZTnOIU06ubhu9///vDr371q+FSl7rUcKpTnWp6Nfy3I0mQiF7ykpccTn/600+vzoe/v/vd7z68973vHT796U8PZz7zmaffnLjF1CoH+9rUq3j/rZjYu9vd7jZ89KMfrTEobDxMDD74wQ8e/vznP0+v/HeizwvwrRSc//zn3+Tj1ixr8VeQNPFLm2++eU0mnnDCCcMZz3jG4SIXuUiSjo3EKR9j784mQn5j2U0wI0gTSJ/znOesz1oTA9nn05/+9OFxj3tcDWwSjv/93/8dznSmMw1Xv/rVK2g64ogjKkNlMLNIAAyGDOxc5zrXUuewzcuMkC0zBkP3vf/97x9e8IIX1LYw22mUR15GaWvXqU996nUSJlnycccdV4YLjugTn/jEcNRRRw2f+9znaglPuf0d9KKjekbHeO5zn1v3GpD9/YUvfKHq1ZdvzSC6V/1e+tKXDh/+8IdrO9lmm222YoDIIXzsYx8bDj/88ApoDfznOMc5lmSX4HzgAx+ohND2ry7P+c53vvqenIIHunX9ZS97WQ1kOvaFL3zhqouZBfK7T/sqH2SmV51YvTtmQG0d037qaLbI32b2bcU75JBDqp10fHJwCi984QtrVUviqS20+zyU9b73va/s64tf/GKtHLA/79Q2Y12xg/e85z1V99e+9rVlB97p2bHjJL97XvnKV9aSrTYxq3ONa1xjuM51rjO968T7yKh9Pv7xj5eNXOACF1hyXBJJbe66VS8zLAIBOtRGklMJtXvoXdsuF5xpV/q2OqHd6E2CyvH379mQtvL50pe+VHWT6C83KNCzdu42anXu3e9+d7VnT/S1k+8ueMELLsmmTazKkYU+tQHbUE/o+77XhrZBagvtqr2/853v1HK44JRt+Ri42BH7ZpvK1Q/p3nX36ktks3VRvXud1PuDH/xgrYjSPbyDjl70ohfVu+Ad3Rb0CX1V/2Yv+iFb6Xbc6X3BrDHZtZcy2RkZel8lm2vsji2oMx3QSZ90oSM27hn1MDPnOf1f3+JjtBu7/PKXvzyc5SxnWcdnzaJ8dm8LE7nI2ftxf4aNsGPl8kn0SJ/Q1vwDP6EceuyDrtVjfYM9dvnZN//YfUq31be//e31YUeet2rL17C9b3/728NPf/rT0gOZlvN/3YbHKOfNb35z6ZNeJf50zn/M00n3Mb4bb4EhK9kvfvGL199jG//Upz41PPvZzy5b8Aw/QGdkY3/skewr+dvuU9g6OfUpOiansWOeTMplCybPenus1pdow95ubM49XX/GCHVTn4td7GJlt9qo2/UvfvGL4U1velP5Mv/1PbnY2jydQh/Qhr0/82HqyK+oI9jOhz70obpPP+vwE+RhD3z/PIyb+q+yjffambzqZKzqfpIvdt+sn/RO9dZ2dKo/u887+5gGz7FHZXnXJz/5ydIt/ff25TO7/zS+k1k9extoF/3UVh6sRb7u7/RXcvV27xg7jz/++LJ5ffYtb3lL6Vn7Lqc7sAs+yfvJT29kVh7ZBOPK6O2rb9NTt2ttx9fTPdvzHbvl78cTxmPUke35no/661//WvGTttQf6Jct95ihr+D3mIb90TF7Jm8ff31vDOsxBz/IR6sPOb2DzvkaK/Tqe+UrX7l84ay/0rfEKfoJf0wutul7fpc/pDP9XHl0NE6g1JEP0tfIy0fSSx/HwknQFLjJaA06ueMd7zjZeuutJ62hp1fXj7vc5S6TNnhNmvFNr6xLc+iTFoxODjrooOmVdWnGOGnOd3LXu9615EIz7Mn+++8/aYY8aZ2irrUAZdKMe3Lta1+7ZG/GN2mGX9+1zlUyPPnJT66/oYw73OEOkzaQTa+cWEYz6EkLXiY3v/nNJy2Qm7SBY3LooYfW963TTB74wAdOLnGJS0yucpWrTNoAOmmZ+aQN2JOWoEyaU5occMABdS9aR5k0p15yub8NDpPmyCa3ve1tJ61zT+9aF3K14LZ00gaSyWUuc5lJcyyTFuhO75hMHvCAB1Q56n/FK16xZGxObdKCnfq+OZCSvwXX9X1zjpOLXvSik9YZJ/e73/0mD3rQg0quS1/60pPmjKvs3s7NIUx22GGHSUsI6+9O67xVv+aM6u9e3913373qpywytM48aY5v0pxHfZojqPc2J1/PzaM5rklzfCWbMrRJc2JV74c//OGlE2j/O9/5zlX35jgmV7rSlUpP9NoC07oHbWCaNEdZddtyyy1LPm3mv+P2aU6r2pB+9t5778nVrna1av8WqC+98yEPecjkCle4wmS77bar+8jWBq7JwQcfXHr3984771z1JFdLsJeenYWt0w+51aMFeJOHPvSh028nkxYMlJ2S+Z73vGfZvbq1JHB6x/+HfGy9Bez1dwv46x23v/3tJy0wrLbVTq61IKXugfLp7ha3uMVkl112Kd3097DNnXbaqdqN3dCluj3sYQ+r71tAV/ZDJ23AKR3QmfZRHzpkQ/qXd9N9C45KL1e96lVLphbMVFnotrXvvvvW3z/+8Y8nLZCtsumJHdP12Ec84xnPqPa4wQ1uUPextTbITb/9J+O+oMwWyJR+2Ya/WwBb933mM5+p/qZPqfvlLne5qv+ee+5ZZYCdsks+QP3Vg571HX5HvVtSO7nxjW9c+nRPC3zq2VmUuddee1UbtEG33sn2tVkbmOueFjyXPPRPD1tttdXkZje7WX3HF93qVreq5/fYY4/JTW9607IDtg9tpKyWyNTf7II8bM972dYTn/jESUsKy8YMMT7qrN+xRdzudrcrf8gPr+T/ZmmBWvlPMrCF613velUuPbXkbXrXurSgo+yfbx/TgpNqt063cX6UzvRPf9MVH977qbZiNy3gmD45n/vc5z51n3ZTJpm1I1/YArzS//Wvf/0lO0ALlspm+SesxZfc5CY3qbZgf/TNx7dkou7Zfvvtl9qit8cTnvCE+o6tkqv3y+6/1bUF+nXPPLSd9tKHt9hii7pf2f6r/dGCscllL3vZkm3MRz/60bLllrBMr/x/DjzwwGpb9VcX79HmWI2fbEF6tR29aUf1Up5+3e0XLYAv21Oeca0lNiVbSwjq+5Y0lS2zV/ECWZR39NFH1/fwXn2msxb52Ab71HfGsURHG3o3P3LDG96wxlB69u+WpE7vWhf9xDjgvfq4dqI7fa0l4ZNtt922fJd/d1rSVPXiU9F9F9vjB7pdjMeWWbQ3u+4+l+x0wL+oq77rw9bufve71z1g9/SuHe52t7uVzRhDev2MjdpAv+Rr6MvfLbFaegdfp+/wHXyasWDWX4FvVQ86pSP/5gtW4zvhnS3xWrIX/lF9dtxxx3X0GebzL0k6OO3ddtutBrf73//+FTTpDGuBE9XwPSiaRULAYPbZZ5/plXXhMBmd5GWcdDz2sY+tQFXSIUjSMXXWbvwtS65n0d/xpCc9qf6GMgyoHEhH8POxj31sqQxOnuPQiXVSdRfwM/7rXve65eiV47og3EDSB0yDlQ4pMDn++OPrmjLokVM76qij6tosAi715ah6QOQ9RxxxRP37ve99b73HQPnb3/623i/QIKfA63vf+151Ss6H4xZcKse9ytRRDYiSQPqUULl2zDHHVPkGWsGk4HAM3XAghx9+eP3d6+udb3nLW+qdn/jEJ+oaB0gP3smpGmh9loMs2sdzEid1IjPn4Lr2c03wwLEY5AR6rn3hC1+owVsbsQV1usc97lFBCl25h3PmTA0APelQT0EGZ9QHbNckUcrrQfGDH/zgau8b3ehGJZO27u9lK90mvVsdZweIMdpesqSNwM7YCThkgS4H2q9537Wuda1qW7YzD/IZbHr/4nTVUx38m7wCXwO4ukHQx+7J0+tjQCe3fwuU6Pmwww6rdnWPgZ0+wWa8g8MXGHvGPccdd1z5jEc84hFLARrHr84SSrrab7/9qk0/9alP1ffQrmxQkk4GSZDE4Fvf+lZ9r10MyAbJPskgKNCP2Cob836fWXpfMNgYxPQvchx55JEVsEjAPadc7+965lP4HHro/Zed6gPkf8Mb3lD1VpZ3CEy6vFCWwOApT3nK9Mq6eOcHP/jBKlM5kNQI3PoEi742Tgbd19tZgG4w7xMivtOGXe+ue5aeXbvlLW9ZQUCf7NB/eqDLHgziAll9pfctCLTovScdy/m/WbSjxKX3I/Ux8cA/sJN5qBN98+1jnvrUp5Zv6HQbF0ALNL1fYEku/f6QQw6pvqU9BHNsZDkkMJ559rOfXc+oD32zY0kZjE3kEnB1nve851UwQ5a1+BJ2KJHVjuR+/vOfX7b/kpe8pO4hg4kd7+NPtQ3d+ehD9PD617++/va8iQTXbnOb2yy1/Rj3CSz7c55xjb2q953udKd6jt0L0vncMZIOyVMfH2Yx9ujfu+66a/kr+qP3Huivxk+qA11e85rXrD4A7+Wz2BvI2GMSbeY9dEMuiRN9GgPIb+yHdxnH2GpnNulYrXyeMZ53f9fvH6PNJQQ97iDzox/96KV+OA/tr059ssAzfXzwfrJvs802S7KAbyFPTzrITCfejz7WC9S7LLNob0nFve997/qbLzAm6J90xAf0cvShDr/CNukN5OV36EQZdKQfiBdcM5aZ/CVjfwd7Mg6Tlx7dN/ZXoHN+9nGPe1zd5z3Gn3e/+91lwyflO9mABF2SIylzHx3yJd5v0qo/G+azSTepNcc4tIx7aMZT/7ZVyZJiM8A6yaQ1+vTOk6YZbi1lNacyvbIurfPU0mcz8umVteP51hFqebsZe8nXOk8tOa+FFuzXli/ltU5Z/21JQy2vjuVTdusktUxHP+6bxVJ16whDG0CXtgW0TlS/lWmdq5b65mGZ1FJhC3iWlty9Z4899qh62TZw5jOfucptAVC9vzmPOmlLOzXnVc+gDXi1JUg57nXKA1n9ONTvD1rQNrRgvL5rTmT61Npog9bQBtxa5rUf0/LmVlttVcvXym0Odbje9a5XOlwJcj3qUY8qGdWJzC3gqaVYy+TN6dQyaXOAQ0ukSofua05uaAFp6bo5obrfdpwWwA9bb7113dOC8trLS2+dNkDW1ozrX//6ZTstMKhnt91229K/f3eak6ofiZOJnP29bAVt8FtqB+Uu1z/0A3Zl214LLqpPtMCxvrOM7rq6aRfyKJN8lpHJtFo8T5dt4Cx5WzBRS9iW/vv3+h1bYzNoDrvko2fbAlqgWTanXZXRAoJqxw7Z7fhsgWrJ6R5bU9SrBbilE3VogU3Zv+0iynbKF92O7d92B23UBvvajmB7wA477FD67u1ClhZY1CklneYXa382G/N+n+XQFyzTn/vc56763+IWtyi5LN/r27aD0DW78rd3ksd/28A9LeXEd97udrcbdt5556q3sujIoRjaX/35PP2Ajsk8D7Je+9rXLrnaIFl2wV+pi2fagLi0jUDf7P7HVgjQv/faLtIG85JFG7o2i+/4Hm2tj2gH9dQ28B71cJ++0PvWcqzG/7Elbe3eNtiXPRhPWtJT20M2FPLyMS0pr/df7WpXK3vRLve4xz1KP2yY3dqqNw86tt3Mc+yLjm3puMQlLlFbm2xDAh+pHbrN6t+2lfGh+tVafIn2s63Ef8mtbO/vfZPcPtAuylNXOmzBZp3Yw9+65vmddtqp3tuCtLm25lofu29+85vXM561nZnsfjei7PXFViL11RbqwR7o3e84sVo/SS4+Vn8A/+0+/gDq4aQ+9fWj4W6r2ts2Ivoz9juwRruSSV9Qb9uBlmO18un3LemrGME9dDiL9uK3jDN0yp5s51XOcn5AHdynH3uGzMa4tcB30Qm7UQf1Z/fqwJ7XAn05UIIPMH4bg8f+Tx35D1uz9GXy8jt0Qs8+xuOuJ+ObMsjYEVs6wXTsd8boa7ab6SNOo3Kf9xh/tttuu7KVk/Kdtm3Rqd9G9TiWTxJ/bbbZZuX31SMszyZNOjRqy4ArGLDX0Z7OY489toJJe/fXYsjdSBnHPAzSjISBry8M0mlbymKMgh77o9cK52BfJEem03JGAl0Ox6dDVkHSShjcGXlPODocM0fzgx/8YHplXThPHXH2OejkAlOD/WxCxVGSvwcn6ANTR8f3N311yCg44qTXh7Hz5fSUN+uQvXc1HXzWBjgHsrI39kNngkbyjrEPXb1++MMf1ns4SQPfuJ5kG8tlMOOgX/rSl1Zy0j8GPu9ikx26JssY37MNTtrAwl4EJWM7mcWJNAbIXXbZpQZl/aq/x75e9qvfjeUR3Gn3ceCyGsbt7t8Gwt4H9UkDqP3L5Pbvn/3sxNOJ3EM37HtWz2PodnZwFHixPwF9l99gqC8aUNX1Sle6Ug30fvegXtpKgi4gMmgYKF23n3isB78Hc33se8hAn6tBXcb2wBa0qfeTTbuR/9a3vnXpxDvZApnHbUqX6jDWL5Sx//77V6LnWcGkwXAle1AfybDg1DPXve51a19zf0Yi43Ove92rBlv7ktkI1NvAbU+zZ/27t+Es6ioJpV/y0bXfMIxtfC2sxv/BJJAAhA2QkZ1hHMxtCOM2YNM9OBnD99DzPFznb/mV3m79I6iSPEIAzOcK+mGCwyQBm6SLtfgSMo/lJq9P75vLod0ll/z8bB0FX2T1/Sxsgo1f+tKXnl45EWWwId9tSPBl4oJvIdc81H01flJQOK4XHWnPrjuJqr4v0ZuH3z3QIZ2P28Bvy5Zrf6xWPn3IpNpsgDzGM2zDRJxk2PvZCP0uZ/PGAgmgiQz/lSCelC3M4r0makzYdd8lTsNa+/js2D2eqAN/JC4SvEuw+PH+Dv1Iu0k4VoLfnX3PGLYugTRxY7JkHiflO/2WkCwmD8aIA3pysrH80H8q645wmxgdjYOSaer8a3FSnLWAdrlExUwQI5s1jllmncAsZiUFL1YIzAyb/THzuhb8cFXQAZ1qv/32qxm0tUJWjoPexgPMmNmBo7OSw1GuDr6S41uf71Z6Zq3MK2tDylfnrkN1X06f6Dr1jM9K7+33sJOHP/zhSx9nlwvk+grEPMghGbj97W9fQUe3ldmBfRYzqIIV7+H0zAQ//elPr+84QIEx+x3L85SnPKV+KNdnADcWZCYLpy3AN6FgdghrHag6bJc+HD7R5XdSmNU5K24SUt/f9a53rdUrqxZWVfgG9da22gR8zVgPAnoHMmivjYV3eaePH6UaRAXKfIBT9SQOq7FdAZ8B34/2+Quzc/vuu2/Vdzn4UPdJBgRSks2HPOQh6wTzViJM+tCfiQp6cx/IvM8++9SPnM1+u8cpgMvN6kvCTSJ5hwBN0uvHoovCoC9Akdiamffe29zmNtNvNz7aaa2+R/vrd3Q+tjUf+vSBxIUt6C8CKzPu2tbkFDbElywn9yz9Hcv5v27Hs6jfST23mvfPQ7nseLnn19dPzqPXY6V3wYrVuA3szNAG89iY8oFtsAl2IrG3CrvXXnstO9ZDv+Z/+Q4BMRn4hfEkk3qvhPf53xtIMCUv/UTQRWBVg8+xWkcuqxgPfOADyw56zLOhKFfbLFfWanxnTyiWK2OlpCecyPKR1iaCIfTlv7UYliVcM35mROZhZYGBydDn4V0MRCccd77ZmV/3mW0x0yGYkW0fcMAB9Z3nfT9+xjtny7CkJ0ky2yBo0IHNbqwV7zL7Tl992bxjZslssCBgHmYBdN7xNqkOp2R22Yz+7MqE+7WN7QwbAtm9Z1Y3faZ6kcwmXGY7XDPoa0MzFGYV+2xvR6DINvrKiNkRA8C4PP8ey69MS8j0aWsa59k/Zp9WmuU3y2IgM2PfbUUZy832jTFzxEmbmTKzZiYO7JV8gv+xLD4CRLN+GxPtrG96v+Tc9jczufQsSPL3WiYXYBsXPQu+Zuugf/fARwCnjQy23m/CwLOgH/Znlmu2DAPr+tr3rO2S06lIVs7YgZN9zFbbgmUAE4iYQaOnk4Kdvv/976/Bz+ybBErQsZINeZeEiy4Et2ZEb3WrW9VK6BhlkMV2ACsFkpCOtrKKYIbd92b62ONyqKsVEVtqPPfoRz96+s0/GfvYDUGiLAHSxhLGO9zhDrVasxLqw0b4mjF9xWFjQ7d8hndKGmftTV8EuWzT4Lfp10lftt3SJzbEl8yj29y4LfQJts/Pj/0arJLqs33r3RiJq742u8VIGRJDPpV8dMB3jlfK4e/lbIKcxkdjkTFplg3xk7PoF+rhZLJ5CIa1k6PLx/r3sSVrHhtTPkjq2bzTt2w3s7It+O9+bznUy+qIYF4f5w+0Kf1qE+PduA1m+4fT24wPVh0e8IAHlL+wpWhReBcfR14TNP7XB/qo/iDYN6mxIbB1cRibmrdKtRrf2WWZtRdjmuRMX6XbsDybNOkw8/iBD3xgKbgzYMum7Rs1C6CTwKCts9jfuhy2WnDKZhCU2Qd/xiRbftnLXlYzeJaw58EAGZCZSIGQ5/vRfx1G6JrOqKNyojpGn2m0PYbD7keDMkbBhf2oYzgH33HIOrmOP957vhYs93GEEh/OHRw4B8Hwzf7Nw0ypgcDvLvpgK6g2a9IDEJ1GctWdj3ZwRF/fi7wh0Le28E5OlB5sFeNcZgekjYl2NXOhHaGOAlKDqeCYXH0mV9vRIdkks5y87RFsU7tzuFa7zKbDXnaOaZyoGaDdz6Z7+6A7Kv9dDjbmM77HMyf1uxgrcezPs+QUqPgvBOUcoW2C4/2/kj92uNzAvz7Qrf4MNk+OHnTQs1UG9bHtQB19/Lsv2S+HQUA57hsnLLZ9GIh6Hdi3LUoCaPtu9QU6gcHGd/qmrQpj2Pls8rBa2LCtPn2vNhti4warXn8ydLmt6JrRXs37uuz8pX+rJ1+zmv7SAwofx3KOB2w+T/IMbWM2tg+UEh26I59gi09WBzOns/C17Jz9k08bq3P3j64pm9+nn40BWdSJ/SqfDCaYVkKArP0FFH0vv6DQat8ioEvJkP5mxbGPd3Bt/Ds0M6r2ovPffItxrScTG+JL5tG3Qmrj3me0l20tbKJv/9H2xl6TBWbUjbOzSN5tHZKU+njGR/+ynVDfYwc+En91Y1fdHo3vY73M0pNriaXxynNWTP2t3X3G9V+Nn5yHevDx+qSk2Xu8z//gjp+3Emy8leSObZge503gYWPKh+5DehyiP5nIHPvCMdpB4G63h/v1S/23+2H/lQCRif+Cupo4GOO96tD9Dxs8qb62vhg3+MYuL7skp78lb9rJ76T6iqvEQezCllcLe9p9991LL71f0pV301dnJd9pUsDvDcliHHEPH+SYcz7VFvzuS8MyNKVtMpwi0jpwHZ3m9KlmTHUyyAUveME6NaDjqMQWNC2dgLAcTlZonadOU1JWC2qq/Obo6lSh3y1zMg+asU2aodR72oBUJ+a0QLROWyFfC6AmzTjrhAWnr+yxxx51qklz3EtHyDbHU6fUtE5SJ7E4pYM8LRCt0w06bYCrExRaADi5173uVSctdFnbIFSnJjgykh6cxDDGaU7eOT6StTmcOg2CvNttt10d2daCgzqdRVnzIGtzKlVf92+zzTYlk+fhuZYAlC7J7nt6JFPrlHVPc3J1TKhTOMY4vcT7nQbVaQ663jM+Xq85iCqPDNe4xjXqiDwnQrmmTphX3xZQV/s46WlMS5CqrZajOdQ6FchxgS1BrNOaznve85aszWlM7zrxxI02gJYttkGmThhpTrqO7yNPpw3M9Tz5teVZz3rWsmP3kaXTHFjJ5d2O/WM7TvxoSUud3AF6oR/t39EGTvjo7eJkJbohv9PKlrPnHXfcsXS56667ll7J14/DhCNf6ZQt77nnntWGbN47msOc3rUus/Lpa2yjn3bW8c6WTNa/W6JWJ9eQV529gx5cRxtUqg3omS60qbbop789d87xhmiDQB2jyB7pwYk6jrRVJydadZvXpw899NAq3739vR32sPnmm5d+nTzl5CVtp1+zMTh9hP7GJwrNQ19QBr3rz/r9VlttVe92MkwLEOo+JwW5xzucDOf0LCeH8Rn99Kg2eFVdnDgzhq2wL32dX9p5553rJB026MSiedDV3nvvXXVUP5/NNtusjpHU7r7na3zPbuixDcZ1AhecfqcNyKht9Rt9ogUc9f24jfRxvoCdaG/tqVwnNnX4Bvpkx065agF0Xfc+bfGr6elVy/m/WVoAUP6JTtkEe992223rpB4nPi0HuclBVvbJNtn42H/Ms3F1JBedjuHH+fyVcLQz3bILJxrqb9pytp3ZfwuuSjb1G7O+voQeyb3ffvtNr0zq9Cf1Nm7wX/0ULeMy+2C72tDJTHRlDNA+y6E8tqGOW2+9ddlCS1SrnvTW0Qe8k79UprZzchdf0e1hHve9732rPdgJe9Sn1X+1ftJJWmzVSWSdlrCXD+IHO/q6PqI84zL9sif+HuyBrOTWn5yCZ+x2ImCn+w1siHzzaMFs+SltTG9OieRj+IyWSE/v+id8k/qRmY/iQ8jGBvV/6Cvaw/vpg12KW9S7BfR1j5O+tJu4Zt999y3fxQexx5Zw1T2zqJt+wdeBHeqvYosxb3zjG8umO/oXGci7ww47lO7ucpe7LMkr5lJfMtMpGcRlJ5xwwrLvwOyYYrzj89i6cYvNsl/ttRrfife85z11wqmxSzvw/8pwoqc4K6zMJv0/kpsdkFFbmZBht8atWRYzDWZjO2ZtzTTLxi1TLwfRZd9mUGSrZgDdbz+5rRXN2KZ3zqcZUW1fMJNkNsw2i2bMtZ3AfmYzfbJZM2S2M5nxsCWlOeaaBYAs12kkZu+9WxneK5tWRr+HfLabNCda2XBzIDXD2hxRXfNvM+eW3v3dMbth5si2qa4LMxxmfcwwma3wnX38ZuLHz85CDicwqY9/WzUx+9ycaX1vBsVsj6xfGyjPlhZbdEDf2o1M5O60Tl/L7PTSda6tzZ61QW6dLV9+SGkPvXdZntb2ZsG8g+7n1bc58bIbMyBmPTpmILS/7UTz0HZWeNqgXrNtZtXbwFX7Y9ndWFe2p9knbnuSWVRbYNhRGyxqtgXqb3XAb3TMWNKf/fragG24t99nBsZ2CbNb5GaPfgRo2wDb0d5mXenR9x3tQg62YiWtDbK1mmYWSHuwyVnMuLEF2/88Y5aR/OoKbUEX5PHf5rzLzuiNnnv9xszKp72UT49WFDrKYyvu007snH1Z9bAlga61bX8HvekvTp3S55wKw26a06736WdWJMyQj9EmnlEHM8VmgR3uoI+x316+WUq+Q3nKHesWZsrYN9vUDuxJu/ivMsxWaU/1Wcl/0KmtM/RE91ZX2AZ5/OaAPYBO9A02w8b4D/VzrdeTzftRfBs4l57r9JURPk77e56eWjCw1C9nsfJAT1ZFlGl2TxvBzLm28Z1ZPHVm5/yAbQT0zAeok3LM7GnD3hfHbdQG3VrVca8+TCZ1Z3td73yVGXM+Vv/2exH2Q1fKp+feH+b5v3loH1svzHaSvQUhVR57Y9vzIId2J6t66ld8MPvt/mOejWtn/kjdrPh2yKBtVvptXgvAymaNDe7lC9ks/ejTHf6TnyCX1eA+tmB9fUn3v/aj25ILs7r8Pz+oXFtZ1BV0SU7yKoM9kFW95/kHKIMP7v/TQeO5tiCbunS8lyxWT4y5+o2+SdfskR+YB5tlo+quHxmLrNy6fzV+0sqEcZK+ur7JwlbJapWpX9OebNT4xo74UH1HOerpOtthZ+yersnS+2D3G7YXYn3lm4f3i0n4EPq2Mm/cYQ/qME9//Kz2pD++ULv4QTnZoc70r0y2YjVZXyePPugZOmf72o1f0G7uoQv9vyUyVdYY5TocSF+nG2Xzbfpl1zd63dkY9H3tzM/p/1bRxAZ9HCALv27HAls3frMHcaPv5r0D88YU44cxynZk9XnQgx5Uben5k/Kd+oI6OniHPfDjfDZ52QS7CiuzSZOOEDYlPemwjcJWuxA2FuOkQxATQgjh3wP+2xY/yZlJnXkJVFgMm/Q3HSGEEEIIIfwrsCol0bDybNLI6lvYdCTpCP+xWLK23D3e3hXCxsAyu20SK22vCSGEcPLCVjWHxNgC5yCik9qGHzYu2V4VQgghhBBCWChZ6QghhBBCCCEslCQdIYQQQgghhIWSpCOEEEIIIYSwUJJ0hBBCCCGEEBZKko4QQgghhBDCQknSEUIIIYQQQlgoSTpCCCGEEEIICyVJRwghhBBCCGGhJOkIIYQQQgghLJQkHSGEEEIIIYSFkqQjhBBCCCGEsFCSdIQQQgghhBAWSpKOEEIIIYQQwkJJ0hFCCCGEEEJYKEk6QgghhBBCCAslSUcIIYQQQghhoSTpCCGEEEIIISyUJB0hhBBCCCGEhZKkI4QQQgghhLBQknSEEEIIIYQQFkqSjhBCCCGEEMJCSdIRQgghhBBCWChJOkIIIYQQQggLJUlHCCGEEEIIYaEk6QghhBBCCCEslCQdIYQQQgghhIWSpCOEEEIIIYSwUJJ0hBBCCCGEEBZKko4QQgghhBDCQknSEUIIIYQQQlgoSTpCCCGEEEIICyVJRwghhBBCCGGhJOkIIYQQQgghLJQkHSGEEEIIIYSFkqQjhBBCCCGEsFCSdIQQQgghhBAWSpKOEEIIIYQQwkJJ0hFCCCGEEEJYKEk6QgghhBBCCAslSUcIIYQQQghhoSTpCCGEEEIIISyUJB0hhBBCCCGEhZKkI4QQQgghhLBQknSEEEIIIYQQFkqSjhBCCCGEEMICGYb/AwtO/zhQ6R5VAAAAAElFTkSuQmCC;" parent="1" vertex="1">
          <mxGeometry x="40" y="10" width="797" height="414" as="geometry" />
        </mxCell>
        <mxCell id="zfkhzStkePlrxHXvBTw--3" value="UsuÃ¡rio" style="rounded=0;whiteSpace=wrap;html=1;" parent="1" vertex="1">
          <mxGeometry x="640" y="740" width="120" height="60" as="geometry" />
        </mxCell>
        <mxCell id="zfkhzStkePlrxHXvBTw--5" value="TipoDeUsuario" style="rounded=0;whiteSpace=wrap;html=1;" parent="1" vertex="1">
          <mxGeometry x="640" y="490" width="120" height="60" as="geometry" />
        </mxCell>
        <mxCell id="zfkhzStkePlrxHXvBTw--6" value="TipoDeEvento" style="rounded=0;whiteSpace=wrap;html=1;" parent="1" vertex="1">
          <mxGeometry x="60" y="550" width="120" height="60" as="geometry" />
        </mxCell>
        <mxCell id="zfkhzStkePlrxHXvBTw--7" value="Evento" style="rounded=0;whiteSpace=wrap;html=1;" parent="1" vertex="1">
          <mxGeometry x="60" y="740" width="120" height="60" as="geometry" />
        </mxCell>
        <mxCell id="zfkhzStkePlrxHXvBTw--8" value="PresencasEventos" style="rounded=0;whiteSpace=wrap;html=1;" parent="1" vertex="1">
          <mxGeometry x="370" y="740" width="120" height="60" as="geometry" />
        </mxCell>
        <mxCell id="zfkhzStkePlrxHXvBTw--9" value="InstituiÃ§Ã£o" style="rounded=0;whiteSpace=wrap;html=1;" parent="1" vertex="1">
          <mxGeometry x="60" y="960" width="120" height="60" as="geometry" />
        </mxCell>
        <mxCell id="zfkhzStkePlrxHXvBTw--10" value="ComentÃ¡rio" style="rounded=0;whiteSpace=wrap;html=1;" parent="1" vertex="1">
          <mxGeometry x="930" y="740" width="120" height="60" as="geometry" />
        </mxCell>
        <mxCell id="zfkhzStkePlrxHXvBTw--11" value="&lt;font style=&quot;font-size: 36px;&quot;&gt;Modelo Conceitual&lt;/font&gt;" style="text;html=1;align=center;verticalAlign=middle;resizable=0;points=[];autosize=1;strokeColor=none;fillColor=none;" parent="1" vertex="1">
          <mxGeometry x="150" y="490" width="320" height="60" as="geometry" />
        </mxCell>
        <mxCell id="zfkhzStkePlrxHXvBTw--13" style="edgeStyle=orthogonalEdgeStyle;rounded=0;orthogonalLoop=1;jettySize=auto;html=1;exitX=0.5;exitY=1;exitDx=0;exitDy=0;endArrow=none;endFill=0;" parent="1" source="zfkhzStkePlrxHXvBTw--12" target="zfkhzStkePlrxHXvBTw--3" edge="1">
          <mxGeometry relative="1" as="geometry" />
        </mxCell>
        <mxCell id="zfkhzStkePlrxHXvBTw--14" style="edgeStyle=orthogonalEdgeStyle;shape=connector;rounded=0;orthogonalLoop=1;jettySize=auto;html=1;exitX=0.5;exitY=0;exitDx=0;exitDy=0;labelBackgroundColor=default;strokeColor=default;fontFamily=Helvetica;fontSize=11;fontColor=default;endArrow=none;endFill=0;" parent="1" source="zfkhzStkePlrxHXvBTw--12" target="zfkhzStkePlrxHXvBTw--5" edge="1">
          <mxGeometry relative="1" as="geometry" />
        </mxCell>
        <mxCell id="zfkhzStkePlrxHXvBTw--12" value="Possui" style="rhombus;whiteSpace=wrap;html=1;" parent="1" vertex="1">
          <mxGeometry x="670" y="620" width="60" height="60" as="geometry" />
        </mxCell>
        <mxCell id="zfkhzStkePlrxHXvBTw--15" value="1" style="text;html=1;align=center;verticalAlign=middle;resizable=0;points=[];autosize=1;strokeColor=none;fillColor=none;fontSize=11;fontFamily=Helvetica;fontColor=default;" parent="1" vertex="1">
          <mxGeometry x="700" y="550" width="30" height="30" as="geometry" />
        </mxCell>
        <mxCell id="zfkhzStkePlrxHXvBTw--16" value="N" style="text;html=1;align=center;verticalAlign=middle;resizable=0;points=[];autosize=1;strokeColor=none;fillColor=none;fontSize=11;fontFamily=Helvetica;fontColor=default;" parent="1" vertex="1">
          <mxGeometry x="700" y="710" width="30" height="30" as="geometry" />
        </mxCell>
        <mxCell id="zfkhzStkePlrxHXvBTw--20" style="edgeStyle=orthogonalEdgeStyle;shape=connector;rounded=0;orthogonalLoop=1;jettySize=auto;html=1;exitX=1;exitY=0.5;exitDx=0;exitDy=0;labelBackgroundColor=default;strokeColor=default;fontFamily=Helvetica;fontSize=11;fontColor=default;endArrow=none;endFill=0;" parent="1" source="zfkhzStkePlrxHXvBTw--17" target="zfkhzStkePlrxHXvBTw--3" edge="1">
          <mxGeometry relative="1" as="geometry" />
        </mxCell>
        <mxCell id="zfkhzStkePlrxHXvBTw--21" style="edgeStyle=orthogonalEdgeStyle;shape=connector;rounded=0;orthogonalLoop=1;jettySize=auto;html=1;exitX=0;exitY=0.5;exitDx=0;exitDy=0;labelBackgroundColor=default;strokeColor=default;fontFamily=Helvetica;fontSize=11;fontColor=default;endArrow=none;endFill=0;" parent="1" source="zfkhzStkePlrxHXvBTw--17" target="zfkhzStkePlrxHXvBTw--8" edge="1">
          <mxGeometry relative="1" as="geometry" />
        </mxCell>
        <mxCell id="zfkhzStkePlrxHXvBTw--17" value="Possui" style="rhombus;whiteSpace=wrap;html=1;" parent="1" vertex="1">
          <mxGeometry x="540" y="740" width="60" height="60" as="geometry" />
        </mxCell>
        <mxCell id="zfkhzStkePlrxHXvBTw--22" style="edgeStyle=orthogonalEdgeStyle;shape=connector;rounded=0;orthogonalLoop=1;jettySize=auto;html=1;exitX=1;exitY=0.5;exitDx=0;exitDy=0;labelBackgroundColor=default;strokeColor=default;fontFamily=Helvetica;fontSize=11;fontColor=default;endArrow=none;endFill=0;" parent="1" source="zfkhzStkePlrxHXvBTw--18" target="zfkhzStkePlrxHXvBTw--8" edge="1">
          <mxGeometry relative="1" as="geometry" />
        </mxCell>
        <mxCell id="zfkhzStkePlrxHXvBTw--23" style="edgeStyle=orthogonalEdgeStyle;shape=connector;rounded=0;orthogonalLoop=1;jettySize=auto;html=1;exitX=0;exitY=0.5;exitDx=0;exitDy=0;labelBackgroundColor=default;strokeColor=default;fontFamily=Helvetica;fontSize=11;fontColor=default;endArrow=none;endFill=0;" parent="1" source="zfkhzStkePlrxHXvBTw--18" target="zfkhzStkePlrxHXvBTw--7" edge="1">
          <mxGeometry relative="1" as="geometry" />
        </mxCell>
        <mxCell id="zfkhzStkePlrxHXvBTw--18" value="Possui" style="rhombus;whiteSpace=wrap;html=1;" parent="1" vertex="1">
          <mxGeometry x="250" y="740" width="60" height="60" as="geometry" />
        </mxCell>
        <mxCell id="zfkhzStkePlrxHXvBTw--25" style="edgeStyle=orthogonalEdgeStyle;shape=connector;rounded=0;orthogonalLoop=1;jettySize=auto;html=1;exitX=0.5;exitY=1;exitDx=0;exitDy=0;entryX=0.5;entryY=0;entryDx=0;entryDy=0;labelBackgroundColor=default;strokeColor=default;fontFamily=Helvetica;fontSize=11;fontColor=default;endArrow=none;endFill=0;" parent="1" source="zfkhzStkePlrxHXvBTw--24" target="zfkhzStkePlrxHXvBTw--7" edge="1">
          <mxGeometry relative="1" as="geometry" />
        </mxCell>
        <mxCell id="zfkhzStkePlrxHXvBTw--26" style="edgeStyle=orthogonalEdgeStyle;shape=connector;rounded=0;orthogonalLoop=1;jettySize=auto;html=1;exitX=0.5;exitY=0;exitDx=0;exitDy=0;labelBackgroundColor=default;strokeColor=default;fontFamily=Helvetica;fontSize=11;fontColor=default;endArrow=none;endFill=0;" parent="1" source="zfkhzStkePlrxHXvBTw--24" target="zfkhzStkePlrxHXvBTw--6" edge="1">
          <mxGeometry relative="1" as="geometry" />
        </mxCell>
        <mxCell id="zfkhzStkePlrxHXvBTw--24" value="Possui" style="rhombus;whiteSpace=wrap;html=1;" parent="1" vertex="1">
          <mxGeometry x="90" y="650" width="60" height="60" as="geometry" />
        </mxCell>
        <mxCell id="zfkhzStkePlrxHXvBTw--28" style="edgeStyle=orthogonalEdgeStyle;shape=connector;rounded=0;orthogonalLoop=1;jettySize=auto;html=1;exitX=1;exitY=0.5;exitDx=0;exitDy=0;labelBackgroundColor=default;strokeColor=default;fontFamily=Helvetica;fontSize=11;fontColor=default;endArrow=none;endFill=0;" parent="1" source="zfkhzStkePlrxHXvBTw--27" target="zfkhzStkePlrxHXvBTw--10" edge="1">
          <mxGeometry relative="1" as="geometry" />
        </mxCell>
        <mxCell id="zfkhzStkePlrxHXvBTw--29" style="edgeStyle=orthogonalEdgeStyle;shape=connector;rounded=0;orthogonalLoop=1;jettySize=auto;html=1;exitX=0;exitY=0.5;exitDx=0;exitDy=0;labelBackgroundColor=default;strokeColor=default;fontFamily=Helvetica;fontSize=11;fontColor=default;endArrow=none;endFill=0;" parent="1" source="zfkhzStkePlrxHXvBTw--27" target="zfkhzStkePlrxHXvBTw--3" edge="1">
          <mxGeometry relative="1" as="geometry" />
        </mxCell>
        <mxCell id="zfkhzStkePlrxHXvBTw--27" value="Possui" style="rhombus;whiteSpace=wrap;html=1;" parent="1" vertex="1">
          <mxGeometry x="820" y="740" width="60" height="60" as="geometry" />
        </mxCell>
        <mxCell id="zfkhzStkePlrxHXvBTw--31" value="" style="edgeStyle=orthogonalEdgeStyle;shape=connector;rounded=0;orthogonalLoop=1;jettySize=auto;html=1;labelBackgroundColor=default;strokeColor=default;fontFamily=Helvetica;fontSize=11;fontColor=default;endArrow=none;endFill=0;" parent="1" source="zfkhzStkePlrxHXvBTw--30" target="zfkhzStkePlrxHXvBTw--9" edge="1">
          <mxGeometry relative="1" as="geometry" />
        </mxCell>
        <mxCell id="zfkhzStkePlrxHXvBTw--32" value="" style="edgeStyle=orthogonalEdgeStyle;shape=connector;rounded=0;orthogonalLoop=1;jettySize=auto;html=1;labelBackgroundColor=default;strokeColor=default;fontFamily=Helvetica;fontSize=11;fontColor=default;endArrow=none;endFill=0;" parent="1" source="zfkhzStkePlrxHXvBTw--30" target="zfkhzStkePlrxHXvBTw--7" edge="1">
          <mxGeometry relative="1" as="geometry" />
        </mxCell>
        <mxCell id="zfkhzStkePlrxHXvBTw--30" value="Possui" style="rhombus;whiteSpace=wrap;html=1;" parent="1" vertex="1">
          <mxGeometry x="90" y="850" width="60" height="60" as="geometry" />
        </mxCell>
        <mxCell id="zfkhzStkePlrxHXvBTw--33" value="1" style="text;html=1;align=center;verticalAlign=middle;resizable=0;points=[];autosize=1;strokeColor=none;fillColor=none;fontSize=11;fontFamily=Helvetica;fontColor=default;" parent="1" vertex="1">
          <mxGeometry x="760" y="740" width="30" height="30" as="geometry" />
        </mxCell>
        <mxCell id="zfkhzStkePlrxHXvBTw--34" value="N" style="text;html=1;align=center;verticalAlign=middle;resizable=0;points=[];autosize=1;strokeColor=none;fillColor=none;fontSize=11;fontFamily=Helvetica;fontColor=default;" parent="1" vertex="1">
          <mxGeometry x="900" y="740" width="30" height="30" as="geometry" />
        </mxCell>
        <mxCell id="zfkhzStkePlrxHXvBTw--35" value="N" style="text;html=1;align=center;verticalAlign=middle;resizable=0;points=[];autosize=1;strokeColor=none;fillColor=none;fontSize=11;fontFamily=Helvetica;fontColor=default;" parent="1" vertex="1">
          <mxGeometry x="490" y="740" width="30" height="30" as="geometry" />
        </mxCell>
        <mxCell id="zfkhzStkePlrxHXvBTw--36" value="N" style="text;html=1;align=center;verticalAlign=middle;resizable=0;points=[];autosize=1;strokeColor=none;fillColor=none;fontSize=11;fontFamily=Helvetica;fontColor=default;" parent="1" vertex="1">
          <mxGeometry x="610" y="740" width="30" height="30" as="geometry" />
        </mxCell>
        <mxCell id="zfkhzStkePlrxHXvBTw--37" value="N" style="text;html=1;align=center;verticalAlign=middle;resizable=0;points=[];autosize=1;strokeColor=none;fillColor=none;fontSize=11;fontFamily=Helvetica;fontColor=default;" parent="1" vertex="1">
          <mxGeometry x="340" y="740" width="30" height="30" as="geometry" />
        </mxCell>
        <mxCell id="zfkhzStkePlrxHXvBTw--39" value="1" style="text;html=1;align=center;verticalAlign=middle;resizable=0;points=[];autosize=1;strokeColor=none;fillColor=none;fontSize=11;fontFamily=Helvetica;fontColor=default;" parent="1" vertex="1">
          <mxGeometry x="180" y="740" width="30" height="30" as="geometry" />
        </mxCell>
        <mxCell id="zfkhzStkePlrxHXvBTw--40" value="1" style="text;html=1;align=center;verticalAlign=middle;resizable=0;points=[];autosize=1;strokeColor=none;fillColor=none;fontSize=11;fontFamily=Helvetica;fontColor=default;" parent="1" vertex="1">
          <mxGeometry x="120" y="930" width="30" height="30" as="geometry" />
        </mxCell>
        <mxCell id="zfkhzStkePlrxHXvBTw--41" value="N" style="text;html=1;align=center;verticalAlign=middle;resizable=0;points=[];autosize=1;strokeColor=none;fillColor=none;fontSize=11;fontFamily=Helvetica;fontColor=default;" parent="1" vertex="1">
          <mxGeometry x="120" y="800" width="30" height="30" as="geometry" />
        </mxCell>
        <mxCell id="zfkhzStkePlrxHXvBTw--42" value="N" style="text;html=1;align=center;verticalAlign=middle;resizable=0;points=[];autosize=1;strokeColor=none;fillColor=none;fontSize=11;fontFamily=Helvetica;fontColor=default;" parent="1" vertex="1">
          <mxGeometry x="120" y="710" width="30" height="30" as="geometry" />
        </mxCell>
        <mxCell id="zfkhzStkePlrxHXvBTw--43" value="1" style="text;html=1;align=center;verticalAlign=middle;resizable=0;points=[];autosize=1;strokeColor=none;fillColor=none;fontSize=11;fontFamily=Helvetica;fontColor=default;" parent="1" vertex="1">
          <mxGeometry x="120" y="610" width="30" height="30" as="geometry" />
        </mxCell>
        <mxCell id="zfkhzStkePlrxHXvBTw--44" value="TipoDeUsuario" style="shape=table;startSize=30;container=1;collapsible=1;childLayout=tableLayout;fixedRows=1;rowLines=0;fontStyle=1;align=center;resizeLast=1;html=1;fontFamily=Helvetica;fontSize=11;fontColor=default;" parent="1" vertex="1">
          <mxGeometry x="1160" y="540" width="180" height="90" as="geometry" />
        </mxCell>
        <mxCell id="zfkhzStkePlrxHXvBTw--45" value="" style="shape=tableRow;horizontal=0;startSize=0;swimlaneHead=0;swimlaneBody=0;fillColor=none;collapsible=0;dropTarget=0;points=[[0,0.5],[1,0.5]];portConstraint=eastwest;top=0;left=0;right=0;bottom=1;fontFamily=Helvetica;fontSize=11;fontColor=default;" parent="zfkhzStkePlrxHXvBTw--44" vertex="1">
          <mxGeometry y="30" width="180" height="30" as="geometry" />
        </mxCell>
        <mxCell id="zfkhzStkePlrxHXvBTw--46" value="PK" style="shape=partialRectangle;connectable=0;fillColor=none;top=0;left=0;bottom=0;right=0;fontStyle=1;overflow=hidden;whiteSpace=wrap;html=1;fontFamily=Helvetica;fontSize=11;fontColor=default;" parent="zfkhzStkePlrxHXvBTw--45" vertex="1">
          <mxGeometry width="30" height="30" as="geometry">
            <mxRectangle width="30" height="30" as="alternateBounds" />
          </mxGeometry>
        </mxCell>
        <mxCell id="zfkhzStkePlrxHXvBTw--47" value="IdTipoDeUsuario" style="shape=partialRectangle;connectable=0;fillColor=none;top=0;left=0;bottom=0;right=0;align=left;spacingLeft=6;fontStyle=5;overflow=hidden;whiteSpace=wrap;html=1;fontFamily=Helvetica;fontSize=11;fontColor=default;" parent="zfkhzStkePlrxHXvBTw--45" vertex="1">
          <mxGeometry x="30" width="150" height="30" as="geometry">
            <mxRectangle width="150" height="30" as="alternateBounds" />
          </mxGeometry>
        </mxCell>
        <mxCell id="zfkhzStkePlrxHXvBTw--48" value="" style="shape=tableRow;horizontal=0;startSize=0;swimlaneHead=0;swimlaneBody=0;fillColor=none;collapsible=0;dropTarget=0;points=[[0,0.5],[1,0.5]];portConstraint=eastwest;top=0;left=0;right=0;bottom=0;fontFamily=Helvetica;fontSize=11;fontColor=default;" parent="zfkhzStkePlrxHXvBTw--44" vertex="1">
          <mxGeometry y="60" width="180" height="30" as="geometry" />
        </mxCell>
        <mxCell id="zfkhzStkePlrxHXvBTw--49" value="" style="shape=partialRectangle;connectable=0;fillColor=none;top=0;left=0;bottom=0;right=0;editable=1;overflow=hidden;whiteSpace=wrap;html=1;fontFamily=Helvetica;fontSize=11;fontColor=default;" parent="zfkhzStkePlrxHXvBTw--48" vertex="1">
          <mxGeometry width="30" height="30" as="geometry">
            <mxRectangle width="30" height="30" as="alternateBounds" />
          </mxGeometry>
        </mxCell>
        <mxCell id="zfkhzStkePlrxHXvBTw--50" value="TituloTipoUsuario" style="shape=partialRectangle;connectable=0;fillColor=none;top=0;left=0;bottom=0;right=0;align=left;spacingLeft=6;overflow=hidden;whiteSpace=wrap;html=1;fontFamily=Helvetica;fontSize=11;fontColor=default;" parent="zfkhzStkePlrxHXvBTw--48" vertex="1">
          <mxGeometry x="30" width="150" height="30" as="geometry">
            <mxRectangle width="150" height="30" as="alternateBounds" />
          </mxGeometry>
        </mxCell>
        <mxCell id="zfkhzStkePlrxHXvBTw--78" value="TipoDeEvento" style="shape=table;startSize=30;container=1;collapsible=1;childLayout=tableLayout;fixedRows=1;rowLines=0;fontStyle=1;align=center;resizeLast=1;html=1;fontFamily=Helvetica;fontSize=11;fontColor=default;" parent="1" vertex="1">
          <mxGeometry x="2420" y="450" width="180" height="90" as="geometry" />
        </mxCell>
        <mxCell id="zfkhzStkePlrxHXvBTw--79" value="" style="shape=tableRow;horizontal=0;startSize=0;swimlaneHead=0;swimlaneBody=0;fillColor=none;collapsible=0;dropTarget=0;points=[[0,0.5],[1,0.5]];portConstraint=eastwest;top=0;left=0;right=0;bottom=1;fontFamily=Helvetica;fontSize=11;fontColor=default;" parent="zfkhzStkePlrxHXvBTw--78" vertex="1">
          <mxGeometry y="30" width="180" height="30" as="geometry" />
        </mxCell>
        <mxCell id="zfkhzStkePlrxHXvBTw--80" value="PK" style="shape=partialRectangle;connectable=0;fillColor=none;top=0;left=0;bottom=0;right=0;fontStyle=1;overflow=hidden;whiteSpace=wrap;html=1;fontFamily=Helvetica;fontSize=11;fontColor=default;" parent="zfkhzStkePlrxHXvBTw--79" vertex="1">
          <mxGeometry width="30" height="30" as="geometry">
            <mxRectangle width="30" height="30" as="alternateBounds" />
          </mxGeometry>
        </mxCell>
        <mxCell id="zfkhzStkePlrxHXvBTw--81" value="IdTipoDeEvento" style="shape=partialRectangle;connectable=0;fillColor=none;top=0;left=0;bottom=0;right=0;align=left;spacingLeft=6;fontStyle=5;overflow=hidden;whiteSpace=wrap;html=1;fontFamily=Helvetica;fontSize=11;fontColor=default;" parent="zfkhzStkePlrxHXvBTw--79" vertex="1">
          <mxGeometry x="30" width="150" height="30" as="geometry">
            <mxRectangle width="150" height="30" as="alternateBounds" />
          </mxGeometry>
        </mxCell>
        <mxCell id="zfkhzStkePlrxHXvBTw--82" value="" style="shape=tableRow;horizontal=0;startSize=0;swimlaneHead=0;swimlaneBody=0;fillColor=none;collapsible=0;dropTarget=0;points=[[0,0.5],[1,0.5]];portConstraint=eastwest;top=0;left=0;right=0;bottom=0;fontFamily=Helvetica;fontSize=11;fontColor=default;" parent="zfkhzStkePlrxHXvBTw--78" vertex="1">
          <mxGeometry y="60" width="180" height="30" as="geometry" />
        </mxCell>
        <mxCell id="zfkhzStkePlrxHXvBTw--83" value="" style="shape=partialRectangle;connectable=0;fillColor=none;top=0;left=0;bottom=0;right=0;editable=1;overflow=hidden;whiteSpace=wrap;html=1;fontFamily=Helvetica;fontSize=11;fontColor=default;" parent="zfkhzStkePlrxHXvBTw--82" vertex="1">
          <mxGeometry width="30" height="30" as="geometry">
            <mxRectangle width="30" height="30" as="alternateBounds" />
          </mxGeometry>
        </mxCell>
        <mxCell id="zfkhzStkePlrxHXvBTw--84" value="TituloTipoEvento" style="shape=partialRectangle;connectable=0;fillColor=none;top=0;left=0;bottom=0;right=0;align=left;spacingLeft=6;overflow=hidden;whiteSpace=wrap;html=1;fontFamily=Helvetica;fontSize=11;fontColor=default;" parent="zfkhzStkePlrxHXvBTw--82" vertex="1">
          <mxGeometry x="30" width="150" height="30" as="geometry">
            <mxRectangle width="150" height="30" as="alternateBounds" />
          </mxGeometry>
        </mxCell>
        <mxCell id="zfkhzStkePlrxHXvBTw--92" value="Usuario" style="shape=table;startSize=30;container=1;collapsible=1;childLayout=tableLayout;fixedRows=1;rowLines=0;fontStyle=1;align=center;resizeLast=1;html=1;fontFamily=Helvetica;fontSize=11;fontColor=default;" parent="1" vertex="1">
          <mxGeometry x="1500" y="490" width="180" height="180" as="geometry" />
        </mxCell>
        <mxCell id="zfkhzStkePlrxHXvBTw--93" value="" style="shape=tableRow;horizontal=0;startSize=0;swimlaneHead=0;swimlaneBody=0;fillColor=none;collapsible=0;dropTarget=0;points=[[0,0.5],[1,0.5]];portConstraint=eastwest;top=0;left=0;right=0;bottom=1;fontFamily=Helvetica;fontSize=11;fontColor=default;" parent="zfkhzStkePlrxHXvBTw--92" vertex="1">
          <mxGeometry y="30" width="180" height="30" as="geometry" />
        </mxCell>
        <mxCell id="zfkhzStkePlrxHXvBTw--94" value="PK" style="shape=partialRectangle;connectable=0;fillColor=none;top=0;left=0;bottom=0;right=0;fontStyle=1;overflow=hidden;whiteSpace=wrap;html=1;fontFamily=Helvetica;fontSize=11;fontColor=default;" parent="zfkhzStkePlrxHXvBTw--93" vertex="1">
          <mxGeometry width="30" height="30" as="geometry">
            <mxRectangle width="30" height="30" as="alternateBounds" />
          </mxGeometry>
        </mxCell>
        <mxCell id="zfkhzStkePlrxHXvBTw--95" value="IdUsuario" style="shape=partialRectangle;connectable=0;fillColor=none;top=0;left=0;bottom=0;right=0;align=left;spacingLeft=6;fontStyle=5;overflow=hidden;whiteSpace=wrap;html=1;fontFamily=Helvetica;fontSize=11;fontColor=default;" parent="zfkhzStkePlrxHXvBTw--93" vertex="1">
          <mxGeometry x="30" width="150" height="30" as="geometry">
            <mxRectangle width="150" height="30" as="alternateBounds" />
          </mxGeometry>
        </mxCell>
        <mxCell id="zfkhzStkePlrxHXvBTw--105" style="shape=tableRow;horizontal=0;startSize=0;swimlaneHead=0;swimlaneBody=0;fillColor=none;collapsible=0;dropTarget=0;points=[[0,0.5],[1,0.5]];portConstraint=eastwest;top=0;left=0;right=0;bottom=1;fontFamily=Helvetica;fontSize=11;fontColor=default;" parent="zfkhzStkePlrxHXvBTw--92" vertex="1">
          <mxGeometry y="60" width="180" height="30" as="geometry" />
        </mxCell>
        <mxCell id="zfkhzStkePlrxHXvBTw--106" value="FK" style="shape=partialRectangle;connectable=0;fillColor=none;top=0;left=0;bottom=0;right=0;fontStyle=1;overflow=hidden;whiteSpace=wrap;html=1;fontFamily=Helvetica;fontSize=11;fontColor=default;" parent="zfkhzStkePlrxHXvBTw--105" vertex="1">
          <mxGeometry width="30" height="30" as="geometry">
            <mxRectangle width="30" height="30" as="alternateBounds" />
          </mxGeometry>
        </mxCell>
        <mxCell id="zfkhzStkePlrxHXvBTw--107" value="IdTIpoDeUsuario" style="shape=partialRectangle;connectable=0;fillColor=none;top=0;left=0;bottom=0;right=0;align=left;spacingLeft=6;fontStyle=5;overflow=hidden;whiteSpace=wrap;html=1;fontFamily=Helvetica;fontSize=11;fontColor=default;" parent="zfkhzStkePlrxHXvBTw--105" vertex="1">
          <mxGeometry x="30" width="150" height="30" as="geometry">
            <mxRectangle width="150" height="30" as="alternateBounds" />
          </mxGeometry>
        </mxCell>
        <mxCell id="zfkhzStkePlrxHXvBTw--96" value="" style="shape=tableRow;horizontal=0;startSize=0;swimlaneHead=0;swimlaneBody=0;fillColor=none;collapsible=0;dropTarget=0;points=[[0,0.5],[1,0.5]];portConstraint=eastwest;top=0;left=0;right=0;bottom=0;fontFamily=Helvetica;fontSize=11;fontColor=default;" parent="zfkhzStkePlrxHXvBTw--92" vertex="1">
          <mxGeometry y="90" width="180" height="30" as="geometry" />
        </mxCell>
        <mxCell id="zfkhzStkePlrxHXvBTw--97" value="" style="shape=partialRectangle;connectable=0;fillColor=none;top=0;left=0;bottom=0;right=0;editable=1;overflow=hidden;whiteSpace=wrap;html=1;fontFamily=Helvetica;fontSize=11;fontColor=default;" parent="zfkhzStkePlrxHXvBTw--96" vertex="1">
          <mxGeometry width="30" height="30" as="geometry">
            <mxRectangle width="30" height="30" as="alternateBounds" />
          </mxGeometry>
        </mxCell>
        <mxCell id="zfkhzStkePlrxHXvBTw--98" value="Nome" style="shape=partialRectangle;connectable=0;fillColor=none;top=0;left=0;bottom=0;right=0;align=left;spacingLeft=6;overflow=hidden;whiteSpace=wrap;html=1;fontFamily=Helvetica;fontSize=11;fontColor=default;" parent="zfkhzStkePlrxHXvBTw--96" vertex="1">
          <mxGeometry x="30" width="150" height="30" as="geometry">
            <mxRectangle width="150" height="30" as="alternateBounds" />
          </mxGeometry>
        </mxCell>
        <mxCell id="zfkhzStkePlrxHXvBTw--99" value="" style="shape=tableRow;horizontal=0;startSize=0;swimlaneHead=0;swimlaneBody=0;fillColor=none;collapsible=0;dropTarget=0;points=[[0,0.5],[1,0.5]];portConstraint=eastwest;top=0;left=0;right=0;bottom=0;fontFamily=Helvetica;fontSize=11;fontColor=default;" parent="zfkhzStkePlrxHXvBTw--92" vertex="1">
          <mxGeometry y="120" width="180" height="30" as="geometry" />
        </mxCell>
        <mxCell id="zfkhzStkePlrxHXvBTw--100" value="" style="shape=partialRectangle;connectable=0;fillColor=none;top=0;left=0;bottom=0;right=0;editable=1;overflow=hidden;whiteSpace=wrap;html=1;fontFamily=Helvetica;fontSize=11;fontColor=default;" parent="zfkhzStkePlrxHXvBTw--99" vertex="1">
          <mxGeometry width="30" height="30" as="geometry">
            <mxRectangle width="30" height="30" as="alternateBounds" />
          </mxGeometry>
        </mxCell>
        <mxCell id="zfkhzStkePlrxHXvBTw--101" value="Email" style="shape=partialRectangle;connectable=0;fillColor=none;top=0;left=0;bottom=0;right=0;align=left;spacingLeft=6;overflow=hidden;whiteSpace=wrap;html=1;fontFamily=Helvetica;fontSize=11;fontColor=default;" parent="zfkhzStkePlrxHXvBTw--99" vertex="1">
          <mxGeometry x="30" width="150" height="30" as="geometry">
            <mxRectangle width="150" height="30" as="alternateBounds" />
          </mxGeometry>
        </mxCell>
        <mxCell id="zfkhzStkePlrxHXvBTw--102" value="" style="shape=tableRow;horizontal=0;startSize=0;swimlaneHead=0;swimlaneBody=0;fillColor=none;collapsible=0;dropTarget=0;points=[[0,0.5],[1,0.5]];portConstraint=eastwest;top=0;left=0;right=0;bottom=0;fontFamily=Helvetica;fontSize=11;fontColor=default;" parent="zfkhzStkePlrxHXvBTw--92" vertex="1">
          <mxGeometry y="150" width="180" height="30" as="geometry" />
        </mxCell>
        <mxCell id="zfkhzStkePlrxHXvBTw--103" value="" style="shape=partialRectangle;connectable=0;fillColor=none;top=0;left=0;bottom=0;right=0;editable=1;overflow=hidden;whiteSpace=wrap;html=1;fontFamily=Helvetica;fontSize=11;fontColor=default;" parent="zfkhzStkePlrxHXvBTw--102" vertex="1">
          <mxGeometry width="30" height="30" as="geometry">
            <mxRectangle width="30" height="30" as="alternateBounds" />
          </mxGeometry>
        </mxCell>
        <mxCell id="zfkhzStkePlrxHXvBTw--104" value="Senha" style="shape=partialRectangle;connectable=0;fillColor=none;top=0;left=0;bottom=0;right=0;align=left;spacingLeft=6;overflow=hidden;whiteSpace=wrap;html=1;fontFamily=Helvetica;fontSize=11;fontColor=default;" parent="zfkhzStkePlrxHXvBTw--102" vertex="1">
          <mxGeometry x="30" width="150" height="30" as="geometry">
            <mxRectangle width="150" height="30" as="alternateBounds" />
          </mxGeometry>
        </mxCell>
        <mxCell id="zfkhzStkePlrxHXvBTw--108" value="PresencasEvento" style="shape=table;startSize=30;container=1;collapsible=1;childLayout=tableLayout;fixedRows=1;rowLines=0;fontStyle=1;align=center;resizeLast=1;html=1;fontFamily=Helvetica;fontSize=11;fontColor=default;" parent="1" vertex="1">
          <mxGeometry x="1860" y="640" width="180" height="150" as="geometry" />
        </mxCell>
        <mxCell id="zfkhzStkePlrxHXvBTw--109" value="" style="shape=tableRow;horizontal=0;startSize=0;swimlaneHead=0;swimlaneBody=0;fillColor=none;collapsible=0;dropTarget=0;points=[[0,0.5],[1,0.5]];portConstraint=eastwest;top=0;left=0;right=0;bottom=1;fontFamily=Helvetica;fontSize=11;fontColor=default;" parent="zfkhzStkePlrxHXvBTw--108" vertex="1">
          <mxGeometry y="30" width="180" height="30" as="geometry" />
        </mxCell>
        <mxCell id="zfkhzStkePlrxHXvBTw--110" value="PK" style="shape=partialRectangle;connectable=0;fillColor=none;top=0;left=0;bottom=0;right=0;fontStyle=1;overflow=hidden;whiteSpace=wrap;html=1;fontFamily=Helvetica;fontSize=11;fontColor=default;" parent="zfkhzStkePlrxHXvBTw--109" vertex="1">
          <mxGeometry width="30" height="30" as="geometry">
            <mxRectangle width="30" height="30" as="alternateBounds" />
          </mxGeometry>
        </mxCell>
        <mxCell id="zfkhzStkePlrxHXvBTw--111" value="IdPresencasEvento" style="shape=partialRectangle;connectable=0;fillColor=none;top=0;left=0;bottom=0;right=0;align=left;spacingLeft=6;fontStyle=5;overflow=hidden;whiteSpace=wrap;html=1;fontFamily=Helvetica;fontSize=11;fontColor=default;" parent="zfkhzStkePlrxHXvBTw--109" vertex="1">
          <mxGeometry x="30" width="150" height="30" as="geometry">
            <mxRectangle width="150" height="30" as="alternateBounds" />
          </mxGeometry>
        </mxCell>
        <mxCell id="zfkhzStkePlrxHXvBTw--124" style="shape=tableRow;horizontal=0;startSize=0;swimlaneHead=0;swimlaneBody=0;fillColor=none;collapsible=0;dropTarget=0;points=[[0,0.5],[1,0.5]];portConstraint=eastwest;top=0;left=0;right=0;bottom=1;fontFamily=Helvetica;fontSize=11;fontColor=default;" parent="zfkhzStkePlrxHXvBTw--108" vertex="1">
          <mxGeometry y="60" width="180" height="30" as="geometry" />
        </mxCell>
        <mxCell id="zfkhzStkePlrxHXvBTw--125" value="FK1" style="shape=partialRectangle;connectable=0;fillColor=none;top=0;left=0;bottom=0;right=0;fontStyle=1;overflow=hidden;whiteSpace=wrap;html=1;fontFamily=Helvetica;fontSize=11;fontColor=default;" parent="zfkhzStkePlrxHXvBTw--124" vertex="1">
          <mxGeometry width="30" height="30" as="geometry">
            <mxRectangle width="30" height="30" as="alternateBounds" />
          </mxGeometry>
        </mxCell>
        <mxCell id="zfkhzStkePlrxHXvBTw--126" value="IdUsuario" style="shape=partialRectangle;connectable=0;fillColor=none;top=0;left=0;bottom=0;right=0;align=left;spacingLeft=6;fontStyle=5;overflow=hidden;whiteSpace=wrap;html=1;fontFamily=Helvetica;fontSize=11;fontColor=default;" parent="zfkhzStkePlrxHXvBTw--124" vertex="1">
          <mxGeometry x="30" width="150" height="30" as="geometry">
            <mxRectangle width="150" height="30" as="alternateBounds" />
          </mxGeometry>
        </mxCell>
        <mxCell id="zfkhzStkePlrxHXvBTw--112" style="shape=tableRow;horizontal=0;startSize=0;swimlaneHead=0;swimlaneBody=0;fillColor=none;collapsible=0;dropTarget=0;points=[[0,0.5],[1,0.5]];portConstraint=eastwest;top=0;left=0;right=0;bottom=1;fontFamily=Helvetica;fontSize=11;fontColor=default;" parent="zfkhzStkePlrxHXvBTw--108" vertex="1">
          <mxGeometry y="90" width="180" height="30" as="geometry" />
        </mxCell>
        <mxCell id="zfkhzStkePlrxHXvBTw--113" value="FK2" style="shape=partialRectangle;connectable=0;fillColor=none;top=0;left=0;bottom=0;right=0;fontStyle=1;overflow=hidden;whiteSpace=wrap;html=1;fontFamily=Helvetica;fontSize=11;fontColor=default;" parent="zfkhzStkePlrxHXvBTw--112" vertex="1">
          <mxGeometry width="30" height="30" as="geometry">
            <mxRectangle width="30" height="30" as="alternateBounds" />
          </mxGeometry>
        </mxCell>
        <mxCell id="zfkhzStkePlrxHXvBTw--114" value="IdEvento" style="shape=partialRectangle;connectable=0;fillColor=none;top=0;left=0;bottom=0;right=0;align=left;spacingLeft=6;fontStyle=5;overflow=hidden;whiteSpace=wrap;html=1;fontFamily=Helvetica;fontSize=11;fontColor=default;" parent="zfkhzStkePlrxHXvBTw--112" vertex="1">
          <mxGeometry x="30" width="150" height="30" as="geometry">
            <mxRectangle width="150" height="30" as="alternateBounds" />
          </mxGeometry>
        </mxCell>
        <mxCell id="zfkhzStkePlrxHXvBTw--115" value="" style="shape=tableRow;horizontal=0;startSize=0;swimlaneHead=0;swimlaneBody=0;fillColor=none;collapsible=0;dropTarget=0;points=[[0,0.5],[1,0.5]];portConstraint=eastwest;top=0;left=0;right=0;bottom=0;fontFamily=Helvetica;fontSize=11;fontColor=default;" parent="zfkhzStkePlrxHXvBTw--108" vertex="1">
          <mxGeometry y="120" width="180" height="30" as="geometry" />
        </mxCell>
        <mxCell id="zfkhzStkePlrxHXvBTw--116" value="" style="shape=partialRectangle;connectable=0;fillColor=none;top=0;left=0;bottom=0;right=0;editable=1;overflow=hidden;whiteSpace=wrap;html=1;fontFamily=Helvetica;fontSize=11;fontColor=default;" parent="zfkhzStkePlrxHXvBTw--115" vertex="1">
          <mxGeometry width="30" height="30" as="geometry">
            <mxRectangle width="30" height="30" as="alternateBounds" />
          </mxGeometry>
        </mxCell>
        <mxCell id="zfkhzStkePlrxHXvBTw--117" value="Situacao" style="shape=partialRectangle;connectable=0;fillColor=none;top=0;left=0;bottom=0;right=0;align=left;spacingLeft=6;overflow=hidden;whiteSpace=wrap;html=1;fontFamily=Helvetica;fontSize=11;fontColor=default;" parent="zfkhzStkePlrxHXvBTw--115" vertex="1">
          <mxGeometry x="30" width="150" height="30" as="geometry">
            <mxRectangle width="150" height="30" as="alternateBounds" />
          </mxGeometry>
        </mxCell>
        <mxCell id="zfkhzStkePlrxHXvBTw--127" value="" style="edgeStyle=entityRelationEdgeStyle;fontSize=12;html=1;endArrow=ERoneToMany;rounded=0;labelBackgroundColor=default;strokeColor=default;fontFamily=Helvetica;fontColor=default;shape=connector;" parent="1" source="zfkhzStkePlrxHXvBTw--45" target="zfkhzStkePlrxHXvBTw--105" edge="1">
          <mxGeometry width="100" height="100" relative="1" as="geometry">
            <mxPoint x="1590" y="500" as="sourcePoint" />
            <mxPoint x="1450" y="340" as="targetPoint" />
          </mxGeometry>
        </mxCell>
        <mxCell id="zfkhzStkePlrxHXvBTw--128" value="" style="edgeStyle=entityRelationEdgeStyle;fontSize=12;html=1;endArrow=ERoneToMany;rounded=0;labelBackgroundColor=default;strokeColor=default;fontFamily=Helvetica;fontColor=default;shape=connector;" parent="1" source="zfkhzStkePlrxHXvBTw--93" target="zfkhzStkePlrxHXvBTw--124" edge="1">
          <mxGeometry width="100" height="100" relative="1" as="geometry">
            <mxPoint x="1590" y="500" as="sourcePoint" />
            <mxPoint x="1690" y="400" as="targetPoint" />
          </mxGeometry>
        </mxCell>
        <mxCell id="zfkhzStkePlrxHXvBTw--132" value="Evento" style="shape=table;startSize=30;container=1;collapsible=1;childLayout=tableLayout;fixedRows=1;rowLines=0;fontStyle=1;align=center;resizeLast=1;html=1;fontFamily=Helvetica;fontSize=11;fontColor=default;" parent="1" vertex="1">
          <mxGeometry x="2120" y="230" width="180" height="240" as="geometry" />
        </mxCell>
        <mxCell id="zfkhzStkePlrxHXvBTw--167" style="shape=tableRow;horizontal=0;startSize=0;swimlaneHead=0;swimlaneBody=0;fillColor=none;collapsible=0;dropTarget=0;points=[[0,0.5],[1,0.5]];portConstraint=eastwest;top=0;left=0;right=0;bottom=1;fontFamily=Helvetica;fontSize=11;fontColor=default;" parent="zfkhzStkePlrxHXvBTw--132" vertex="1">
          <mxGeometry y="30" width="180" height="30" as="geometry" />
        </mxCell>
        <mxCell id="zfkhzStkePlrxHXvBTw--168" value="FK1" style="shape=partialRectangle;connectable=0;fillColor=none;top=0;left=0;bottom=0;right=0;fontStyle=1;overflow=hidden;whiteSpace=wrap;html=1;fontFamily=Helvetica;fontSize=11;fontColor=default;" parent="zfkhzStkePlrxHXvBTw--167" vertex="1">
          <mxGeometry width="30" height="30" as="geometry">
            <mxRectangle width="30" height="30" as="alternateBounds" />
          </mxGeometry>
        </mxCell>
        <mxCell id="zfkhzStkePlrxHXvBTw--169" value="IdInsituicao" style="shape=partialRectangle;connectable=0;fillColor=none;top=0;left=0;bottom=0;right=0;align=left;spacingLeft=6;fontStyle=5;overflow=hidden;whiteSpace=wrap;html=1;fontFamily=Helvetica;fontSize=11;fontColor=default;" parent="zfkhzStkePlrxHXvBTw--167" vertex="1">
          <mxGeometry x="30" width="150" height="30" as="geometry">
            <mxRectangle width="150" height="30" as="alternateBounds" />
          </mxGeometry>
        </mxCell>
        <mxCell id="zfkhzStkePlrxHXvBTw--164" style="shape=tableRow;horizontal=0;startSize=0;swimlaneHead=0;swimlaneBody=0;fillColor=none;collapsible=0;dropTarget=0;points=[[0,0.5],[1,0.5]];portConstraint=eastwest;top=0;left=0;right=0;bottom=1;fontFamily=Helvetica;fontSize=11;fontColor=default;" parent="zfkhzStkePlrxHXvBTw--132" vertex="1">
          <mxGeometry y="60" width="180" height="30" as="geometry" />
        </mxCell>
        <mxCell id="zfkhzStkePlrxHXvBTw--165" value="FK2" style="shape=partialRectangle;connectable=0;fillColor=none;top=0;left=0;bottom=0;right=0;fontStyle=1;overflow=hidden;whiteSpace=wrap;html=1;fontFamily=Helvetica;fontSize=11;fontColor=default;" parent="zfkhzStkePlrxHXvBTw--164" vertex="1">
          <mxGeometry width="30" height="30" as="geometry">
            <mxRectangle width="30" height="30" as="alternateBounds" />
          </mxGeometry>
        </mxCell>
        <mxCell id="zfkhzStkePlrxHXvBTw--166" value="IdTipoEvento" style="shape=partialRectangle;connectable=0;fillColor=none;top=0;left=0;bottom=0;right=0;align=left;spacingLeft=6;fontStyle=5;overflow=hidden;whiteSpace=wrap;html=1;fontFamily=Helvetica;fontSize=11;fontColor=default;" parent="zfkhzStkePlrxHXvBTw--164" vertex="1">
          <mxGeometry x="30" width="150" height="30" as="geometry">
            <mxRectangle width="150" height="30" as="alternateBounds" />
          </mxGeometry>
        </mxCell>
        <mxCell id="zfkhzStkePlrxHXvBTw--133" value="" style="shape=tableRow;horizontal=0;startSize=0;swimlaneHead=0;swimlaneBody=0;fillColor=none;collapsible=0;dropTarget=0;points=[[0,0.5],[1,0.5]];portConstraint=eastwest;top=0;left=0;right=0;bottom=1;fontFamily=Helvetica;fontSize=11;fontColor=default;" parent="zfkhzStkePlrxHXvBTw--132" vertex="1">
          <mxGeometry y="90" width="180" height="30" as="geometry" />
        </mxCell>
        <mxCell id="zfkhzStkePlrxHXvBTw--134" value="PK" style="shape=partialRectangle;connectable=0;fillColor=none;top=0;left=0;bottom=0;right=0;fontStyle=1;overflow=hidden;whiteSpace=wrap;html=1;fontFamily=Helvetica;fontSize=11;fontColor=default;" parent="zfkhzStkePlrxHXvBTw--133" vertex="1">
          <mxGeometry width="30" height="30" as="geometry">
            <mxRectangle width="30" height="30" as="alternateBounds" />
          </mxGeometry>
        </mxCell>
        <mxCell id="zfkhzStkePlrxHXvBTw--135" value="IdEvento" style="shape=partialRectangle;connectable=0;fillColor=none;top=0;left=0;bottom=0;right=0;align=left;spacingLeft=6;fontStyle=5;overflow=hidden;whiteSpace=wrap;html=1;fontFamily=Helvetica;fontSize=11;fontColor=default;" parent="zfkhzStkePlrxHXvBTw--133" vertex="1">
          <mxGeometry x="30" width="150" height="30" as="geometry">
            <mxRectangle width="150" height="30" as="alternateBounds" />
          </mxGeometry>
        </mxCell>
        <mxCell id="zfkhzStkePlrxHXvBTw--136" value="" style="shape=tableRow;horizontal=0;startSize=0;swimlaneHead=0;swimlaneBody=0;fillColor=none;collapsible=0;dropTarget=0;points=[[0,0.5],[1,0.5]];portConstraint=eastwest;top=0;left=0;right=0;bottom=0;fontFamily=Helvetica;fontSize=11;fontColor=default;" parent="zfkhzStkePlrxHXvBTw--132" vertex="1">
          <mxGeometry y="120" width="180" height="30" as="geometry" />
        </mxCell>
        <mxCell id="zfkhzStkePlrxHXvBTw--137" value="" style="shape=partialRectangle;connectable=0;fillColor=none;top=0;left=0;bottom=0;right=0;editable=1;overflow=hidden;whiteSpace=wrap;html=1;fontFamily=Helvetica;fontSize=11;fontColor=default;" parent="zfkhzStkePlrxHXvBTw--136" vertex="1">
          <mxGeometry width="30" height="30" as="geometry">
            <mxRectangle width="30" height="30" as="alternateBounds" />
          </mxGeometry>
        </mxCell>
        <mxCell id="zfkhzStkePlrxHXvBTw--138" value="NomeEvento" style="shape=partialRectangle;connectable=0;fillColor=none;top=0;left=0;bottom=0;right=0;align=left;spacingLeft=6;overflow=hidden;whiteSpace=wrap;html=1;fontFamily=Helvetica;fontSize=11;fontColor=default;" parent="zfkhzStkePlrxHXvBTw--136" vertex="1">
          <mxGeometry x="30" width="150" height="30" as="geometry">
            <mxRectangle width="150" height="30" as="alternateBounds" />
          </mxGeometry>
        </mxCell>
        <mxCell id="zfkhzStkePlrxHXvBTw--139" value="" style="shape=tableRow;horizontal=0;startSize=0;swimlaneHead=0;swimlaneBody=0;fillColor=none;collapsible=0;dropTarget=0;points=[[0,0.5],[1,0.5]];portConstraint=eastwest;top=0;left=0;right=0;bottom=0;fontFamily=Helvetica;fontSize=11;fontColor=default;" parent="zfkhzStkePlrxHXvBTw--132" vertex="1">
          <mxGeometry y="150" width="180" height="30" as="geometry" />
        </mxCell>
        <mxCell id="zfkhzStkePlrxHXvBTw--140" value="" style="shape=partialRectangle;connectable=0;fillColor=none;top=0;left=0;bottom=0;right=0;editable=1;overflow=hidden;whiteSpace=wrap;html=1;fontFamily=Helvetica;fontSize=11;fontColor=default;" parent="zfkhzStkePlrxHXvBTw--139" vertex="1">
          <mxGeometry width="30" height="30" as="geometry">
            <mxRectangle width="30" height="30" as="alternateBounds" />
          </mxGeometry>
        </mxCell>
        <mxCell id="zfkhzStkePlrxHXvBTw--141" value="Descricao" style="shape=partialRectangle;connectable=0;fillColor=none;top=0;left=0;bottom=0;right=0;align=left;spacingLeft=6;overflow=hidden;whiteSpace=wrap;html=1;fontFamily=Helvetica;fontSize=11;fontColor=default;" parent="zfkhzStkePlrxHXvBTw--139" vertex="1">
          <mxGeometry x="30" width="150" height="30" as="geometry">
            <mxRectangle width="150" height="30" as="alternateBounds" />
          </mxGeometry>
        </mxCell>
        <mxCell id="zfkhzStkePlrxHXvBTw--142" value="" style="shape=tableRow;horizontal=0;startSize=0;swimlaneHead=0;swimlaneBody=0;fillColor=none;collapsible=0;dropTarget=0;points=[[0,0.5],[1,0.5]];portConstraint=eastwest;top=0;left=0;right=0;bottom=0;fontFamily=Helvetica;fontSize=11;fontColor=default;" parent="zfkhzStkePlrxHXvBTw--132" vertex="1">
          <mxGeometry y="180" width="180" height="30" as="geometry" />
        </mxCell>
        <mxCell id="zfkhzStkePlrxHXvBTw--143" value="" style="shape=partialRectangle;connectable=0;fillColor=none;top=0;left=0;bottom=0;right=0;editable=1;overflow=hidden;whiteSpace=wrap;html=1;fontFamily=Helvetica;fontSize=11;fontColor=default;" parent="zfkhzStkePlrxHXvBTw--142" vertex="1">
          <mxGeometry width="30" height="30" as="geometry">
            <mxRectangle width="30" height="30" as="alternateBounds" />
          </mxGeometry>
        </mxCell>
        <mxCell id="zfkhzStkePlrxHXvBTw--144" value="DataEvento" style="shape=partialRectangle;connectable=0;fillColor=none;top=0;left=0;bottom=0;right=0;align=left;spacingLeft=6;overflow=hidden;whiteSpace=wrap;html=1;fontFamily=Helvetica;fontSize=11;fontColor=default;" parent="zfkhzStkePlrxHXvBTw--142" vertex="1">
          <mxGeometry x="30" width="150" height="30" as="geometry">
            <mxRectangle width="150" height="30" as="alternateBounds" />
          </mxGeometry>
        </mxCell>
        <mxCell id="M6dfxte_u1xskf7rZ01j-34" style="shape=tableRow;horizontal=0;startSize=0;swimlaneHead=0;swimlaneBody=0;fillColor=none;collapsible=0;dropTarget=0;points=[[0,0.5],[1,0.5]];portConstraint=eastwest;top=0;left=0;right=0;bottom=0;fontFamily=Helvetica;fontSize=11;fontColor=default;" vertex="1" parent="zfkhzStkePlrxHXvBTw--132">
          <mxGeometry y="210" width="180" height="30" as="geometry" />
        </mxCell>
        <mxCell id="M6dfxte_u1xskf7rZ01j-35" style="shape=partialRectangle;connectable=0;fillColor=none;top=0;left=0;bottom=0;right=0;editable=1;overflow=hidden;whiteSpace=wrap;html=1;fontFamily=Helvetica;fontSize=11;fontColor=default;" vertex="1" parent="M6dfxte_u1xskf7rZ01j-34">
          <mxGeometry width="30" height="30" as="geometry">
            <mxRectangle width="30" height="30" as="alternateBounds" />
          </mxGeometry>
        </mxCell>
        <mxCell id="M6dfxte_u1xskf7rZ01j-36" value="TimeEvento" style="shape=partialRectangle;connectable=0;fillColor=none;top=0;left=0;bottom=0;right=0;align=left;spacingLeft=6;overflow=hidden;whiteSpace=wrap;html=1;fontFamily=Helvetica;fontSize=11;fontColor=default;" vertex="1" parent="M6dfxte_u1xskf7rZ01j-34">
          <mxGeometry x="30" width="150" height="30" as="geometry">
            <mxRectangle width="150" height="30" as="alternateBounds" />
          </mxGeometry>
        </mxCell>
        <mxCell id="zfkhzStkePlrxHXvBTw--145" value="Instituicao" style="shape=table;startSize=30;container=1;collapsible=1;childLayout=tableLayout;fixedRows=1;rowLines=0;fontStyle=1;align=center;resizeLast=1;html=1;fontFamily=Helvetica;fontSize=11;fontColor=default;" parent="1" vertex="1">
          <mxGeometry x="2420" y="210" width="180" height="150" as="geometry" />
        </mxCell>
        <mxCell id="zfkhzStkePlrxHXvBTw--146" value="" style="shape=tableRow;horizontal=0;startSize=0;swimlaneHead=0;swimlaneBody=0;fillColor=none;collapsible=0;dropTarget=0;points=[[0,0.5],[1,0.5]];portConstraint=eastwest;top=0;left=0;right=0;bottom=1;fontFamily=Helvetica;fontSize=11;fontColor=default;" parent="zfkhzStkePlrxHXvBTw--145" vertex="1">
          <mxGeometry y="30" width="180" height="30" as="geometry" />
        </mxCell>
        <mxCell id="zfkhzStkePlrxHXvBTw--147" value="PK" style="shape=partialRectangle;connectable=0;fillColor=none;top=0;left=0;bottom=0;right=0;fontStyle=1;overflow=hidden;whiteSpace=wrap;html=1;fontFamily=Helvetica;fontSize=11;fontColor=default;" parent="zfkhzStkePlrxHXvBTw--146" vertex="1">
          <mxGeometry width="30" height="30" as="geometry">
            <mxRectangle width="30" height="30" as="alternateBounds" />
          </mxGeometry>
        </mxCell>
        <mxCell id="zfkhzStkePlrxHXvBTw--148" value="IdInstituicao" style="shape=partialRectangle;connectable=0;fillColor=none;top=0;left=0;bottom=0;right=0;align=left;spacingLeft=6;fontStyle=5;overflow=hidden;whiteSpace=wrap;html=1;fontFamily=Helvetica;fontSize=11;fontColor=default;" parent="zfkhzStkePlrxHXvBTw--146" vertex="1">
          <mxGeometry x="30" width="150" height="30" as="geometry">
            <mxRectangle width="150" height="30" as="alternateBounds" />
          </mxGeometry>
        </mxCell>
        <mxCell id="zfkhzStkePlrxHXvBTw--149" value="" style="shape=tableRow;horizontal=0;startSize=0;swimlaneHead=0;swimlaneBody=0;fillColor=none;collapsible=0;dropTarget=0;points=[[0,0.5],[1,0.5]];portConstraint=eastwest;top=0;left=0;right=0;bottom=0;fontFamily=Helvetica;fontSize=11;fontColor=default;" parent="zfkhzStkePlrxHXvBTw--145" vertex="1">
          <mxGeometry y="60" width="180" height="30" as="geometry" />
        </mxCell>
        <mxCell id="zfkhzStkePlrxHXvBTw--150" value="" style="shape=partialRectangle;connectable=0;fillColor=none;top=0;left=0;bottom=0;right=0;editable=1;overflow=hidden;whiteSpace=wrap;html=1;fontFamily=Helvetica;fontSize=11;fontColor=default;" parent="zfkhzStkePlrxHXvBTw--149" vertex="1">
          <mxGeometry width="30" height="30" as="geometry">
            <mxRectangle width="30" height="30" as="alternateBounds" />
          </mxGeometry>
        </mxCell>
        <mxCell id="zfkhzStkePlrxHXvBTw--151" value="NomeFantasia" style="shape=partialRectangle;connectable=0;fillColor=none;top=0;left=0;bottom=0;right=0;align=left;spacingLeft=6;overflow=hidden;whiteSpace=wrap;html=1;fontFamily=Helvetica;fontSize=11;fontColor=default;" parent="zfkhzStkePlrxHXvBTw--149" vertex="1">
          <mxGeometry x="30" width="150" height="30" as="geometry">
            <mxRectangle width="150" height="30" as="alternateBounds" />
          </mxGeometry>
        </mxCell>
        <mxCell id="M6dfxte_u1xskf7rZ01j-1" style="shape=tableRow;horizontal=0;startSize=0;swimlaneHead=0;swimlaneBody=0;fillColor=none;collapsible=0;dropTarget=0;points=[[0,0.5],[1,0.5]];portConstraint=eastwest;top=0;left=0;right=0;bottom=0;fontFamily=Helvetica;fontSize=11;fontColor=default;" vertex="1" parent="zfkhzStkePlrxHXvBTw--145">
          <mxGeometry y="90" width="180" height="30" as="geometry" />
        </mxCell>
        <mxCell id="M6dfxte_u1xskf7rZ01j-2" style="shape=partialRectangle;connectable=0;fillColor=none;top=0;left=0;bottom=0;right=0;editable=1;overflow=hidden;whiteSpace=wrap;html=1;fontFamily=Helvetica;fontSize=11;fontColor=default;" vertex="1" parent="M6dfxte_u1xskf7rZ01j-1">
          <mxGeometry width="30" height="30" as="geometry">
            <mxRectangle width="30" height="30" as="alternateBounds" />
          </mxGeometry>
        </mxCell>
        <mxCell id="M6dfxte_u1xskf7rZ01j-3" value="CNPJ" style="shape=partialRectangle;connectable=0;fillColor=none;top=0;left=0;bottom=0;right=0;align=left;spacingLeft=6;overflow=hidden;whiteSpace=wrap;html=1;fontFamily=Helvetica;fontSize=11;fontColor=default;" vertex="1" parent="M6dfxte_u1xskf7rZ01j-1">
          <mxGeometry x="30" width="150" height="30" as="geometry">
            <mxRectangle width="150" height="30" as="alternateBounds" />
          </mxGeometry>
        </mxCell>
        <mxCell id="M6dfxte_u1xskf7rZ01j-7" style="shape=tableRow;horizontal=0;startSize=0;swimlaneHead=0;swimlaneBody=0;fillColor=none;collapsible=0;dropTarget=0;points=[[0,0.5],[1,0.5]];portConstraint=eastwest;top=0;left=0;right=0;bottom=0;fontFamily=Helvetica;fontSize=11;fontColor=default;" vertex="1" parent="zfkhzStkePlrxHXvBTw--145">
          <mxGeometry y="120" width="180" height="30" as="geometry" />
        </mxCell>
        <mxCell id="M6dfxte_u1xskf7rZ01j-8" style="shape=partialRectangle;connectable=0;fillColor=none;top=0;left=0;bottom=0;right=0;editable=1;overflow=hidden;whiteSpace=wrap;html=1;fontFamily=Helvetica;fontSize=11;fontColor=default;" vertex="1" parent="M6dfxte_u1xskf7rZ01j-7">
          <mxGeometry width="30" height="30" as="geometry">
            <mxRectangle width="30" height="30" as="alternateBounds" />
          </mxGeometry>
        </mxCell>
        <mxCell id="M6dfxte_u1xskf7rZ01j-9" value="Endereco" style="shape=partialRectangle;connectable=0;fillColor=none;top=0;left=0;bottom=0;right=0;align=left;spacingLeft=6;overflow=hidden;whiteSpace=wrap;html=1;fontFamily=Helvetica;fontSize=11;fontColor=default;" vertex="1" parent="M6dfxte_u1xskf7rZ01j-7">
          <mxGeometry x="30" width="150" height="30" as="geometry">
            <mxRectangle width="150" height="30" as="alternateBounds" />
          </mxGeometry>
        </mxCell>
        <mxCell id="zfkhzStkePlrxHXvBTw--170" value="" style="edgeStyle=entityRelationEdgeStyle;fontSize=12;html=1;endArrow=ERoneToMany;rounded=0;labelBackgroundColor=default;strokeColor=default;fontFamily=Helvetica;fontColor=default;shape=connector;" parent="1" source="zfkhzStkePlrxHXvBTw--79" target="zfkhzStkePlrxHXvBTw--164" edge="1">
          <mxGeometry width="100" height="100" relative="1" as="geometry">
            <mxPoint x="2120" y="530" as="sourcePoint" />
            <mxPoint x="2220" y="430" as="targetPoint" />
          </mxGeometry>
        </mxCell>
        <mxCell id="zfkhzStkePlrxHXvBTw--172" value="" style="edgeStyle=entityRelationEdgeStyle;fontSize=12;html=1;endArrow=ERoneToMany;rounded=0;labelBackgroundColor=default;strokeColor=default;fontFamily=Helvetica;fontColor=default;shape=connector;" parent="1" source="zfkhzStkePlrxHXvBTw--146" target="zfkhzStkePlrxHXvBTw--167" edge="1">
          <mxGeometry width="100" height="100" relative="1" as="geometry">
            <mxPoint x="2120" y="530" as="sourcePoint" />
            <mxPoint x="2220" y="430" as="targetPoint" />
          </mxGeometry>
        </mxCell>
        <mxCell id="zfkhzStkePlrxHXvBTw--173" value="" style="edgeStyle=entityRelationEdgeStyle;fontSize=12;html=1;endArrow=ERoneToMany;rounded=0;labelBackgroundColor=default;strokeColor=default;fontFamily=Helvetica;fontColor=default;shape=connector;" parent="1" source="zfkhzStkePlrxHXvBTw--133" target="zfkhzStkePlrxHXvBTw--112" edge="1">
          <mxGeometry width="100" height="100" relative="1" as="geometry">
            <mxPoint x="2120" y="530" as="sourcePoint" />
            <mxPoint x="2220" y="430" as="targetPoint" />
          </mxGeometry>
        </mxCell>
        <mxCell id="M6dfxte_u1xskf7rZ01j-10" value="Comentario" style="shape=table;startSize=30;container=1;collapsible=1;childLayout=tableLayout;fixedRows=1;rowLines=0;fontStyle=1;align=center;resizeLast=1;html=1;fontFamily=Helvetica;fontSize=11;fontColor=default;" vertex="1" parent="1">
          <mxGeometry x="1800" y="140" width="180" height="180" as="geometry" />
        </mxCell>
        <mxCell id="M6dfxte_u1xskf7rZ01j-20" style="shape=tableRow;horizontal=0;startSize=0;swimlaneHead=0;swimlaneBody=0;fillColor=none;collapsible=0;dropTarget=0;points=[[0,0.5],[1,0.5]];portConstraint=eastwest;top=0;left=0;right=0;bottom=1;fontFamily=Helvetica;fontSize=11;fontColor=default;" vertex="1" parent="M6dfxte_u1xskf7rZ01j-10">
          <mxGeometry y="30" width="180" height="30" as="geometry" />
        </mxCell>
        <mxCell id="M6dfxte_u1xskf7rZ01j-21" value="FK1" style="shape=partialRectangle;connectable=0;fillColor=none;top=0;left=0;bottom=0;right=0;fontStyle=1;overflow=hidden;whiteSpace=wrap;html=1;fontFamily=Helvetica;fontSize=11;fontColor=default;" vertex="1" parent="M6dfxte_u1xskf7rZ01j-20">
          <mxGeometry width="30" height="30" as="geometry">
            <mxRectangle width="30" height="30" as="alternateBounds" />
          </mxGeometry>
        </mxCell>
        <mxCell id="M6dfxte_u1xskf7rZ01j-22" value="IdUsuario" style="shape=partialRectangle;connectable=0;fillColor=none;top=0;left=0;bottom=0;right=0;align=left;spacingLeft=6;fontStyle=5;overflow=hidden;whiteSpace=wrap;html=1;fontFamily=Helvetica;fontSize=11;fontColor=default;" vertex="1" parent="M6dfxte_u1xskf7rZ01j-20">
          <mxGeometry x="30" width="150" height="30" as="geometry">
            <mxRectangle width="150" height="30" as="alternateBounds" />
          </mxGeometry>
        </mxCell>
        <mxCell id="M6dfxte_u1xskf7rZ01j-17" style="shape=tableRow;horizontal=0;startSize=0;swimlaneHead=0;swimlaneBody=0;fillColor=none;collapsible=0;dropTarget=0;points=[[0,0.5],[1,0.5]];portConstraint=eastwest;top=0;left=0;right=0;bottom=1;fontFamily=Helvetica;fontSize=11;fontColor=default;" vertex="1" parent="M6dfxte_u1xskf7rZ01j-10">
          <mxGeometry y="60" width="180" height="30" as="geometry" />
        </mxCell>
        <mxCell id="M6dfxte_u1xskf7rZ01j-18" value="FK2" style="shape=partialRectangle;connectable=0;fillColor=none;top=0;left=0;bottom=0;right=0;fontStyle=1;overflow=hidden;whiteSpace=wrap;html=1;fontFamily=Helvetica;fontSize=11;fontColor=default;" vertex="1" parent="M6dfxte_u1xskf7rZ01j-17">
          <mxGeometry width="30" height="30" as="geometry">
            <mxRectangle width="30" height="30" as="alternateBounds" />
          </mxGeometry>
        </mxCell>
        <mxCell id="M6dfxte_u1xskf7rZ01j-19" value="IdEvento" style="shape=partialRectangle;connectable=0;fillColor=none;top=0;left=0;bottom=0;right=0;align=left;spacingLeft=6;fontStyle=5;overflow=hidden;whiteSpace=wrap;html=1;fontFamily=Helvetica;fontSize=11;fontColor=default;" vertex="1" parent="M6dfxte_u1xskf7rZ01j-17">
          <mxGeometry x="30" width="150" height="30" as="geometry">
            <mxRectangle width="150" height="30" as="alternateBounds" />
          </mxGeometry>
        </mxCell>
        <mxCell id="M6dfxte_u1xskf7rZ01j-11" value="" style="shape=tableRow;horizontal=0;startSize=0;swimlaneHead=0;swimlaneBody=0;fillColor=none;collapsible=0;dropTarget=0;points=[[0,0.5],[1,0.5]];portConstraint=eastwest;top=0;left=0;right=0;bottom=1;fontFamily=Helvetica;fontSize=11;fontColor=default;" vertex="1" parent="M6dfxte_u1xskf7rZ01j-10">
          <mxGeometry y="90" width="180" height="30" as="geometry" />
        </mxCell>
        <mxCell id="M6dfxte_u1xskf7rZ01j-12" value="PK" style="shape=partialRectangle;connectable=0;fillColor=none;top=0;left=0;bottom=0;right=0;fontStyle=1;overflow=hidden;whiteSpace=wrap;html=1;fontFamily=Helvetica;fontSize=11;fontColor=default;" vertex="1" parent="M6dfxte_u1xskf7rZ01j-11">
          <mxGeometry width="30" height="30" as="geometry">
            <mxRectangle width="30" height="30" as="alternateBounds" />
          </mxGeometry>
        </mxCell>
        <mxCell id="M6dfxte_u1xskf7rZ01j-13" value="IdComentario" style="shape=partialRectangle;connectable=0;fillColor=none;top=0;left=0;bottom=0;right=0;align=left;spacingLeft=6;fontStyle=5;overflow=hidden;whiteSpace=wrap;html=1;fontFamily=Helvetica;fontSize=11;fontColor=default;" vertex="1" parent="M6dfxte_u1xskf7rZ01j-11">
          <mxGeometry x="30" width="150" height="30" as="geometry">
            <mxRectangle width="150" height="30" as="alternateBounds" />
          </mxGeometry>
        </mxCell>
        <mxCell id="M6dfxte_u1xskf7rZ01j-14" value="" style="shape=tableRow;horizontal=0;startSize=0;swimlaneHead=0;swimlaneBody=0;fillColor=none;collapsible=0;dropTarget=0;points=[[0,0.5],[1,0.5]];portConstraint=eastwest;top=0;left=0;right=0;bottom=0;fontFamily=Helvetica;fontSize=11;fontColor=default;" vertex="1" parent="M6dfxte_u1xskf7rZ01j-10">
          <mxGeometry y="120" width="180" height="30" as="geometry" />
        </mxCell>
        <mxCell id="M6dfxte_u1xskf7rZ01j-15" value="" style="shape=partialRectangle;connectable=0;fillColor=none;top=0;left=0;bottom=0;right=0;editable=1;overflow=hidden;whiteSpace=wrap;html=1;fontFamily=Helvetica;fontSize=11;fontColor=default;" vertex="1" parent="M6dfxte_u1xskf7rZ01j-14">
          <mxGeometry width="30" height="30" as="geometry">
            <mxRectangle width="30" height="30" as="alternateBounds" />
          </mxGeometry>
        </mxCell>
        <mxCell id="M6dfxte_u1xskf7rZ01j-16" value="Descricao" style="shape=partialRectangle;connectable=0;fillColor=none;top=0;left=0;bottom=0;right=0;align=left;spacingLeft=6;overflow=hidden;whiteSpace=wrap;html=1;fontFamily=Helvetica;fontSize=11;fontColor=default;" vertex="1" parent="M6dfxte_u1xskf7rZ01j-14">
          <mxGeometry x="30" width="150" height="30" as="geometry">
            <mxRectangle width="150" height="30" as="alternateBounds" />
          </mxGeometry>
        </mxCell>
        <mxCell id="M6dfxte_u1xskf7rZ01j-23" style="shape=tableRow;horizontal=0;startSize=0;swimlaneHead=0;swimlaneBody=0;fillColor=none;collapsible=0;dropTarget=0;points=[[0,0.5],[1,0.5]];portConstraint=eastwest;top=0;left=0;right=0;bottom=0;fontFamily=Helvetica;fontSize=11;fontColor=default;" vertex="1" parent="M6dfxte_u1xskf7rZ01j-10">
          <mxGeometry y="150" width="180" height="30" as="geometry" />
        </mxCell>
        <mxCell id="M6dfxte_u1xskf7rZ01j-24" style="shape=partialRectangle;connectable=0;fillColor=none;top=0;left=0;bottom=0;right=0;editable=1;overflow=hidden;whiteSpace=wrap;html=1;fontFamily=Helvetica;fontSize=11;fontColor=default;" vertex="1" parent="M6dfxte_u1xskf7rZ01j-23">
          <mxGeometry width="30" height="30" as="geometry">
            <mxRectangle width="30" height="30" as="alternateBounds" />
          </mxGeometry>
        </mxCell>
        <mxCell id="M6dfxte_u1xskf7rZ01j-25" value="Exibe" style="shape=partialRectangle;connectable=0;fillColor=none;top=0;left=0;bottom=0;right=0;align=left;spacingLeft=6;overflow=hidden;whiteSpace=wrap;html=1;fontFamily=Helvetica;fontSize=11;fontColor=default;" vertex="1" parent="M6dfxte_u1xskf7rZ01j-23">
          <mxGeometry x="30" width="150" height="30" as="geometry">
            <mxRectangle width="150" height="30" as="alternateBounds" />
          </mxGeometry>
        </mxCell>
        <mxCell id="M6dfxte_u1xskf7rZ01j-30" value="" style="edgeStyle=entityRelationEdgeStyle;fontSize=12;html=1;endArrow=ERoneToMany;rounded=0;" edge="1" parent="1" source="zfkhzStkePlrxHXvBTw--133" target="M6dfxte_u1xskf7rZ01j-17">
          <mxGeometry width="100" height="100" relative="1" as="geometry">
            <mxPoint x="1860" y="450" as="sourcePoint" />
            <mxPoint x="1960" y="350" as="targetPoint" />
          </mxGeometry>
        </mxCell>
        <mxCell id="M6dfxte_u1xskf7rZ01j-31" value="" style="edgeStyle=entityRelationEdgeStyle;fontSize=12;html=1;endArrow=ERoneToMany;rounded=0;" edge="1" parent="1" source="zfkhzStkePlrxHXvBTw--93" target="M6dfxte_u1xskf7rZ01j-20">
          <mxGeometry width="100" height="100" relative="1" as="geometry">
            <mxPoint x="1760" y="470" as="sourcePoint" />
            <mxPoint x="1860" y="370" as="targetPoint" />
          </mxGeometry>
        </mxCell>
        <mxCell id="M6dfxte_u1xskf7rZ01j-33" value="&lt;font style=&quot;font-size: 36px;&quot;&gt;Modelo LÃ³gico&lt;/font&gt;" style="text;html=1;align=center;verticalAlign=middle;resizable=0;points=[];autosize=1;strokeColor=none;fillColor=none;" vertex="1" parent="1">
          <mxGeometry x="1470" y="60" width="260" height="60" as="geometry" />
        </mxCell>
      </root>
    </mxGraphModel>
  </diagram>
</mxfile>
